<svg xmlns="http://www.w3.org/2000/svg" width="299.973" height="100.913" viewBox="0 0 299.973 100.913">
  <path id="Bodycare-Logo" d="M50.4,25.2c-2.8-2.8-5.9-2.2-9.3-.9-5.3,2-9.3,6-13.9,9.1-4.9,1.2-2.6-1.7-2-3.6C29,22,32.9,14.4,36.8,6.8,38,4.5,39.6,2.4,36.2.6c-3.6-1.9-3.4,1.6-4.3,3.1-1.9,3.4-3.4,7-5.2,10.4C17.2,31.9,10.2,50.9,0,68.3V70c2.9,1.5,6,6.2,8-.9.6-2.2,1.9-1.4,2.8-.1,2.2,3.2,3.9.5,5.4-.6C23.4,63.1,30.7,58,37.5,52.3A45.57,45.57,0,0,0,51.1,34.6C52.4,31.3,53.2,28,50.4,25.2ZM44.2,36C36.1,48.1,24.5,56.2,11.9,63.2A68.08,68.08,0,0,1,39.4,31c1.9-1.2,4.2-2.7,6.1-.9C47.5,32.1,45.3,34.3,44.2,36Zm118.5-5.8c-11.9,22.4-23.5,44.9-35.2,67.3-.8,1.5-.5,5-4.2,2.7-2.9-1.8-2.4-3.6-1-6.2,7.6-14.3,15-28.6,22.5-42.9.7-1.4,1.5-2.7,2.2-4a8.794,8.794,0,0,0-1-.6c-7.8,6.1-15.5,12.3-23.4,18.2-1.9,1.5-3.5,4.6-7,2-3.6-2.6-1.1-4.9-.1-7.2,5.3-11.9,10.7-23.8,16.3-35.7.8-1.6.5-5.3,4-3.7,2.8,1.2,3.8,3.2,2,6.6-4.9,9.2-9.2,18.8-14.7,30.1,14.2-9.2,24.9-19,33.9-30.7,1.1-1.4,1.4-4.9,4.6-3C164.6,25,164.3,27.2,162.7,30.2ZM230,20.7c-.1-1-1.7-.8-2.8-.2-17.2,9.4-32.3,20.8-38.4,40.7-1.4,4.5-1.3,8.5,2.7,11.2,3.9,2.6,7.6.2,10.6-2.3,4-3.3,7.7-6.9,11.6-10.4,1.7,2.5,0,4.2-.2,6-.3,2.5-5,5.4-.5,7.5,4.7,2.2,5.1-2.7,6.2-5.6,3.8-11,6.7-22.7,13.4-32.2C237.3,28.4,230.4,25.6,230,20.7ZM199.3,65.3c-1.1.9-2.6,1.9-3.7.9-2.1-1.7-1.1-4-.3-6.1,5.8-15.1,17.5-24.4,31.8-31.4C220,42.7,211.5,55.4,199.3,65.3Zm99-41.6c-3.1-3.6-7-2.4-10.8-1.1-13.8,4.7-28.1,23.5-29,39.8.2,3.5.9,8.4,5.9,11.3,5.1,2.9,9.2,0,13.1-2.6,4-2.7,7-6.4,9.7-10.3,1.3-1.8,4-3.6.8-6.2-3.7-3-4.1,1-5.3,2.5-2.8,3.9-5.7,7.6-9.8,10.1-2,1.3-4.3,1.9-6.1-.2-2.9-3.4-2.3-7.4-.9-11.1.5-1.3-.8-3.8,2.7-4,12.4-1,20.7-9.1,28.4-17.8C299.4,31.4,301.6,27.5,298.3,23.7ZM269.7,46.8c7.5-12.2,14.9-18,22.7-18.2C289.5,35.9,283.7,40.7,269.7,46.8Zm-80.9-9.1c-3.3-1.2-1.4-2.9-.4-4.4s1.5-3.1,0-4.5c-1.4-1.3-3.1-.9-4.8-.5C174,31,159.2,52.9,160.3,63c.5,4.8,3.1,6.4,7.5,4.6,4.3-1.7,7.3-5,10.2-8.4,1.2-1.4,2.2-3.5,4.5-1.1,1.6,1.6,2.3,2.9.3,4.8-4.4,4.3-8.8,8.6-14.8,10.6-8.6,2.8-14.2-1.5-14.1-10.7.1-15.2,16-36.4,29.9-40.1,4.2-1.1,7.7-.8,10.5,2.7,2.7,3.4,1.2,6.8-.2,10.2C193.1,38,191.3,38.7,188.8,37.7Zm80.3-11.1c-16.4,9.2-28.5,22-34.7,40.1-.8,2.4-1.1,6.8-6,4.2-4.5-2.4-.6-4.8.2-6.8,5-12,10.3-24,15.8-35.9,1.1-2.3.2-7.8,5.8-5.3,6,2.7-.5,5.3-.2,7.9.1.5.2,1,.3,1.8,5.2-3.8,10.3-7.4,15.3-11.2,2.2-1.7,4.2-2.7,6.3.2C274.9,25.6,270.8,25.7,269.1,26.6ZM77.9,59.7a3.771,3.771,0,0,1-.7,2.1A12.931,12.931,0,0,0,77.9,59.7ZM128.1,2.9c-3.1-1.3-3,1.8-3.6,3.2-2.6,6.1-4.9,12.3-7.8,19.5-2.7-5.1-5.3-3.9-8.6-1.7a88.555,88.555,0,0,0-27.8,29c-3.2,4-2.9,6.7-3,8.9v.1c1.2,11.3,6.9,13.9,16,7,3.7-2.8,6.9-6.3,11.9-11-1.7,5.5-2.7,8.9-3.8,12.2-.7,2.2.6,2.9,2.2,3.7,2.4,1.3,3-.6,3.4-2.1,5.6-21.9,14.3-42.6,23.7-63C131.9,5.6,130.7,4,128.1,2.9ZM77.6,61.3c0,.1-.1.2-.2.3C77.4,61.5,77.5,61.4,77.6,61.3Zm14.1,2.1c-1.8,1.6-3.9,4.2-6.4,2.7-3-1.8-1.4-4.9-.5-7.4,5.5-14.6,16.8-23.4,29.8-30.7C109.6,41.7,102.3,53.7,91.7,63.4Zm-13.8-41c-5.6-2.9-10.4-.4-14.4,3.4a63.927,63.927,0,0,0-19,35.4c-1,5.1-.1,9.9,4.3,12.6,4.8,3,9.6,1.2,13.9-2,5.5-4.1,8.7-10.1,12.8-15.3a14.038,14.038,0,0,0,3-5.8h0c1.4-5.1,3-10.1,4-15.3C83.5,30.5,83.3,25.2,77.9,22.4ZM59.7,66.5c-1.9,1.8-4.2,3.1-6.8,1.7-2.2-1.2-2.8-3.5-2.3-5.8C53.3,50,58.2,38.7,67.8,29.8c1.7-1.6,3.8-2.6,6.1-1.7,2.6.9,2.6,3.3,2.5,6.1C74.3,46.4,69.1,57.6,59.7,66.5Z" transform="translate(0 -0.049)" fill="#fff"/>
</svg>
