<?xml version="1.0" encoding="utf-8"?>
<!-- Generator: Adobe Illustrator 27.8.0, SVG Export Plug-In . SVG Version: 6.00 Build 0)  -->
<svg version="1.1" id="Layer_1" xmlns="http://www.w3.org/2000/svg" xmlns:xlink="http://www.w3.org/1999/xlink" x="0px" y="0px"
	 viewBox="0 0 82.3 110.8" fill="#ffffff" xml:space="preserve">
<style type="text/css">
	.st0{clip-path:url(#SVGID_00000155866935848220296390000008054216857780637882_);}
</style>
<g>
	<defs>
		<rect id="SVGID_1_" width="82.3" height="110.8"/>
	</defs>
	<clipPath id="SVGID_00000101090178236913964790000013186285536685767564_">
		<use xlink:href="#SVGID_1_"  style="overflow:visible;"/>
	</clipPath>
	<path style="clip-path:url(#SVGID_00000101090178236913964790000013186285536685767564_);" d="M0,84.4C0,82.5,1.5,81,3.4,81
		c1.9,0,3.4,1.5,3.4,3.4c0,1.9-1.5,3.4-3.4,3.4C1.5,87.8,0,86.2,0,84.4"/>
	<path style="clip-path:url(#SVGID_00000101090178236913964790000013186285536685767564_);" d="M75.5,84.4c0-1.9,1.5-3.4,3.4-3.4
		c1.9,0,3.4,1.5,3.4,3.4s-1.5,3.4-3.4,3.4C77,87.8,75.5,86.3,75.5,84.4"/>
	<path style="clip-path:url(#SVGID_00000101090178236913964790000013186285536685767564_);" d="M25.3,83.9c1.2,0.4,2.4,1.3,2.4,3.2
		c0,2.2-1.9,3.8-4.3,3.8h-4.8c-0.2,0-0.4-0.2-0.4-0.4V77.4c0-0.2,0.2-0.4,0.4-0.4H23c2.4,0,4.2,1.6,4.2,3.7
		C27.2,82.2,26.3,83.3,25.3,83.9 M22.8,82.8c1,0,1.7-0.8,1.7-1.8c0-1-0.7-1.7-1.7-1.7h-2.2v3.5H22.8z M23.1,88.6
		c1,0,1.8-0.8,1.8-1.8c0-1-0.8-1.7-1.8-1.7h-2.5v3.5H23.1z"/>
	<path style="clip-path:url(#SVGID_00000101090178236913964790000013186285536685767564_);" d="M29.8,77.4c0-0.2,0.2-0.4,0.4-0.4
		h1.9c0.2,0,0.4,0.2,0.4,0.4v8.3c0,1.7,1.2,2.9,2.9,2.9c1.7,0,2.9-1.2,2.9-2.8v-8.3c0-0.2,0.2-0.4,0.4-0.4h1.9
		c0.2,0,0.4,0.2,0.4,0.4v8.4c0,3-2.4,5.3-5.6,5.3c-3.1,0-5.5-2.3-5.5-5.3"/>
	<path style="clip-path:url(#SVGID_00000101090178236913964790000013186285536685767564_);" d="M43.8,77.4c0-0.2,0.2-0.4,0.4-0.4
		h5.7c2.4,0,4.3,1.9,4.3,4.3c0,1.8-1.2,3.3-2.9,4l2.7,5.1c0.1,0.3,0,0.6-0.3,0.6h-2.1c-0.2,0-0.3-0.1-0.3-0.2l-2.6-5.3h-2.2v5.1
		c0,0.2-0.2,0.4-0.4,0.4h-1.8c-0.2,0-0.4-0.2-0.4-0.4 M49.6,83.3c1.1,0,2-0.9,2-2c0-1.1-0.9-1.9-2-1.9h-3.2v4H49.6z"/>
	<path style="clip-path:url(#SVGID_00000101090178236913964790000013186285536685767564_);" d="M60,84.2l-4.5-6.7
		c-0.2-0.3,0-0.6,0.3-0.6h2c0.2,0,0.3,0.1,0.3,0.2l3.2,4.6l3.2-4.6c0.1-0.1,0.2-0.2,0.3-0.2h2.1c0.3,0,0.5,0.3,0.3,0.6l-4.6,6.6v6.4
		c0,0.2-0.2,0.4-0.4,0.4h-1.8c-0.2,0-0.4-0.2-0.4-0.4"/>
	<path style="clip-path:url(#SVGID_00000101090178236913964790000013186285536685767564_);" d="M7.3,96.5c2,0,3.5,0.6,4.8,1.9
		c0.2,0.2,0.2,0.4,0,0.6l-1.2,1.3c-0.1,0.2-0.3,0.2-0.5,0c-0.8-0.7-2-1.2-3.1-1.2c-2.6,0-4.4,2.1-4.4,4.6c0,2.5,1.9,4.6,4.5,4.6
		c1.2,0,2.2-0.5,3-1.1c0.2-0.1,0.4-0.1,0.5,0l1.2,1.3c0.2,0.1,0.1,0.4,0,0.5c-1.4,1.3-3.1,1.9-4.8,1.9c-4,0-7.2-3.2-7.2-7.2
		C0.1,99.7,3.4,96.5,7.3,96.5"/>
	<path style="clip-path:url(#SVGID_00000101090178236913964790000013186285536685767564_);" d="M20.3,96.5c4,0,7.2,3.2,7.2,7.2
		c0,4-3.2,7.2-7.2,7.2c-4,0-7.2-3.2-7.2-7.2C13.1,99.7,16.3,96.5,20.3,96.5 M20.3,108.2c2.5,0,4.6-2.1,4.6-4.6
		c0-2.5-2.1-4.6-4.6-4.6c-2.5,0-4.6,2.1-4.6,4.6C15.7,106.2,17.8,108.2,20.3,108.2"/>
	<path style="clip-path:url(#SVGID_00000101090178236913964790000013186285536685767564_);" d="M29.6,97.1c0-0.2,0.2-0.4,0.4-0.4
		h1.8c0.2,0,0.4,0.2,0.4,0.4v11.2h5.1c0.2,0,0.4,0.2,0.4,0.4v1.6c0,0.2-0.2,0.4-0.4,0.4H30c-0.2,0-0.4-0.2-0.4-0.4"/>
	<path style="clip-path:url(#SVGID_00000101090178236913964790000013186285536685767564_);" d="M39.3,97.1c0-0.2,0.2-0.4,0.4-0.4
		h1.8c0.2,0,0.4,0.2,0.4,0.4v11.2H47c0.2,0,0.4,0.2,0.4,0.4v1.6c0,0.2-0.2,0.4-0.4,0.4h-7.3c-0.2,0-0.4-0.2-0.4-0.4"/>
	<path style="clip-path:url(#SVGID_00000101090178236913964790000013186285536685767564_);" d="M49,97.1c0-0.2,0.2-0.4,0.4-0.4h8.1
		c0.2,0,0.4,0.2,0.4,0.4v1.6c0,0.2-0.2,0.4-0.4,0.4h-5.9v3.3h4.9c0.2,0,0.4,0.2,0.4,0.4v1.7c0,0.2-0.2,0.4-0.4,0.4h-4.9v3.5h5.9
		c0.2,0,0.4,0.2,0.4,0.4v1.6c0,0.2-0.2,0.4-0.4,0.4h-8.1c-0.2,0-0.4-0.2-0.4-0.4"/>
	<path style="clip-path:url(#SVGID_00000101090178236913964790000013186285536685767564_);" d="M66.2,96.5c1.8,0,3.5,0.7,4.9,1.9
		c0.2,0.2,0.2,0.4,0,0.6l-1.2,1.3c-0.2,0.2-0.3,0.2-0.5,0c-0.9-0.8-1.9-1.2-3-1.2c-2.5,0-4.5,2.1-4.5,4.6c0,2.5,2,4.6,4.5,4.6
		c1.1,0,2-0.3,2.4-0.5V106h-1.6c-0.2,0-0.4-0.2-0.4-0.4v-1.6c0-0.2,0.2-0.4,0.4-0.4h3.8c0.2,0,0.4,0.2,0.4,0.4v5.1
		c0,0.2-0.1,0.3-0.2,0.3c0,0-2.1,1.3-4.9,1.3c-4,0-7.2-3.1-7.2-7.1C59,99.7,62.2,96.5,66.2,96.5"/>
	<path style="clip-path:url(#SVGID_00000101090178236913964790000013186285536685767564_);" d="M73.3,97.1c0-0.2,0.2-0.4,0.4-0.4
		h8.1c0.2,0,0.4,0.2,0.4,0.4v1.6c0,0.2-0.2,0.4-0.4,0.4h-5.9v3.3h4.9c0.2,0,0.4,0.2,0.4,0.4v1.7c0,0.2-0.2,0.4-0.4,0.4h-4.9v3.5h5.9
		c0.2,0,0.4,0.2,0.4,0.4v1.6c0,0.2-0.2,0.4-0.4,0.4h-8.1c-0.2,0-0.4-0.2-0.4-0.4"/>
	<path style="clip-path:url(#SVGID_00000101090178236913964790000013186285536685767564_);" d="M65.4,31.3c-2-6-8.6-10.7-15.3-11.4
		c-5.5-0.3-11.1,1.3-15.9,4.6c-10.3,7.2-11.4,20.8-3.8,30c1.5,1.9,3.2,3.5,5.2,4.7c2.2,1.6,5,2.4,7.7,2.7c5.6,0.3,11.7-2.9,15.1-8.5
		c0.7-1.1,1.2-2.3,1.6-3.4c-0.9,1.1-1.9,2.2-3,3.2c-4.9,4.1-10.8,5.1-15.5,3.4l0,0c-5.1-1.7-9.2-6.2-10.2-12.1
		c-0.9-5.2,0.5-10.6,4-14c0.8-0.9,1.6-1.5,2.6-2.3c7-5.6,18.6-5.1,25.8,2.9c1,1.1,2,2.3,2.5,3.7C66.1,33.7,65.8,32.5,65.4,31.3"/>
	<path style="clip-path:url(#SVGID_00000101090178236913964790000013186285536685767564_);" d="M61.3,32.1
		c-4.7-4.6-11.9-6.3-18.2-3.8c-1.3,0.5-2.4,1.2-3.4,1.9c1.5-0.4,3-0.6,4.6-0.6c9.9,0,17.9,7.8,17.9,17.4c0,9.6-8,17.4-17.9,17.4
		c-9.9,0-21.3-9-21.3-24.6c0-7.8-0.1-39.9-0.1-39.9l-5.1,0v39.9c0,17.8,12.2,29.6,26.5,29.6c12.7,0,23.1-10,23.1-22.4
		C67.2,41.3,65,36.1,61.3,32.1"/>
</g>
</svg>
