<svg xmlns="http://www.w3.org/2000/svg" width="653.462" height="470.899" viewBox="0 0 653.462 470.899">
  <g id="_97669514_2872073146161377_8502089054664261632_n_1_" data-name="97669514_2872073146161377_8502089054664261632_n (1)" transform="translate(127.306 347.815)">
    <path id="Path_11" data-name="Path 11" d="M121-345.9c-21.7,5.8-45.1,19.6-60,35.5-24.1,25.6-36.2,56-36.2,90.9-.1,34.7,13,66.3,37.7,91.1,19.9,19.9,44.3,32.6,71.4,37,17.9,2.9,42,1.3,58.5-4l7.6-2.4,8,2.4c4.5,1.3,9.8,2.6,11.8,2.9,2,.2,6.9.9,10.7,1.5,19.6,2.7,43.8-.7,64-9,40.4-16.8,69-52.2,77.9-96.4,2.2-10.6,2.2-36.6,0-47.2-5.3-26.5-16.9-48.7-34.9-66.9-13.8-14-24.4-21.4-41.5-28.7-12.9-5.6-21.3-7.8-29.5-7.8-6.7,0-7.7.3-11.7,3.3-5.9,4.4-9,11-9.6,20.1l-.4,7.2,10.3,1.4c60.7,7.7,99,66.6,80.7,124-8.2,25.7-28.2,47.9-52.6,58.5-4.2,1.8-10.2,4-13.2,4.9-5.8,1.6-25,4-25.8,3.1-.3-.2,2.3-3.4,5.7-7,30.1-32.2,41.6-78.3,30.5-121.4-3.6-13.9-3.4-13.6-9.7-10.5-6.8,3.4-17.4,10.5-21.3,14.3l-3.2,3,1.3,6.3a96.562,96.562,0,0,1-9.1,64.8c-7.2,13.7-21.7,29-34.6,36.4l-4.8,2.8-3.7-2.3c-21.1-12.8-37-34.7-43.2-59.3-2.1-8-2.2-10.7-1.9-25.5.3-10.1,1-17.9,1.8-19.9l1.2-3.4,3.5,3.4c11.9,11.3,22.8,34.3,24.8,52l.6,5.8h35l-.5-3.3c-6-37.1-15-57.4-35-78.4-13-13.8-32.7-27.3-39.8-27.3-3.5,0-7.3,4.7-12.6,15.3-7.1,14.4-10.7,26-12.8,41.2-5.2,38.6,7.1,77.8,33.3,105.5l6.5,7h-5.3c-37.7-.1-74.9-28.4-87-66.2-4.6-14.4-5.6-33.7-2.5-48,8.8-41,44-72.3,84.9-75.5l7.7-.6v-8.1c0-9.6-1.9-14.6-7.3-19.3C140.3-348.3,133.4-349.2,121-345.9Z" fill="#fff"/>
    <path id="Path_12" data-name="Path 12" d="M130-42.5c0,11.8.1,12.5,2,12.5,1.8,0,2-.7,2-8,0-4.5.4-8,1-8,.5,0,3.9,3.6,7.6,8,3.9,4.7,7.5,8,8.6,8,1.6,0,1.8-1,1.8-12,0-11.3-.1-12-2-12-1.8,0-2,.7-2,8,0,4.4-.4,8-.9,8s-4.1-3.8-8.1-8.5-7.8-8.5-8.6-8.5C130.3-55,130-52.5,130-42.5Z" fill="#fff"/>
    <path id="Path_13" data-name="Path 13" d="M168-53.7c-7.1,2.4-10.1,11.6-6,18.2,2.4,3.9,6.4,5.7,11.6,5.3,3.3-.3,4-.7,4.2-2.8.3-2,.1-2.3-.9-1.3-2.3,2.3-6.8,1.5-10-1.6-3.8-3.8-3.9-8.7-.3-12.6,2.2-2.4,3.1-2.7,7-2.2,3.7.4,4.4.2,4.4-1.3a2.964,2.964,0,0,0-2.2-2.4C172.8-55.2,172.1-55.1,168-53.7Z" fill="#fff"/>
    <path id="Path_14" data-name="Path 14" d="M243.9-53.9c-2.7,1-4.9,4.6-4.9,7.8s3.9,7.1,7.1,7.1c3.4,0,3.5.6.9,4-2.2,2.8-2.5,4.6-1,5.5.5.3,3.2-2.7,6-6.6,5.6-8.1,6.6-13.2,3.1-16.3C252.8-54.5,247.3-55.3,243.9-53.9Zm8,3.3c1.6,1.9,1,6.6-1,7.9-2.6,1.6-6.8,0-7.5-2.9C242.2-50.3,248.9-54.3,251.9-50.6Z" fill="#fff"/>
    <path id="Path_15" data-name="Path 15" d="M266-52.3c-3,2.7-3.2,3.3-3.2,9.5,0,7.4,1.7,11.1,6.1,12.6,4.3,1.5,8.5-.7,10.4-5.7,2.1-5,2.1-8.1.4-12.4-1.7-4-3.5-5.5-7.4-6.3C269.9-55.1,268.6-54.6,266-52.3Zm10,4.9c2.4,6.3-.1,14.4-4.6,14.4-3.4,0-5.8-5.6-4.9-11.7C267.6-52.1,273.6-53.8,276-47.4Z" fill="#fff"/>
    <path id="Path_16" data-name="Path 16" d="M96.4-51.5c-2.6,3.9-1.1,7.3,4.2,9.5,2.4,1.1,4.7,2.7,5.1,3.6,1.5,4-4.3,7-7.6,4-1.6-1.4-2-1.5-3-.2-1.7,2,2.3,4.6,7.1,4.6s7.8-2.8,7.8-7.3q0-5.7-6.3-7.2c-3.9-1-5.2-3.8-2.8-6,1.6-1.4,2.3-1.4,4.1-.5,1.8,1,2.4.9,3.1-.1,1.3-2.2,0-2.9-5.1-2.9C98.8-54,97.8-53.6,96.4-51.5Z" fill="#fff"/>
    <path id="Path_17" data-name="Path 17" d="M117-42c0,11.3.1,12,2,12s2-.7,2-12-.1-12-2-12S117-53.3,117-42Z" fill="#fff"/>
    <path id="Path_18" data-name="Path 18" d="M186-42v12h6.5c5.1,0,6.5-.3,6.5-1.5,0-1.1-1.2-1.5-4.5-1.5H190v-8h4c2.9,0,4-.4,4-1.5s-1.1-1.5-4-1.5c-3.9,0-4-.1-4-3.5,0-3.5,0-3.5,4.5-3.5,3.3,0,4.5-.4,4.5-1.5,0-1.2-1.4-1.5-6.5-1.5H186Z" fill="#fff"/>
    <path id="Path_19" data-name="Path 19" d="M220-52.5a1.538,1.538,0,0,0,1.5,1.5c1.2,0,1.5,1.8,1.5,10.5,0,9.8.1,10.5,2,10.5s2-.7,2-12V-54h-3.5C221.1-54,220-53.5,220-52.5Z" fill="#fff"/>
    <path id="Path_20" data-name="Path 20" d="M286-52.5c0,1,1.5,1.5,5.9,1.7l5.9.3-5.5,9.4c-3.7,6.3-5.2,9.6-4.5,10.3,1.6,1.6,2.5.5,7.4-7.9,2.5-4.3,5.6-9.5,6.8-11.6l2.2-3.7h-9.1C287.8-54,286-53.7,286-52.5Z" fill="#fff"/>
  </g>
  <path id="Path_21" data-name="Path 21" d="M-173.12-11.715a25.655,25.655,0,0,1,3.263-12.946,23.3,23.3,0,0,1,8.911-8.911,25.286,25.286,0,0,1,12.665-3.193,24.913,24.913,0,0,1,14.384,4.21,22.013,22.013,0,0,1,8.631,11.648h-11.3a11.707,11.707,0,0,0-4.736-5.263,13.9,13.9,0,0,0-7.052-1.754,14.507,14.507,0,0,0-7.613,2,13.646,13.646,0,0,0-5.192,5.648,18.62,18.62,0,0,0-1.859,8.56,18.675,18.675,0,0,0,1.859,8.525,13.6,13.6,0,0,0,5.192,5.683,14.507,14.507,0,0,0,7.613,2A13.684,13.684,0,0,0-141.3,2.7a11.921,11.921,0,0,0,4.736-5.3h11.3a21.894,21.894,0,0,1-8.6,11.683,25.02,25.02,0,0,1-14.419,4.175,25.285,25.285,0,0,1-12.665-3.193A23.368,23.368,0,0,1-169.857,1.2,25.462,25.462,0,0,1-173.12-11.715Zm86.3,15.226h-19.506l-3.228,9.332h-10.314L-102.251-36.2h11.437L-73.2,12.844H-83.587Zm-2.666-7.859-7.087-20.489-7.087,20.489Zm48.134,17.191L-52.152-6.242h-4.631V12.844h-9.823V-36.133h18.384a21.467,21.467,0,0,1,9.683,2,13.97,13.97,0,0,1,6,5.4,14.745,14.745,0,0,1,2,7.613,14.583,14.583,0,0,1-2.807,8.736A14.418,14.418,0,0,1-41.7-7.013L-29.98,12.844ZM-56.783-13.609h8.21q4,0,5.964-1.93a7.181,7.181,0,0,0,1.965-5.368,6.851,6.851,0,0,0-1.965-5.227q-1.965-1.859-5.964-1.859h-8.21ZM8.4,3.512H-11.1l-3.228,9.332H-24.647L-7.035-36.2H4.4L22.014,12.844H11.629ZM5.735-4.347-1.352-24.836-8.439-4.347ZM72.6-36.133,54.641,12.844H42.713L24.75-36.133H35.275L48.747,2.81l13.4-38.942ZM108.529,3.512H89.023L85.8,12.844H75.481L93.093-36.2H104.53l17.612,49.046H111.757Zm-2.666-7.859L98.776-24.836,91.689-4.347Zm64.764,17.191H160.8l-22.243-33.61v33.61h-9.823V-36.2h9.823L160.8-2.523V-36.2h9.823Zm56.414-9.332H207.534l-3.228,9.332H193.992L211.6-36.2h11.437l17.612,49.046H230.268Zm-2.666-7.859-7.087-20.489L210.2-4.347Zm64.764,17.191h-9.823l-22.243-33.61v33.61h-9.823V-36.2h9.823l22.243,33.68V-36.2h9.823Zm26.8-48.976a29.254,29.254,0,0,1,13.577,3.017,21.555,21.555,0,0,1,9.052,8.6,25.6,25.6,0,0,1,3.193,12.946A25.218,25.218,0,0,1,338.571,1.3a21.683,21.683,0,0,1-9.052,8.525,29.253,29.253,0,0,1-13.577,3.017H298.821V-36.133Zm-.351,40.626q7.718,0,11.928-4.21t4.21-11.858q0-7.648-4.21-11.963t-11.928-4.315h-6.947V4.494ZM-188.065,39.432V88.408h-9.823V56.552L-211.01,88.408h-7.438l-13.191-31.856V88.408h-9.823V39.432h11.156l15.577,36.416,15.577-36.416ZM-155.648,88.9a25.375,25.375,0,0,1-12.63-3.228,24.1,24.1,0,0,1-9.122-8.946,25.026,25.026,0,0,1-3.368-12.946A24.892,24.892,0,0,1-177.4,50.9a24.1,24.1,0,0,1,9.122-8.946,25.375,25.375,0,0,1,12.63-3.228,25.318,25.318,0,0,1,12.665,3.228,23.913,23.913,0,0,1,9.052,8.946A25.1,25.1,0,0,1-130.6,63.779a25.231,25.231,0,0,1-3.333,12.946,23.841,23.841,0,0,1-9.087,8.946A25.375,25.375,0,0,1-155.648,88.9Zm0-8.771a14.964,14.964,0,0,0,7.789-2A13.708,13.708,0,0,0-142.6,72.41a18.765,18.765,0,0,0,1.895-8.63,18.548,18.548,0,0,0-1.895-8.6,13.522,13.522,0,0,0-5.262-5.648,15.173,15.173,0,0,0-7.789-1.965,15.363,15.363,0,0,0-7.824,1.965,13.454,13.454,0,0,0-5.3,5.648,18.548,18.548,0,0,0-1.895,8.6,18.765,18.765,0,0,0,1.895,8.63,13.637,13.637,0,0,0,5.3,5.719A15.152,15.152,0,0,0-155.648,80.128Zm65.676-40.7V47.36h-13.051V88.408h-9.823V47.36H-125.9V39.432ZM-60.081,88.9a25.375,25.375,0,0,1-12.63-3.228,24.1,24.1,0,0,1-9.122-8.946A25.026,25.026,0,0,1-85.2,63.779,24.892,24.892,0,0,1-81.833,50.9a24.1,24.1,0,0,1,9.122-8.946,25.375,25.375,0,0,1,12.63-3.228,25.318,25.318,0,0,1,12.665,3.228A23.913,23.913,0,0,1-38.365,50.9a25.1,25.1,0,0,1,3.333,12.876,25.231,25.231,0,0,1-3.333,12.946,23.841,23.841,0,0,1-9.087,8.946A25.375,25.375,0,0,1-60.081,88.9Zm0-8.771a14.964,14.964,0,0,0,7.788-2A13.708,13.708,0,0,0-47.03,72.41a18.765,18.765,0,0,0,1.895-8.63,18.548,18.548,0,0,0-1.895-8.6,13.522,13.522,0,0,0-5.263-5.648,15.173,15.173,0,0,0-7.788-1.965A15.364,15.364,0,0,0-67.9,49.536a13.454,13.454,0,0,0-5.3,5.648,18.548,18.548,0,0,0-1.895,8.6A18.765,18.765,0,0,0-73.2,72.41a13.637,13.637,0,0,0,5.3,5.719A15.152,15.152,0,0,0-60.081,80.128Zm57.607,8.28L-13.28,69.323h-4.631V88.408h-9.823V39.432H-9.351a21.467,21.467,0,0,1,9.683,2,13.97,13.97,0,0,1,6,5.4,14.745,14.745,0,0,1,2,7.613,14.583,14.583,0,0,1-2.807,8.736,14.418,14.418,0,0,1-8.35,5.368L8.893,88.408ZM-17.911,61.955H-9.7q4,0,5.964-1.93a7.181,7.181,0,0,0,1.965-5.368A6.851,6.851,0,0,0-3.737,49.43Q-5.7,47.571-9.7,47.571h-8.209Zm75.78-22.523V88.408H48.046V67.568H27.066V88.408H17.242V39.432h9.823V59.569h20.98V39.432ZM90.286,88.9a25.375,25.375,0,0,1-12.63-3.228,24.1,24.1,0,0,1-9.122-8.946,25.026,25.026,0,0,1-3.368-12.946A24.892,24.892,0,0,1,68.534,50.9a24.1,24.1,0,0,1,9.122-8.946,26.393,26.393,0,0,1,25.3,0A23.913,23.913,0,0,1,112,50.9a25.1,25.1,0,0,1,3.333,12.876A25.231,25.231,0,0,1,112,76.725a23.841,23.841,0,0,1-9.087,8.946A25.375,25.375,0,0,1,90.286,88.9Zm0-8.771a14.964,14.964,0,0,0,7.788-2,13.708,13.708,0,0,0,5.263-5.719,18.765,18.765,0,0,0,1.895-8.63,18.548,18.548,0,0,0-1.895-8.6,13.522,13.522,0,0,0-5.263-5.648,15.173,15.173,0,0,0-7.788-1.965,15.364,15.364,0,0,0-7.824,1.965,13.454,13.454,0,0,0-5.3,5.648,18.548,18.548,0,0,0-1.895,8.6,18.765,18.765,0,0,0,1.895,8.63,13.637,13.637,0,0,0,5.3,5.719A15.152,15.152,0,0,0,90.286,80.128Zm85.744-40.7V88.408h-9.823V56.552L153.085,88.408h-7.438L132.456,56.552V88.408h-9.823V39.432h11.157l15.577,36.416,15.577-36.416Zm19.506,7.929V59.64h16.489v7.788H195.536V80.409H214.13v8H185.713V39.361H214.13v8ZM237.355,63.85A25.655,25.655,0,0,1,240.618,50.9a23.3,23.3,0,0,1,8.911-8.911A25.285,25.285,0,0,1,262.194,38.8a24.913,24.913,0,0,1,14.384,4.21,22.013,22.013,0,0,1,8.63,11.648h-11.3a11.707,11.707,0,0,0-4.736-5.262,13.9,13.9,0,0,0-7.052-1.754,14.507,14.507,0,0,0-7.613,2,13.646,13.646,0,0,0-5.192,5.648,18.62,18.62,0,0,0-1.859,8.56,18.675,18.675,0,0,0,1.859,8.525,13.6,13.6,0,0,0,5.192,5.683,14.507,14.507,0,0,0,7.613,2,13.684,13.684,0,0,0,7.052-1.789,11.921,11.921,0,0,0,4.736-5.3h11.3a21.894,21.894,0,0,1-8.6,11.683,25.02,25.02,0,0,1-14.419,4.175,25.285,25.285,0,0,1-12.665-3.193,23.368,23.368,0,0,1-8.911-8.876A25.462,25.462,0,0,1,237.355,63.85Zm66.1,16.77h16.138v7.788H293.629V39.432h9.823Zm32.066-41.188V69.744q0,4.982,2.6,7.613a9.79,9.79,0,0,0,7.3,2.631q4.771,0,7.368-2.631t2.6-7.613V39.432h9.893V69.673a19.523,19.523,0,0,1-2.7,10.56,17.134,17.134,0,0,1-7.227,6.49A22.942,22.942,0,0,1,345.272,88.9a22.329,22.329,0,0,1-9.929-2.175,16.56,16.56,0,0,1-7.052-6.49,20.139,20.139,0,0,1-2.6-10.56V39.432Zm67.009,23.857a11.007,11.007,0,0,1,6.806,4.14A12.091,12.091,0,0,1,412,75.146a12.438,12.438,0,0,1-1.93,6.911,12.85,12.85,0,0,1-5.578,4.666,20.437,20.437,0,0,1-8.63,1.684h-21.12V39.432H394.95a20.957,20.957,0,0,1,8.6,1.614,12.239,12.239,0,0,1,5.473,4.491,11.758,11.758,0,0,1,1.859,6.525,11.162,11.162,0,0,1-2.28,7.157A12.2,12.2,0,0,1,402.528,63.288ZM384.565,59.64h8.981a8.222,8.222,0,0,0,5.4-1.579,5.559,5.559,0,0,0,1.895-4.526,5.664,5.664,0,0,0-1.895-4.561,8.1,8.1,0,0,0-5.4-1.614h-8.981Zm9.893,20.769a8.406,8.406,0,0,0,5.578-1.684,5.892,5.892,0,0,0,2-4.771,6.145,6.145,0,0,0-2.105-4.947,8.487,8.487,0,0,0-5.683-1.789h-9.683V80.409Z" transform="translate(241.462 382)" fill="#fff"/>
</svg>
