<svg xmlns="http://www.w3.org/2000/svg" width="616.595" height="132.032" viewBox="0 0 616.595 132.032">
  <g id="layer1" transform="translate(186.869 -417.402)">
    <path id="path99" d="M316.444,436.809c-13.075,12.809-19.543,28.519-19.543,46.742,0,36.833,29.708,65.883,66.415,65.883,36.838,0,66.41-28.915,66.41-65.883,0-18.093-6.6-33.541-19.407-46.611-12.94-13.071-28.654-19.538-47-19.538A64,64,0,0,0,316.444,436.809ZM239.6,487.775h44.76V467.706H239.6V439.714h48.719v-20.2H218.6V547.452h69.847v-20.2H239.6ZM-47.045,419.514H-68.039V547.452h20.994ZM-159.8,547.452c23.5,0,41.589-5.278,53.736-16.241C-92.2,518.8-85.2,502.958-85.2,483.551c0-20.2-7.13-36.441-21.389-48.588-12.017-10.3-29.843-15.449-52.948-15.449h-27.33V547.452ZM47.357,519.46l11.751,27.992h23.24L27.819,419.118H17.253L-38.726,547.452h23.105l12.278-28.519c.266-.792.4-1.319.527-1.846.527.266,1.32.527,2.248.923A65.9,65.9,0,0,0,22.536,522.1a67.6,67.6,0,0,0,20.335-3.171,18.329,18.329,0,0,0,3.828-1.58C46.83,517.88,47.227,519.069,47.357,519.46ZM182.691,458.6l15.98-13.733c-13.733-18.354-32.086-27.46-53.741-27.46a66.206,66.206,0,0,0-66.541,66.279c0,36.045,29.573,65.753,65.618,65.753a62.934,62.934,0,0,0,26.276-5.81,60.413,60.413,0,0,0,21.128-15.579,51.248,51.248,0,0,0,11.219-21.128,76.318,76.318,0,0,0,2.247-23.9l-.265-3.828h-57.57v20.2H182.43c-.923,7.927-5.022,14.791-12.147,20.466a40.8,40.8,0,0,1-26.542,9.377c-11.485,0-21.786-4.756-31.289-14.129a43.081,43.081,0,0,1-12.939-31.293,45.156,45.156,0,0,1,13.732-33.14,42.465,42.465,0,0,1,31.424-13.07C160.248,437.6,172.526,444.731,182.691,458.6ZM395.4,450.938c8.981,8.71,13.337,19.673,13.337,32.477A44.674,44.674,0,0,1,395.4,515.9a43.76,43.76,0,0,1-32.081,13.336c-25.222,0-45.287-20.732-45.287-45.819A44.951,44.951,0,0,1,331.365,450.8a43.342,43.342,0,0,1,31.951-13.2C375.724,437.6,386.421,442.092,395.4,450.938Zm-554.54-11.224c17.957,0,30.631,3.7,38.553,10.692,9.508,8.319,14.26,19.277,14.26,33.009,0,13.071-4.621,23.9-13.728,32.352-7.922,7.522-20.862,11.485-39.085,11.485h-5.81V439.714ZM4.709,499.26c.4-.792,1.059-2.112,1.32-2.774L22.14,457.4l15.845,39.477c.266.662.793,1.716,1.189,2.644l-1.982.392A57.773,57.773,0,0,1,22.536,501.9a57.051,57.051,0,0,1-14.922-1.982,14.966,14.966,0,0,0-2.905-.658" fill="#fff"/>
  </g>
</svg>
