<?xml version="1.0" encoding="UTF-8"?>
<svg id="Layer_1" data-name="Layer 1" xmlns="http://www.w3.org/2000/svg" viewBox="0 0 447 157.69">
  <defs>
    <style>
      .cls-1 {
        fill: #fff;
      }
    </style>
  </defs>
  <g>
    <rect class="cls-1" x="87.29" y=".02" width="17.54" height="93.14"/>
    <path class="cls-1" d="M168.17,61.21c0,2.58-.42,4.98-1.26,7.21-.84,2.23-2,4.19-3.49,5.87-1.49,1.68-3.27,3-5.35,3.94-2.08.94-4.31,1.41-6.69,1.41-3.87,0-7.01-1.21-9.44-3.64-2.43-2.43-3.64-5.87-3.64-10.33V22.2h-17.54v43.62c0,8.82,2.28,15.83,6.84,21.03,4.55,5.2,11.19,7.8,19.91,7.8,2.77,0,5.25-.3,7.43-.89,2.18-.6,4.11-1.36,5.8-2.31,1.68-.94,3.17-1.96,4.46-3.05,1.28-1.09,2.38-2.13,3.27-3.12l.44,7.88h16.79V22.2h-17.54v39.01Z"/>
    <path class="cls-1" d="M242.38,79.34c-1.63.8-3.84,1.19-6.61,1.19-2.97,0-5.13-1.06-6.46-3.19-1.34-2.13-2.01-5.18-2.01-9.14v-30.91h18.73v-15.09h-18.73V.03h-17.54v22.17h-11.89v15.09h11.89v32.1c0,3.87.4,7.41,1.19,10.63.79,3.22,2.1,5.97,3.94,8.25,1.83,2.28,4.24,4.04,7.21,5.28,2.97,1.24,6.59,1.86,10.85,1.86s7.92-.62,11.29-1.86c3.37-1.24,6.78-3.29,10.25-6.17l-7.43-10.85c-1.48,1.09-3.05,2.03-4.68,2.82"/>
    <path class="cls-1" d="M302.5,79.34c-1.63.8-3.84,1.19-6.61,1.19-2.97,0-5.13-1.06-6.46-3.19-1.34-2.13-2.01-5.18-2.01-9.14v-30.91h18.73v-15.09h-18.73V.03h-17.54v22.17h-11.89v15.09h11.89v32.1c0,3.87.4,7.41,1.19,10.63.79,3.22,2.1,5.97,3.94,8.25,1.83,2.28,4.24,4.04,7.21,5.28,2.97,1.24,6.59,1.86,10.85,1.86s7.93-.62,11.3-1.86c3.36-1.24,6.78-3.29,10.25-6.17l-7.43-10.85c-1.49,1.09-3.05,2.03-4.68,2.82"/>
    <path class="cls-1" d="M379.47,33.72c-2.68-3.76-6.22-6.81-10.63-9.14-4.41-2.33-9.79-3.49-16.12-3.49-5.25,0-10.03.94-14.34,2.82-4.31,1.88-8.03,4.46-11.15,7.73-3.12,3.27-5.55,7.11-7.28,11.52-1.73,4.41-2.6,9.19-2.6,14.34,0,5.65.87,10.8,2.6,15.46,1.73,4.66,4.21,8.65,7.43,11.96,3.22,3.32,7.11,5.92,11.66,7.8,4.56,1.88,9.61,2.82,15.16,2.82s10.13-.6,14.04-1.78c3.91-1.19,7.13-2.53,9.66-4.01,2.53-1.49,4.46-2.9,5.8-4.24,1.34-1.34,2.15-2.15,2.45-2.45l-9.51-10.7c-.6.6-1.46,1.36-2.6,2.3-1.14.94-2.6,1.84-4.38,2.68-1.78.84-3.94,1.59-6.46,2.23-2.53.65-5.48.97-8.84.97-2.28,0-4.58-.39-6.91-1.19-2.33-.79-4.41-1.93-6.24-3.42-1.84-1.49-3.32-3.27-4.46-5.35-1.14-2.08-1.71-4.41-1.71-6.99h52.02v-2.52c0-4.95-.59-9.81-1.78-14.57-1.19-4.76-3.12-9.01-5.8-12.78M334.89,50.96c0-1.78.4-3.57,1.19-5.35.79-1.78,1.93-3.39,3.42-4.83,1.49-1.44,3.34-2.63,5.57-3.57,2.23-.94,4.78-1.41,7.65-1.41,2.68,0,5.05.47,7.13,1.41,2.08.94,3.79,2.13,5.13,3.57,1.34,1.44,2.35,3.05,3.05,4.83.69,1.78,1.04,3.57,1.04,5.35h-34.18Z"/>
    <path class="cls-1" d="M442.91,21.6c-1.34-.2-2.85-.3-4.53-.3-2.88,0-5.43.35-7.65,1.04-2.23.7-4.19,1.54-5.87,2.53-1.68.99-3.15,2.08-4.38,3.27-1.24,1.19-2.26,2.28-3.05,3.27l-.44-9.21h-16.8v70.96h17.54v-38.42c0-2.57.47-4.9,1.41-6.98.94-2.08,2.2-3.86,3.79-5.35,1.58-1.49,3.47-2.62,5.65-3.42,2.18-.79,4.46-1.19,6.84-1.19,1.68,0,3.14.1,4.38.3,1.24.2,2.45.54,3.64,1.04l3.57-16.5c-1.39-.49-2.75-.84-4.09-1.04"/>
    <rect class="cls-1" width="74.54" height="18.63"/>
    <rect class="cls-1" y="37.27" width="55.91" height="18.63"/>
    <rect class="cls-1" x="0" y="74.54" width="18.63" height="18.63"/>
    <polygon class="cls-1" points="431.31 1.87 428.3 1.87 428.3 .02 436.41 .02 436.41 1.87 433.42 1.87 433.42 9.3 431.31 9.3 431.31 1.87"/>
    <polygon class="cls-1" points="437.75 .02 439.74 .02 442.16 4.38 444.53 .02 446.53 .02 446.96 9.3 444.86 9.3 444.6 3.24 442.68 6.86 441.59 6.86 439.56 3.28 439.32 9.3 437.32 9.3 437.75 .02"/>
  </g>
  <g>
    <path class="cls-1" d="M80.75,128.74h7.49v16.55c0,1.55.36,2.82,1.08,3.81.72.99,1.91,1.48,3.58,1.48s2.85-.5,3.55-1.5c.71-1,1.06-2.26,1.06-3.79v-16.55h7.58v17.22c0,1.81-.3,3.44-.89,4.89-.59,1.45-1.43,2.69-2.52,3.7-1.09,1.01-2.37,1.79-3.85,2.33-1.48.54-3.11.81-4.89.81s-3.41-.27-4.91-.81c-1.5-.53-2.79-1.3-3.87-2.31s-1.93-2.23-2.52-3.68c-.59-1.45-.89-3.1-.89-4.93v-17.22Z"/>
    <path class="cls-1" d="M111.69,128.74h7.49v10.58l8.42-10.58h8.76l-9.39,10.88,10.88,17.35h-9.1l-6.9-11.43-2.67,3.13v8.3h-7.49v-28.23Z"/>
    <path class="cls-1" d="M166.16,154.94c-.76.56-1.49,1.02-2.18,1.35-.69.34-1.35.61-1.99.82-.64.21-1.26.35-1.88.42-.62.07-1.26.11-1.9.11-1.27,0-2.48-.18-3.62-.55-1.14-.37-2.14-.91-3-1.63s-1.54-1.6-2.03-2.64c-.49-1.04-.74-2.24-.74-3.6,0-1.75.45-3.38,1.35-4.89.9-1.51,2.23-2.76,3.98-3.75-.65-.99-1.05-1.86-1.21-2.63-.15-.76-.23-1.47-.23-2.12,0-1.1.23-2.12.68-3.07.45-.95,1.09-1.78,1.9-2.5s1.79-1.28,2.92-1.69c1.13-.41,2.37-.62,3.72-.62,1.78,0,3.41.43,4.89,1.29,1.48.86,2.63,2.23,3.45,4.13l-5.16,3c-.28-.7-.66-1.29-1.12-1.76s-1.06-.7-1.8-.7c-.68,0-1.25.2-1.71.61-.46.41-.7.95-.7,1.63,0,.48.14.94.42,1.38.28.44.58.84.89,1.21l6.01,7.02c.56-.56,1.16-1.2,1.8-1.9.63-.71,1.32-1.47,2.05-2.29l4.7,4.27c-.82.9-1.6,1.74-2.35,2.52-.75.78-1.45,1.49-2.09,2.14l5.5,6.43h-8.8l-1.74-2.03ZM157.82,145.08c-.73.48-1.26,1.02-1.59,1.61-.32.59-.49,1.21-.49,1.86,0,.9.33,1.6.99,2.09.66.5,1.42.74,2.26.74.54,0,1.05-.08,1.54-.23.49-.15,1.05-.44,1.67-.87l-4.4-5.21Z"/>
    <path class="cls-1" d="M190.4,128.74h7.49v28.23h-7.49v-28.23Z"/>
    <path class="cls-1" d="M204.67,128.74h11.68c1.52,0,2.9.2,4.13.59s2.28.98,3.15,1.76c.87.78,1.55,1.74,2.03,2.9.48,1.16.72,2.5.72,4.02,0,1.86-.41,3.48-1.23,4.85-.82,1.37-1.9,2.46-3.26,3.28l6.05,10.83h-8.04l-4.78-9.61h-3.13v9.61h-7.32v-28.23ZM215.63,141.48c.99,0,1.79-.3,2.41-.91s.93-1.42.93-2.43c0-1.07-.3-1.92-.89-2.54-.59-.62-1.43-.93-2.5-.93h-3.6v6.82h3.64Z"/>
    <path class="cls-1" d="M232.94,128.74h20.31v6.48h-12.82v4.36h10.54v6.1h-10.54v4.82h13.71v6.48h-21.2v-28.23Z"/>
    <path class="cls-1" d="M259.72,128.74h7.49v21.63h13.08v6.6h-20.57v-28.23Z"/>
    <path class="cls-1" d="M293.37,128.74h8.59l9.99,28.23h-8.08l-1.82-5.84h-9.44l-1.86,5.84h-7.75l10.37-28.23ZM300.52,145.67l-3.13-10.37-3.26,10.37h6.39Z"/>
    <path class="cls-1" d="M316.35,128.74h6.81l10.83,15.74v-15.74h7.41v28.23h-6.39l-11.26-16.21v16.21h-7.41v-28.23Z"/>
    <path class="cls-1" d="M348.17,128.74h10.83c2.17,0,4.18.28,6.03.85s3.45,1.42,4.8,2.58c1.35,1.16,2.41,2.64,3.17,4.44s1.14,3.94,1.14,6.39-.39,4.38-1.16,6.11c-.78,1.74-1.84,3.19-3.19,4.36-1.35,1.17-2.96,2.04-4.82,2.62s-3.87.87-6.01.87h-10.79v-28.23ZM358.71,150.37c2.45,0,4.35-.7,5.69-2.1,1.34-1.4,2.01-3.21,2.01-5.44,0-1.13-.15-2.15-.47-3.07-.31-.92-.78-1.71-1.42-2.37s-1.43-1.18-2.39-1.54c-.96-.37-2.1-.55-3.43-.55h-3.05v15.07h3.05Z"/>
  </g>
</svg>