<?xml version="1.0" encoding="utf-8"?>
<!-- Generator: Adobe Illustrator 27.8.0, SVG Export Plug-In . SVG Version: 6.00 Build 0)  -->
<svg version="1.1" id="Layer_1" xmlns="http://www.w3.org/2000/svg" xmlns:xlink="http://www.w3.org/1999/xlink" x="0px" y="0px"
	 viewBox="0 0 961.2 308.8" fill="#ffffff" xml:space="preserve">
<g id="IMOLOGO">
	<g id="IMO-LOGO">
		<path d="M0,121.8c-0.4-15.2,3.2-28.4,9.4-41C12.9,74,17.2,67.7,22.3,62c1-1.2,1.8-1.6,3.5-0.6c6.9,4.2,14.2,4.4,21.6,1.1
			c0.9-0.4,1.6-1,2.4-1.4c1.3-0.7,1.6-1.8,0.9-2.9c-0.8-1.3-2-1.2-3.1-0.4c-2.2,1.5-4.7,2.3-7.4,2.8c-8.6,1.7-18-4.3-20.3-12.9
			c-2.8-10.8,3.4-21.3,14.4-23.2c9.2-1.6,17.4,2.9,20.8,12.2c0.6,1.7,1.2,1.8,2.7,1.2c8.3-3,16.8-4.7,25.6-5.3
			c8.1-0.5,16.1,0.1,23.9,1.7c8.9,1.7,17.4,5.1,25.3,9.7c8.2,4.8,15.7,10.7,22,17.8c5.8,6.5,10.5,13.8,14,21.8
			c3.2,7.2,5.4,14.8,6.9,22.6c0.3,1.4,0.1,2.8,0.7,4.1c0.5,1,1.2,1.8,2.4,1.4c1.1-0.3,1.5-1.3,1.4-2.4c-1.1-8-3.2-15.8-6.1-23.3
			c-0.6-1.5-0.6-2.8,0.2-4.3c3.6-6.5,7.9-12.6,12.9-18.1c8.4-9.4,18.3-16.9,29.5-22.5c9.4-4.7,19.4-7.6,29.9-9
			c6.3-0.8,12.5-1.1,18.7-0.8c13.3,0.7,26,3.8,37.8,10.1c1.8,1,3,1,4.6-0.6c4.9-5.2,11-7.5,18.2-7.7c7.3-0.2,13.5,2,18.7,6.7
			c5.4,4.9,8.5,11.1,9,18.5c0.6,9.9-3.5,17.7-11,23.7c-4.4,3.6-9.7,5.1-15.2,5.4c-1.4,0.1-2.9,0.1-2.9,1.9c0,1.8,1.5,1.9,2.9,1.9
			c6.2,0.1,11.8-1.9,16.9-5.5c1.8-1.3,2.6-1.2,3.6,0.9c4.4,9.8,7.7,20,8.7,30.8c0.3,3.6,0.7,7.2,0.8,10.7c0,21.5-6.1,41.3-19,58.5
			c-13.8,18.5-32,30.8-54.4,36.6c-1.6,0.4-2.1,0.3-2.5-1.5c-1.2-5.6-4.4-10-8.8-13.4c-0.8-0.6-1.8-1.4-3-1.1
			c-0.7,0.2-1.1,0.8-1.2,1.6c-0.1,1.2,0.5,1.9,1.4,2.5c4,2.5,6.6,6.1,7.6,10.6c2.9,12.6-5.8,23-17.2,23.3c-2.4,0.1-4.7-0.1-6.9-1.1
			c-1.7-0.7-2.4-0.1-3,1.4c-3.3,8.5-8.2,16.1-14.1,22.9c-6.4,7.3-13.7,13.7-22.1,18.7c-10,5.9-20.6,9.8-32,11.5
			c-9.3,1.4-18.6,1.6-28-0.2c-1.6-0.3-1.7-0.8-1.3-2.2c3.3-12.3-4.9-23.8-16.4-26.5c-1.3-0.3-2.7-0.1-4-0.2
			c-1.3-0.1-2.5,0.4-2.5,1.9c0,1.5,1.1,1.9,2.4,1.9c6.2,0.2,11,3,14.3,8.1c3.6,5.7,3.9,12,0.7,17.9c-3.2,5.8-8.2,9.2-15.2,9.4
			c-9.1,0.3-17.2-6.7-18.3-16.6c-0.3-2.8,0.5-5.5,1.7-7.9c0.7-1.4,0.4-2-0.8-2.9c-9.7-7.3-17.3-16.4-23.4-26.9
			c-4.1-7-6.9-14.4-8.8-22.2c-1.1-4.7-1.8-9.5-2.3-14.3c-0.9-8.8-0.1-17.5,1.9-26c0.1-0.5,0.1-0.9,0.1-1.4c0-1,0.2-2.2-1.3-2.4
			c-1.4-0.2-2.3,0.4-2.5,1.8c-0.6,3.5-1.2,6.9-1.9,10.3c-0.4,1.9-0.6,3.9-0.4,5.8c0.2,2.3-1.1,2.5-2.7,2.1
			c-5.8-1.3-11.6-2.6-17.1-4.9c-12.6-5.1-23.7-12.5-32.9-22.6c-10.8-11.9-18-25.7-21.4-41.5C0.5,133.2-0.2,127.1,0,121.8z
			 M231.9,185.4c0.8,0.3,1.2,0.5,1.6,0.7c9.2,4.6,18.8,7.1,29.1,6.8c8.9-0.3,17.4-2.1,25.3-6.1c13-6.6,22.6-16.6,28.5-30
			c4.7-10.6,5.8-21.7,4.3-33.1c-1-7.2-3.4-13.9-7.1-20.3c-5.9-10.3-14.1-18.3-24.6-23.8c-12.5-6.6-25.9-8.2-39.7-5.5
			c-14.1,2.7-25.8,9.9-34.7,21.2c-9.4,11.9-14,25.4-13.1,40.7c0.3,5.7,1.3,11.2,3.1,16.5c3.5,10,9.1,18.5,17.4,25.2
			c1.2,0.9,1.8,2.1,0.8,3.4c-1.1,1.5-2.2,0.6-3.2-0.2c-6.4-5.5-11.9-11.7-15.2-19.4c-1.5-3.4-3.8-4.4-7-4.5
			c-9.5-0.2-18.3,2.2-25.7,8.4c-1.3,1-2.6,3-3.8,2.9c-1.4-0.1-2.7-2-4-3c-9.1-7.2-19.4-9.3-30.6-7.4c-9.5,1.6-16.6,7-22.6,14.2
			c-1,1.2-2,1.3-3,0.5c-1.2-0.9-0.8-1.9,0.1-3c2.7-3.3,5.6-6.3,9.1-8.7c0.7-0.5,2.3-0.9,2-2c-0.3-1.1-1.8-1.4-2.9-1.7
			c-0.6-0.1-1.2-0.1-1.9-0.1c-2.7,0-5.3,0-8,0c-3.8,0-3.8,0-3.8-3.7c0-9.9,0-19.8,0-29.7c0-11.4,0-22.8,0-34.2c0-2.9,0.2-3.1,3-3.1
			c2.7,0,5.3,0.1,8,0c5.7-0.3,9.1-2.8,8.7-8.9c-0.1-1.5,0-3,0-4.5c0-4.7-3.1-7.8-7.8-7.8c-14.8,0-29.7,0-44.5,0
			c-4.9,0-7.9,3.1-8,7.9c0,1.9,0,3.8,0,5.7c0,3.7,2.1,6.3,5.8,7.2c3.9,0.9,7.8,0.3,11.7,0.4c1.6,0,2.3,0.5,2.3,2.2
			c0,22.2,0,44.4,0,66.7c0,1.4-0.5,1.9-1.9,1.9c-3.4-0.1-6.8,0-10.1,0c-4.6,0-7.8,3.3-7.8,7.9c0,1.7,0.2,3.5,0,5.2
			c-0.6,4.2,3.6,8.3,8.2,8.2c11.4-0.2,22.8-0.1,34.2-0.1c0.8,0,1.7-0.3,2.6,0.3c-0.4,1-0.8,2-1.2,3.1c-1,2.7-1.9,5.5-2.3,8.3
			c-0.8,5.4-0.5,10.9-0.5,16.4c0,13.1,0,26.2,0,39.3c0,5.6,2.5,10,9.2,9.4c1.1-0.1,2.2,0,3.3,0c5.7,0,8.2-2.5,8.2-8.1
			c0-16.9,0-33.8,0-50.6c0-3.8,0.9-7.3,2.8-10.5c6-10.2,21.5-10.7,28.1-0.9c2.5,3.7,3.4,7.7,3.4,12c0.1,17,0,34.1,0,51.1
			c0,4.2,2.9,7,7.1,7.1c1.8,0,3.6-0.2,5.4,0c4.5,0.5,7.9-3.3,7.8-7.9c-0.2-15.9-0.1-31.9-0.1-47.8c0-2.5-0.1-5,0.5-7.5
			c1.4-6.3,4.8-11,11.1-13.2c6.3-2.2,12.1-0.9,17.1,3.5c4.2,3.7,5.7,8.7,5.7,14.1c0,17.3,0,34.6,0,51.8c0,3.9,2.9,6.8,6.8,6.9
			c2,0,4.1,0,6.1,0c4.6,0,7.3-2.8,7.3-7.3c0-18.4,0-36.8,0-55.1C232.8,190.3,231.8,188.1,231.9,185.4z"/>
		<path id="Blubble_00000050638849092355182280000009901574977205259148_" d="M67.4,7.7c0.7,3.9-3.4,8.1-7.7,8
			c-4.1-0.2-7.9-3.8-7.9-7.8c0.1-4,3.6-7.8,7.7-7.9C63.6,0,68.1,3.4,67.4,7.7z"/>
		<path id="Blubble" d="M98.6,295.6c-4.4,0-7.6-3.3-7.6-7.7c0-4.4,3.4-7.9,7.6-7.8c4.4,0,7.8,3.5,7.9,7.9
			C106.7,292.1,102.4,296.2,98.6,295.6z"/>
		<path id="Bubble" d="M261.3,171.2c-20.8-0.1-38.4-17.2-37.9-39c0.5-20.4,16.7-37.4,38.1-37.3c21.9,0.1,38.2,17.1,38.1,38.2
			C299.5,154.9,282.5,171,261.3,171.2z"/>
	</g>
</g>
<g>
	<path d="M426.7,149c3.1-5.4,7.4-9.7,12.9-12.8c5.5-3.1,11.9-4.6,19.1-4.6c2.7,0,5.5,0.2,8.4,0.8c2.9,0.5,5.6,1.3,8.1,2.4
		c2.5,1.1,4.5,2.4,6,3.9c1.5,1.5,2.3,3.4,2.3,5.5c0,1.9-0.6,3.8-1.9,5.7c-1.2,1.9-2.8,3.5-4.5,4.7c-2.1-2.3-4.8-4.2-7.9-5.5
		c-3.1-1.3-6.4-2-9.9-2c-3.9,0-7.3,0.9-10.3,2.6c-3,1.8-5.3,4.2-7,7.4c-1.7,3.1-2.5,6.8-2.5,11.1c0,6.3,1.9,11.2,5.6,14.8
		c3.8,3.6,8.9,5.5,15.4,5.5c3,0,5.9-0.4,8.8-1.2c2.8-0.8,5.2-1.8,7-3.1l7.7,12.9c-1.8,1.3-4.1,2.5-6.8,3.6c-2.7,1.1-5.7,1.9-8.8,2.5
		c-3.1,0.6-6.3,0.8-9.5,0.8c-7.4,0-13.9-1.5-19.4-4.5c-5.5-3-9.8-7.1-12.9-12.5c-3.1-5.4-4.6-11.6-4.6-18.8
		C422.1,160.8,423.6,154.4,426.7,149z"/>
	<path d="M486.7,202c1.4-3.7,3.1-8,5-12.8c2-4.9,4.1-10.2,6.5-15.8c2.3-5.6,4.8-11.3,7.2-17.1s5-11.4,7.4-16.9
		c1.2-2.7,2.7-4.7,4.5-5.9c1.8-1.2,4.3-1.8,7.4-1.8c0.9,0,2,0.2,3.4,0.5c1.3,0.3,2.5,0.7,3.7,1.2c1.2,0.4,2,0.9,2.4,1.3
		c0.7,1.2,1.7,3.3,3.1,6.4c1.4,3,3,6.6,4.9,10.8c1.8,4.2,3.8,8.6,5.8,13.3c2,4.7,4,9.4,5.9,14.1c1.9,4.7,3.7,9,5.2,13
		c1.5,4,2.8,7.2,3.7,9.8h-18.4c-0.8-2.3-1.6-4.7-2.5-7c-0.9-2.4-1.9-5-3.1-7.8h-29.1c-0.9,2-1.7,4.1-2.5,6.4c-0.8,2.3-1.8,5.1-3,8.4
		H486.7z M521.7,156.1c-1.1,2.7-2.1,5.4-3.2,8.3c-1.1,2.9-2.1,5.4-3,7.7h17.4c-0.6-1.7-1.3-3.6-2.2-5.7c-0.8-2.1-1.7-4.3-2.5-6.5
		c-0.8-2.2-1.6-4.2-2.3-6c-0.7-1.8-1.3-3.2-1.7-4.2C523.6,151.4,522.8,153.5,521.7,156.1z"/>
	<path d="M568.6,142.3c0-4.9,2.3-7.9,6.9-8.8c2-0.4,4.4-0.7,7.3-0.8c2.9-0.2,6.4-0.2,10.5-0.2c10.1,0,17.8,2,23.2,6.1
		c5.4,4.1,8.2,9.9,8.2,17.5c0,8.8-3.6,15.1-10.7,18.9c1.4,2.2,3,4.8,4.7,7.9c1.7,3.1,3.4,6.3,5.1,9.6c1.7,3.3,3.3,6.5,4.7,9.6h-19.1
		c-0.6-1.5-1.4-3.4-2.5-5.7c-1.1-2.2-2.2-4.5-3.4-6.8c-1.2-2.3-2.3-4.5-3.3-6.3c-1-1.9-1.9-3.3-2.5-4.2c-0.7,0.1-1.4,0.1-2.3,0.2
		c-0.9,0-2.1,0-3.6,0c-0.7,0-1.5,0-2.5,0c-1,0-2-0.1-2.8-0.2c-0.9-0.1-1.4-0.1-1.6-0.2V202h-16.3V142.3z M607.7,156.1
		c0-6.3-4.9-9.5-14.7-9.5c-1.5,0-3,0-4.6,0.1c-1.6,0.1-2.8,0.2-3.5,0.3v17.6c0.7,0.1,1.8,0.2,3.3,0.4c1.5,0.1,3.3,0.1,5.5,0.1
		C603.1,165.1,607.7,162.1,607.7,156.1z"/>
	<path d="M746.1,166.8c-3.9,11.2-8.4,22.9-13.3,35.2H715c-0.5-1.3-1.2-3.3-2-6c-0.8-2.7-1.7-5.7-2.7-9.2c-1-3.4-1.9-7-2.8-10.6
		c-0.9-3.7-1.8-7.2-2.6-10.5c-1.3,5.2-2.7,10.3-4.1,15.2c-1.4,5-2.7,9.3-3.8,13c-1.1,3.7-2,6.4-2.7,8h-17.7c-0.7-1.7-1.6-4-2.8-6.9
		c-1.1-2.9-2.3-6.1-3.6-9.6c-1.3-3.5-2.7-7.2-4-10.9c-1.3-3.7-2.6-7.4-3.9-10.9c-1.3-3.5-2.4-6.7-3.3-9.6c-1.2-3.5-2-6.3-2.5-8.4
		c-0.5-2.1-0.7-3.8-0.7-5.1c0-4.8,2.7-7.2,8.1-7.2c1.5,0,2.9,0.2,4.4,0.5c1.5,0.3,2.7,0.8,3.6,1.3c0.7,2.9,1.7,6.4,2.8,10.4
		c1.2,4,2.4,8.2,3.7,12.5c1.3,4.3,2.6,8.5,3.9,12.4c1.3,3.9,2.4,7.2,3.3,10c1.2-3.9,2.4-8.2,3.7-12.9c1.3-4.7,2.5-9.4,3.7-14.1
		c1.2-4.7,2.2-9,3.1-12.9c1.1-4.8,4.2-7.2,9.1-7.2c1.4,0,2.9,0.2,4.5,0.6c1.6,0.4,2.9,0.9,3.8,1.5c0.7,3.3,1.6,7.1,2.6,11.2
		c1,4.1,2,8.3,3.1,12.5c1,4.2,2,8.2,3,11.9c1,3.7,1.8,6.8,2.4,9.1c1.2-3.7,2.5-7.8,3.9-12.4c1.4-4.6,2.8-9.2,4.1-14
		c1.3-4.7,2.4-8.9,3.4-12.7c1.4-5.3,4.7-7.9,9.9-7.9c1.9,0,3.7,0.3,5.5,0.8c1.8,0.6,3.3,1.3,4.4,2.2
		C753.3,145.5,750.1,155.6,746.1,166.8z"/>
	<path d="M750.7,202c1.4-3.7,3.1-8,5.1-12.8c2-4.9,4.1-10.2,6.4-15.8c2.3-5.6,4.8-11.3,7.2-17.1s5-11.4,7.4-16.9
		c1.2-2.7,2.7-4.7,4.5-5.9c1.8-1.2,4.3-1.8,7.3-1.8c0.9,0,2.1,0.2,3.4,0.5c1.3,0.3,2.5,0.7,3.7,1.2c1.2,0.4,1.9,0.9,2.3,1.3
		c0.7,1.2,1.7,3.3,3.1,6.4c1.4,3,3,6.6,4.9,10.8c1.8,4.2,3.8,8.6,5.8,13.3c2,4.7,4,9.4,5.9,14.1c1.9,4.7,3.7,9,5.2,13
		c1.5,4,2.8,7.2,3.7,9.8h-18.4c-0.8-2.3-1.6-4.7-2.5-7c-0.9-2.4-1.9-5-3.1-7.8h-29.1c-0.9,2-1.7,4.1-2.6,6.4
		c-0.8,2.3-1.8,5.1-2.9,8.4H750.7z M785.7,156.1c-1.1,2.7-2.1,5.4-3.2,8.3c-1.1,2.9-2.1,5.4-2.9,7.7h17.4c-0.6-1.7-1.3-3.6-2.2-5.7
		c-0.8-2.1-1.7-4.3-2.5-6.5c-0.8-2.2-1.6-4.2-2.3-6c-0.7-1.8-1.3-3.2-1.7-4.2C787.6,151.4,786.8,153.5,785.7,156.1z"/>
	<path d="M831.7,153.8c0-6.9,2.5-12.4,7.6-16.3c5-3.9,11.9-5.9,20.8-5.9c4.5,0,8.8,0.4,12.9,1.3c4.2,0.9,7.5,2,9.9,3.5
		c3.2,1.9,4.8,4.2,4.8,6.9c0,1.7-0.6,3.5-1.7,5.4c-1.1,1.9-2.4,3.4-3.9,4.4c-1.2-1.3-3-2.4-5.3-3.4c-2.4-1-5-1.9-7.9-2.5
		c-2.9-0.6-5.8-1-8.7-1c-7.7,0-11.5,2.2-11.5,6.6c0,1.5,0.7,2.8,2,3.7c1.3,0.9,3.6,1.6,6.9,2.2l10,1.8c8.5,1.5,14.5,3.9,18,7.3
		c3.6,3.4,5.4,8,5.4,13.7c0,7-2.7,12.5-8,16.4c-5.3,3.9-12.6,5.9-22,5.9c-2.5,0-5.4-0.2-8.5-0.7c-3.1-0.5-6.2-1.1-9.2-1.9
		c-3-0.8-5.8-1.7-8.2-2.7c-2.4-1-4.2-2-5.3-3l6.9-13.2c1.6,1.1,3.8,2.1,6.7,3.1c2.8,1,5.9,1.8,9.1,2.4c3.2,0.6,6.2,0.9,8.8,0.9
		c4.3,0,7.4-0.5,9.3-1.5c1.9-1,2.9-2.6,2.9-4.9c0-1.7-0.7-3.1-2.1-4.1c-1.4-1-3.9-1.8-7.2-2.3l-10-1.8
		C839.1,171.6,831.7,164.8,831.7,153.8z"/>
	<path d="M961.2,202h-16.7v-27.7h-26.6V202h-16.7v-61.5c0-4.7,2.9-7.1,8.7-7.1c1.4,0,2.8,0.1,4.1,0.4c1.3,0.3,2.6,0.7,3.9,1.2v23.5
		h26.6v-18c0-4.7,2.9-7.1,8.7-7.1c1.4,0,2.8,0.1,4.1,0.4c1.3,0.3,2.6,0.7,3.9,1.2V202z"/>
</g>
</svg>
