<svg id="surface1" xmlns="http://www.w3.org/2000/svg" xmlns:xlink="http://www.w3.org/1999/xlink" width="347.469" height="167.762" viewBox="0 0 347.469 167.762">
  <defs>
    <clipPath id="clip-path">
      <path id="Path_8" data-name="Path 8" d="M109,0H347.469V5H109Zm0,0" fill="#fff"/>
    </clipPath>
    <clipPath id="clip-path-2">
      <path id="Path_10" data-name="Path 10" d="M109,101H347.469v4H109Zm0,0" fill="#fff"/>
    </clipPath>
    <clipPath id="clip-path-3">
      <path id="Path_12" data-name="Path 12" d="M0,0H102V167.762H0ZM0,0" fill="#fff"/>
    </clipPath>
  </defs>
  <path id="Path_1" data-name="Path 1" d="M109.75,119.492v1.2c2.234.442,3.371,2.453,5.453,8.371,1.231,3.493,6.461,19.372,7.926,24.3s.891,6.895.891,6.895h11.148a24.5,24.5,0,0,1,1.906-8.485c1.977-5.047,3.754-9.211,6.539-15.531,3.34-7.586,3.25-13.144,1.2-16.586a11.976,11.976,0,0,0-1.778-2.316c-.129-.16-.258-.16-.386-.031a28.694,28.694,0,0,1-3.883,2.16,53.98,53.98,0,0,1-5.828,2.414c-.129.031-.161.093-.161.218a1.652,1.652,0,0,0,.161.543,2.941,2.941,0,0,0,.226.508c.067.067.164.1.36,0s1.875-.859,4.593,2.86c1.285,1.761,1.4,5.718.742,9.086a37.679,37.679,0,0,1-2.167,7.527c-.907,2.609-2.653,6.766-3.075,7.816s-.84,2.258-1.035,2.668-.871.668-1.2-.633-4.262-15.507-5.047-18.425c-1.035-3.844-1.621-6.164-2.039-8.008s-.359-3.508.1-4.223a3.362,3.362,0,0,1,1.777-1.242l-.422-1.109-16,.019" fill="#fff"/>
  <path id="Path_2" data-name="Path 2" d="M163.4,124.559c-.782.976-4.567,5.3-4.567,15.847,0,8.157,2.145,13.121,5.695,15.375,1.008.641,1.188.582,2.079-.172s4.746-4.836,4.746-14.679-3.442-14.211-5.637-16.371C164.613,123.484,164.285,123.453,163.4,124.559Zm7.238-6.02a54.275,54.275,0,0,1,5.2,6.695,26.449,26.449,0,0,1,4.352,14.942c0,8.926-2.844,13.281-6.539,16.625s-10.172,4.969-10.684,5.023a2.393,2.393,0,0,1-.91,0,13.234,13.234,0,0,1-5.8-3.574c-1.934-1.836-5.91-6.637-5.91-15.059a31.9,31.9,0,0,1,5.879-17.875c2.719-3.558,3.738-4.214,4.828-4.621s2.965-.847,5.125-1.4c2.238-.566,2.734-.758,3.152-.895a1.242,1.242,0,0,1,1.309.141" fill="#fff"/>
  <path id="Path_3" data-name="Path 3" d="M197.41,153.867c0,1.86.945,2.172,1.895,2.172s8.843-1.012,8.843-15.43c0-11.207-5.878-16.207-10.343-16.207-.317,0-.473.078-.473.313C197.332,124.715,197.41,152.008,197.41,153.867ZM186.5,119.844c0-.235.121-.293.359-.293s8.969-.031,12.528-.031a15.9,15.9,0,0,1,11.246,4.691,24.493,24.493,0,0,1,6.586,17.242c0,7.746-5.637,15.027-8.606,16.836a11.77,11.77,0,0,1-8.007,2.152c-3.559-.113-5.754-.113-8.247-.113s-3.917,0-4.335.059c-.211.027-.352-.207-.012-.43s.726-1.5.726-4.348V122.75c0-1.477-.793-2.34-1.863-2.34-.226,0-.379-.09-.379-.23,0-.168,0-.336,0-.336" fill="#fff"/>
  <path id="Path_4" data-name="Path 4" d="M221.91,123.336c.059-.164.153-.652.176-.758s.1-.172.3-.23,1.136-.4,3.672-1.5,3.718-1.774,3.847-1.836a.666.666,0,0,1,.539-.024c1.317.477,2.368,1.789,2.368,5.551V139.4c0,.4.253.675.812.23A41.824,41.824,0,0,0,240,133.016c2.32-3.168,2.891-5.672,2.891-6.918a3.376,3.376,0,0,0-1.743-2.7c-.265-.066-.261-.265-.257-.507s-.032-.422.324-.614c.707-.379,2.105-1.1,3.824-2.089,1.676-.965,2.859-1.75,3.184-1.942a.8.8,0,0,1,.988,0,6.921,6.921,0,0,1,2.859,5.488c0,2.551-1.554,4.786-3.7,7-1.566,1.625-6.383,6.227-6.535,6.371s-.125.235.086.278A13,13,0,0,1,246.4,140.8a31.726,31.726,0,0,1,4.511,8.269c1.617,3.84,2.86,7.7,3.227,8.84s.816,1.664,1.008,1.688.214.23.214.441-.019.4-.214.4-3.246-.148-5.524-.148-4.449.023-4.578.043-.258-.125-.324-.231-.578-.89-1.438-4.711-1.55-6.75-2.968-9.429a9.509,9.509,0,0,0-3.332-4.031.653.653,0,0,0-.9.062c-.386.3-2.664,2.176-2.859,2.387a1.019,1.019,0,0,0-.344.781v10.781a3.279,3.279,0,0,0,2.063,3.375c.277.082.281.125.324.254.062.211.168.527.215.676s.019.25-.262.25-3.285-.1-6.9-.1-6.214.125-6.472.149-.43.058-.367-.172.195-.734.218-.887.063-.211.235-.211,2.343-.656,2.343-3.734v-28.6c0-2.824-1.574-3.64-2.148-3.394-.152.058-.277-.035-.215-.219" fill="#fff"/>
  <path id="Path_5" data-name="Path 5" d="M270.418,132.789c-1.309,3.856-2.223,6.9-2.34,7.363s-.043.586.238.547c.145-.019,2.133-.086,4.168-.078,1.938.012,3.914.1,4.207.117.594.039.512-.2.477-.39s-.875-3.078-1.59-6.235-.832-3.855-1.465-7.011c-.261-1.286-1.3-1.18-1.672-.157C272.441,126.945,271.727,128.934,270.418,132.789Zm-4.551-13.238c.379.008,13.567,0,14.094,0s.605.222.68.59a25.066,25.066,0,0,0,.527,3.109c.379,1.406,1.656,6.512,3.844,13.094a150.086,150.086,0,0,1,4.371,16.875c.6,2.824.992,4.191,1.2,4.961a2.212,2.212,0,0,0,.91,1.269c.145.074.184.125.184.27a3.931,3.931,0,0,1-.012.406c-.012.078.012.141-.184.141s-11.546-.008-11.781,0-.4-.1-.23-.586a7.993,7.993,0,0,0,.687-3.293,25.355,25.355,0,0,0-.652-5.852,37.276,37.276,0,0,0-1-4.523c-.27-.789-.531-1.289-1.5-1.289l-9.789,0c-.172,0-.266.05-.316.191a28.709,28.709,0,0,0-1.387,5.234c-.8,3.93-.727,7.719-.438,8.028a.456.456,0,0,1-.144.789c-.317.117-1.672.523-3.25,1.047s-3.012.976-3.4,1.144c-.726.313-1.019.063-1.019-.742,0-1.98.652-5.543,2.137-10.555,1.089-3.691,3.734-10.48,5.261-14.078s3.594-8.508,3.887-9.676-.145-1.476-.949-1.57a8.764,8.764,0,0,0-2.938.07c-.41.09-.547-.039-.433-.425.1-.336.41-1.313.632-2.34s.387-1.758.434-2.047.164-.258.578-.246" fill="#fff"/>
  <path id="Path_6" data-name="Path 6" d="M106.387,63.676l.015.055s-.015-.055-.015-.055" fill="#fff"/>
  <g id="Group_2" data-name="Group 2" clip-path="url(#clip-path)">
    <path id="Path_7" data-name="Path 7" d="M347.469,4.469V.961H109.457V4.469H347.469" fill="#fff"/>
  </g>
  <g id="Group_3" data-name="Group 3" clip-path="url(#clip-path-2)">
    <path id="Path_9" data-name="Path 9" d="M347.469,104.617v-3.508H109.457v3.508H347.469" fill="#fff"/>
  </g>
  <g id="Group_4" data-name="Group 4" clip-path="url(#clip-path-3)">
    <path id="Path_11" data-name="Path 11" d="M3.34,15.988a2.851,2.851,0,0,1,2.809-1.609H9.227a5.886,5.886,0,0,1,.59.027.223.223,0,0,1-.031-.027H39.594A3.044,3.044,0,0,1,42.762,17.7V66.914a21.541,21.541,0,0,0,3.086-2.145,62.266,62.266,0,0,0,7.293-6.977C58.289,52.109,60.9,46.84,60.9,42.137a12,12,0,0,0-.145-1.883c-.891-5.75-6.355-9.863-6.977-10.312-1.078-.781-2.137-1.684-2.137-3.375.02-1.723,1.254-2.668,2.461-3.363,18.16-10.34,20.07-11.43,20.293-11.551a5.538,5.538,0,0,1,5.207-.07c.125.063,12.184,6.707,12.184,19.738,0,0,0,.234,0,.215l.016.559c0,2.754-1.094,12.625-15.187,24.133,0,0,.039-.082.051-.117-.3.328-.961.9-2.473,2.207,0,0-3.2,2.754-4.16,3.586,5.957,4.414,18.949,17.125,18.949,44.11,0,0-.02,1.816-.02,1.836-.043,1.062-.441,10.617-.441,18.257,0,3.079.063,5.469.191,7.118a16.166,16.166,0,0,0,4.809,10.523,13.753,13.753,0,0,0,3.707,2.723s.73.347.7.328a3.779,3.779,0,0,1,2.637,3.762,3.7,3.7,0,0,1-2.914,3.246l-11.066,2.64a3.961,3.961,0,0,1-4.621-2.218L45.48,81.082a.887.887,0,0,0-.133-.211.717.717,0,0,0-.176.09l-1.594,1.012a1.1,1.1,0,0,0-.508,1.035V139.75a3.434,3.434,0,0,1-3.809,3.8H15.641a3.434,3.434,0,0,1-3.809-3.8l0-100.391.008-2.469A25.977,25.977,0,0,0,5.75,21.02L3.965,19.043A2.837,2.837,0,0,1,3.34,15.988ZM0,4.746V167.762H101.793V89.574c-5.191-3.656-10.77-10.766-10.77-24.437,0-10.59,3.977-20.207,10.77-26.418V0H0V4.746" fill="#fff"/>
  </g>
  <path id="Path_13" data-name="Path 13" d="M76.078,14.613,55.789,26.164a.979.979,0,0,0-.57.777.885.885,0,0,0,.488.711c.293.172,7.211,4.293,8.418,12.082a15.292,15.292,0,0,1,.184,2.4c0,5.574-2.906,11.613-8.645,17.945-9.91,10.926-14.91,11.395-14.961,11.4a1.169,1.169,0,0,1-.941-.273,1.223,1.223,0,0,1-.41-.93V18.82a1.037,1.037,0,0,0-1.035-1.035H8.762a.579.579,0,0,0-.43,1.012,29.651,29.651,0,0,1,6.922,18.094l-.012,2.481v99.742a1.034,1.034,0,0,0,1.035,1.032H38.621a1.035,1.035,0,0,0,1.039-1.032V81.723a2.22,2.22,0,0,1,1.059-1.973l4.848-3.074a1.2,1.2,0,0,1,1-.156,1.175,1.175,0,0,1,.754.617c.008,0,.008,0,37.484,75.144a1.416,1.416,0,0,0,1.5.719c.008,0,.008,0,9.563-2.27a.554.554,0,0,0,.418-.484.63.63,0,0,0-.4-.641,16.493,16.493,0,0,1-4.754-3.425,19.544,19.544,0,0,1-5.82-12.7c-.531-6.984.164-23.879.242-25.785.727-34.043-19.812-44.574-20.02-44.679a.887.887,0,0,1-.2-1.57c9.07-7.816,9.074-7.824,9.074-7.828,14.707-12.008,14-21.562,13.969-21.965C88.59,20.4,78.1,14.641,77.992,14.582a2.222,2.222,0,0,0-1.914.031" fill="#fff"/>
  <path id="Path_14" data-name="Path 14" d="M232.254,85.191c1.527,0,4.6-2.566,6.125-6.391,1.906-4.773,2.348-12.711,2.348-27.246s-1.582-22.3-3.387-26.723-4.11-5.473-5.086-5.473-3.277,1.059-5.082,5.473-3.133,12.188-3.133,26.723,1.484,23.121,3.391,27.9S231.8,85.191,232.254,85.191ZM217.27,82.824C212.5,77.512,208.4,68.531,208.4,53.379c0-19.113,5.692-27.629,11.079-32.891,4.39-4.289,10.125-7.129,12.777-7.129s9.168,2.1,13.555,6.387c5.386,5.266,10.3,14.519,10.3,33.633,0,15.152-4.9,24.133-9.667,29.445C241.809,87.973,233.172,90.4,231.3,90.4c-.957,0-7.883-.742-14.027-7.578" fill="#fff"/>
  <path id="Path_15" data-name="Path 15" d="M109.371,61.465c2.149-1.613,3.531-5.02,1.176-9.176-1.246-2.2-3.231-6.168-3.524-6.754a6.66,6.66,0,0,1-.8-2.129c-.1-.937-.676-1.223-1.031-.512a32.332,32.332,0,0,0-2.79,12.477,22.891,22.891,0,0,0,1.395,9.1c.148.516.437.664.809.367C104.6,64.84,107.316,63.008,109.371,61.465Zm11.16-15.047a9.144,9.144,0,0,1-1.91,11.891c-2.055,1.836-12.332,9.469-12.848,9.836s-.585.734-.363,1.395c1.86,5.578,5.774,9.469,10.57,9.469a10.723,10.723,0,0,0,7.192-2.934c.223-.445.367-.3.512,0a7.615,7.615,0,0,1,.445,1.539c.07.438-.149.66-.52.883S108.859,89.285,108.488,89.5a1.078,1.078,0,0,1-1.1.074c-6.754-2.789-13.657-9.781-13.657-24.441,0-10.148,3.941-20.41,12.262-26.355,2.055-1.465,6.531-4.258,6.9-4.547s.589-.074.734.219c0,0,5.359,9.395,6.9,11.965" fill="#fff"/>
  <path id="Path_16" data-name="Path 16" d="M165.449,61.465c2.149-1.613,3.531-5.02,1.176-9.176-1.25-2.2-3.23-6.168-3.523-6.754a6.662,6.662,0,0,1-.805-2.129c-.1-.937-.676-1.223-1.027-.512a32.235,32.235,0,0,0-2.793,12.477,22.88,22.88,0,0,0,1.394,9.1c.145.516.442.664.8.367C160.676,64.84,163.4,63.008,165.449,61.465Zm11.16-15.047a9.148,9.148,0,0,1-1.91,11.891c-2.054,1.836-12.332,9.469-12.844,9.836s-.585.734-.371,1.395c1.86,5.578,5.778,9.469,10.575,9.469a10.722,10.722,0,0,0,7.191-2.934c.219-.445.367-.3.516,0a7.382,7.382,0,0,1,.437,1.539c.074.438-.144.66-.512.883S164.934,89.285,164.57,89.5a1.085,1.085,0,0,1-1.1.074c-6.754-2.789-13.653-9.781-13.653-24.441,0-10.148,3.938-20.41,12.258-26.355,2.055-1.465,6.531-4.258,6.9-4.547s.59-.074.734.219c0,0,5.359,9.395,6.9,11.965" fill="#fff"/>
  <path id="Path_17" data-name="Path 17" d="M316.777,61.145c2.149-1.609,3.528-5.02,1.176-9.172-1.25-2.2-3.23-6.168-3.523-6.754a6.8,6.8,0,0,1-.809-2.129c-.094-.941-.672-1.223-1.027-.516a32.338,32.338,0,0,0-2.789,12.48,22.836,22.836,0,0,0,1.394,9.1c.145.512.442.66.809.367C312.008,64.523,314.723,62.688,316.777,61.145ZM327.934,46.1a9.145,9.145,0,0,1-1.907,11.891c-2.054,1.836-12.332,9.469-12.847,9.84s-.586.73-.367,1.391c1.863,5.578,5.777,9.469,10.57,9.469a10.745,10.745,0,0,0,7.2-2.934c.219-.441.367-.293.516,0a8.193,8.193,0,0,1,.437,1.539c.074.441-.144.664-.515.883s-14.75,10.789-15.121,11.008a1.076,1.076,0,0,1-1.1.074c-6.754-2.789-13.648-9.777-13.648-24.441,0-10.148,3.937-20.41,12.253-26.352,2.059-1.469,6.536-4.258,6.9-4.551s.586-.074.734.219c0,0,5.356,9.4,6.9,11.965" fill="#fff"/>
  <path id="Path_18" data-name="Path 18" d="M139.965,22.656c.015.781.215,12.625.215,13.172s.152.7.7.7,6.019-.043,6.562-.043.6.148.547.465c-.082.469-1.5,5.211-1.656,5.6s-.312.465-.773.543-4.329.02-4.719.02a.652.652,0,0,0-.735.738c0,.582,0,23.914,0,26.629s.734,4.344,1.824,5.434a6.706,6.706,0,0,0,3.621,2.063c.332.055.363.308.012.625-.391.355-7.9,8.57-8.215,8.957a1.249,1.249,0,0,1-1.477.309c-.656-.27-4.422-2.133-5.586-5.508-1.3-3.785-1.011-6.941-1.011-10.281s-.231-27.289-.231-27.836c0-.414-.191-.574-.473-.574-.39,0-.515-.371-.98-.762a4.312,4.312,0,0,0-2.816-.965c-.344.012-.434-.191-.4-.41a7.569,7.569,0,0,0,.09-.926.627.627,0,0,1,.176-.426A78.461,78.461,0,0,0,130.984,33c3.063-3.941,7.2-10.172,7.344-10.453a1.042,1.042,0,0,1,.914-.6c.457,0,.7-.027.723.707" fill="#fff"/>
  <path id="Path_19" data-name="Path 19" d="M282.434,52.992c0,7.379.156,17.688.156,19.719,0,3.336-.293,6.5,1.008,10.277a10.685,10.685,0,0,0,5.164,5.578,1.235,1.235,0,0,0,1.472-.3c.313-.391,7.661-7.73,8.051-8.086.352-.32.32-.57-.012-.629a4.891,4.891,0,0,1-3.367-1.891c-1.2-1.629-1.32-3.738-1.32-6.453,0-2.484-.168-22.938-.168-26.738a9.582,9.582,0,0,0-2.906-6.969,15.556,15.556,0,0,0-5.34-3.074,1.565,1.565,0,0,0-1.8.379c-.855.66-8.344,7.863-8.625,8.145s-.473.1-.473-.473a8.883,8.883,0,0,0-1.9-5.117,13.945,13.945,0,0,0-4.074-2.934c-.532-.328-.782-.312-1.086-.027-.742.676-2.278,2.055-4.059,3.684-1.73,1.586-3.75,3.231-4.363,3.66-.895.625-.254,1.516.027,1.137s.309-.555.957-.309c.59.227,3.6,1.52,3.6,6.543V87.367a.5.5,0,0,0,.566.57H273.9a.642.642,0,0,0,.661-.664c0-.477-.153-33.434-.153-37.793,0-3.523,1.25-5.285,3.137-5.285,1.7,0,4.891,2.258,4.891,8.8" fill="#fff"/>
  <path id="Path_20" data-name="Path 20" d="M193.887,23.465V70.473c0,2.719.734,4.344,1.824,5.434a4.5,4.5,0,0,0,3.734,1.535.467.467,0,0,1,.274.816c-.395.355-9.235,8.906-9.547,9.293a1.249,1.249,0,0,1-1.477.309,10.265,10.265,0,0,1-4.789-5.508c-1.2-3.5-1.008-6.625-1.008-10.281,0-2.895-.07-34.8-.07-40.117,0-4.91-1.637-7.395-4.289-9.422-.66-.508-.621-.855.039-1.246s3.5-2.062,5.84-3.543a25.46,25.46,0,0,0,4.281-3c.235-.391.586-.469,1.172-.234a7.642,7.642,0,0,1,3,3.309,11.625,11.625,0,0,1,1.02,5.645" fill="#fff"/>
  <path id="Path_21" data-name="Path 21" d="M338.047,38.059A5.032,5.032,0,1,1,343.02,33,5.067,5.067,0,0,1,338.047,38.059Zm0,.984a6.016,6.016,0,1,0-6.1-6.039A6.059,6.059,0,0,0,338.047,39.043ZM335.7,36.016h1.629V33.473h.762l1.391,2.648,1.711-.238-1.68-2.742a1.986,1.986,0,0,0,1.18-1.859c0-1.082-.891-1.7-2.344-1.7H335.7Zm1.629-5.465H338c.527,0,1.023.234,1.023.918a1.021,1.021,0,0,1-1.113,1.043h-.586V30.551" fill="#fff"/>
</svg>
