<svg xmlns="http://www.w3.org/2000/svg" width="601" height="74.089" viewBox="0 0 601 74.089">
  <path id="Path_1" data-name="Path 1" d="M38.4,5.01c0,5.055-2.155,9.2-7.624,9.2-4.475,0-3.729-1.906-3.729-3.646V-1.869c0-1.657-.083-2.652,3.149-2.652C35.75-4.521,38.4-.211,38.4,5.01ZM7.987,31.861c0,6.8-6.05,3.978-6.05,8.536,0,5.387,12.265,5.47,15.746,5.47,3.729,0,15.663-.249,15.663-5.635,0-4.807-6.05-.5-6.3-10.856V24.568c0-.912.331-1.326,1.326-1.326,2.238,0,4.724.414,7.21.414,11.519,0,21.962-6.63,21.962-18.978C57.546-7.753,46.689-14.3,35.418-14.3c-3.481,0-10.774,1.16-22.79,1.16-2.072,0-4.061-.166-6.133-.166C3.926-13.306.28-12.56.28-9.245c0,5.221,7.707,2.486,7.707,8.7ZM82.905,46.115c12.182,0,26.768-8.287,26.768-21.879a22.053,22.053,0,0,0-22.79-21.63c-13.674,0-26.685,8.37-26.685,23.2C60.2,38.9,70.64,46.115,82.905,46.115Zm7.707-15.58c0,2.652-.663,5.3-3.812,5.138-5.718-.331-7.21-13.094-7.542-18.315a4.355,4.355,0,0,1,4.061-4.972C88.955,12.385,90.612,26.805,90.612,30.535ZM136.11,6c0-2.072-.249-3.149-2.569-3.149-.663,0-21.547.249-21.547,5.553,0,5.47,5.718-.083,5.718,12.6,0,12.431-1.326,24.862,14.42,24.862a15.12,15.12,0,0,0,8.287-2.486c1.989-1.243,3.315-2.486,4.227-2.486,3.315,0-.912,4.972,5.47,4.972,4.558,0,19.227-1.575,19.227-7.21,0-3.978-4.558-1.657-4.558-6.63V15.369c0-2.652.166-5.221.166-7.873,0-2.9-1.243-4.641-4.227-4.641-3.149,0-19.807.829-19.807,5.718,0,3.481,4.061,2.072,4.724,6.216a64.173,64.173,0,0,1,.332,8.95c0,3.978.829,11.768-5.138,11.768-4.475,0-4.724-5.138-4.724-8.453Zm58.757,18.729c0-3.729-.5-9.448,4.807-9.448,7.79,0,5.47,13.26,5.055,19.144-.414,5.387-3.149,3.978-3.149,6.961,0,4.641,7.956,4.475,10.939,4.475,15.58,0,15.249-3.481,15.249-4.972,0-3.564-3.4-2.072-3.812-8.619-.829-12.6,2.072-29.42-15.083-29.42a11.528,11.528,0,0,0-8.867,3.4c-1.657,1.74-2.4,3.481-3.729,3.481-1.243,0-1.657-1.16-1.657-2.155,0-.5.083-.994.083-1.492a3.079,3.079,0,0,0-2.983-3.232C190.061,2.855,171,7,171,11.391s5.055,2.4,4.89,8.536l-.331,12.431c-.249,8.122-4.061,4.558-4.061,8.536,0,4.972,8.453,4.972,11.768,4.972,3.4,0,14.42.166,14.42-4.972,0-3.149-2.818-1.74-2.818-9.779Zm66.8-2.818c0,3.646.331,13.84-5.221,13.84-5.138,0-6.133-6.8-6.133-10.691s.994-13.426,6.547-13.426C261.664,11.639,261.664,18.684,261.664,21.916Zm18.315-30.58c0-2.735-.58-4.475-3.066-4.475-.249,0-21.381,1.575-21.381,7.707,0,4.475,6.05,1.74,6.05,6.879,0,.912-.083,3.646-1.326,3.646a26.155,26.155,0,0,0-9.862-2.486,21.671,21.671,0,0,0-20.387,21.8c0,10.193,8.453,21.713,19.31,21.713a14.988,14.988,0,0,0,8.122-2.4c1.906-1.243,3.149-2.4,3.9-2.4,2.735,0-.249,4.558,3.978,4.558.912,0,19.061-.414,19.061-6.713,0-4.309-4.392-2.4-4.392-8.2ZM309.9-9.576c.083-1.823.166-3.564-2.072-3.564-6.879,0-22.956,3.729-22.956,9.282,0,4.724,6.216,2.569,6.216,7.376V25.562a54.283,54.283,0,0,1-1.657,14.752c0,1.326,1.326,1.657,2.486,1.657,2.735,0,4.061-1.243,5.387-1.243a32.085,32.085,0,0,0,16.658,5.387,24.547,24.547,0,0,0,24.862-25.194c0-10.939-7.459-18.315-16.243-18.315a16.4,16.4,0,0,0-8.7,2.569c-2.155,1.243-3.481,2.569-3.9,2.569-.663,0-.58-.912-.58-1.326Zm10.276,37.708c0,4.227-.912,10.442-6.381,10.442-3.315,0-4.227-1.326-4.227-17.4,0-2.818.414-5.8,4.061-5.8,5.47,0,6.547,8.867,6.547,12.763Zm43.26-.994c2.32,0,2.238,2.072,2.238,3.9,0,2.486-.249,5.884-3.4,5.884-2.4,0-3.564-2.32-3.564-4.475a5.072,5.072,0,0,1,4.724-5.3Zm20.138-10.276c0-12.431-12.928-14.254-17.652-14.254-7.873,0-21.879,4.558-21.879,11.6a4.463,4.463,0,0,0,4.641,4.558c7.376,0,7.873-8.95,12.845-8.95,3.812,0,3.9,5.718,3.9,8.453,0,2.983-1.16,2.818-3.729,2.818-14.586,0-20.221,7.293-20.221,13.177,0,8.2,6.879,11.851,13.757,11.851a15.145,15.145,0,0,0,8.122-2.155c1.823-.994,2.9-2.072,3.9-2.072,2.072,0,2.238,4.227,8.785,4.227,6.05,0,12.514-5.138,12.514-9.862,0-4.475-4.972,3.481-4.972-11.105ZM427.908,42.22c1.989,2.569,2.4,2.735,5.718,2.735h11.685c6.381,0,8.287-2.238,8.287-4.807,0-3.481-4.558-3.4-8.287-8.039-1.575-1.906-11.271-13.84-11.271-15.912,0-.994,3.232-2.652,4.061-3.066,4.972-3.066,8.039-1.326,8.039-5.055,0-5.138-9.033-5.221-12.431-5.221-2.9,0-11.354.249-11.354,4.558,0,1.657,1.657,2.32,1.657,3.481,0,1.243-5.3,4.061-6.63,4.061-1.989,0-1.989-2.072-1.823-7.376l.414-17.569c.083-1.823-.083-3.149-2.32-3.149-4.392,0-23.122,4.061-23.122,9.613,0,4.724,6.381.249,6.381,6.961V15.286c0,3.646-.414,11.519-.663,17.321-.249,6.961-4.641,4.061-4.641,8.039,0,5.47,7.707,5.221,14.5,5.221,12.928,0,13.508-3.4,13.508-5.718,0-3.9-3.646-1.409-3.4-8.785,0-.5-.083-2.32.829-2.32.829,0,2.818,2.818,3.149,3.315Zm65.553-16.326c2.652,0,5.138-.746,5.138-6.216A19.107,19.107,0,0,0,478.3,2.606a22.579,22.579,0,0,0-23.288,22.044,21.282,21.282,0,0,0,22.625,21.464c7.459,0,19.144-4.641,19.144-11.022,0-1.575-1.492-4.144-3.232-4.144s-4.807,3.729-11.022,3.729c-3.9,0-9.282-3.481-9.282-7.624,0-1.409,1.326-1.16,2.238-1.16ZM477.8,17.938c-2.155,0-4.972.663-4.972-2.32a5.5,5.5,0,0,1,4.972-5.47,4.856,4.856,0,0,1,4.89,5.3C482.688,18.435,480.036,17.938,477.8,17.938Zm28.426,6.879a41,41,0,0,1-.912,9.116c-.912,2.9-4.724,2.9-4.724,6.381,0,5.718,11.271,5.553,15.083,5.553,9.116,0,16.409-.414,16.409-5.635,0-4.972-6.3-2.735-6.8-6.381a76.063,76.063,0,0,1-.663-9.116c0-1.492-.414-7.044,1.906-7.044,2.155,0,3.646,4.724,9.033,4.724a10.135,10.135,0,0,0,10.193-9.945,9.033,9.033,0,0,0-9.2-9.613c-7.127,0-8.37,6.547-10.359,6.547-1.409,0-1.326-1.906-1.409-2.9-.332-2.818-.414-3.646-3.564-3.646-.746,0-20.138,1.823-20.138,8.37,0,5.055,5.138.5,5.138,8.619Zm82.874-.331a51.556,51.556,0,0,1,4.309-9.779c2.9-4.89,7.873-2.735,7.873-7.624,0-3.812-6.133-4.227-8.867-4.227-2.983,0-10.774.5-10.774,4.89,0,2.818,2.652,2.569,2.652,6.3,0,1.989-1.74,7.707-4.227,7.707-1.409,0-5.055-5.8-5.055-8.95,0-1.989,1.906-2.652,1.906-4.89,0-4.724-7.459-5.055-10.608-5.055-17.486,0-18.978,3.646-18.978,6.133,0,3.812,4.724,2.818,6.3,6.133L565.23,39.4a21.063,21.063,0,0,1,2.652,7.542c0,1.906-.994,4.061-3.232,4.061-3.4,0-1.243-8.785-8.95-8.785a7.459,7.459,0,0,0-7.376,7.624c0,6.879,7.044,9.945,13.011,9.945,13.508,0,18.812-10.774,22.873-21.8Z" transform="translate(-0.28 14.3)" fill="#fff"/>
</svg>
