<?xml version="1.0" encoding="utf-8"?>
<!-- Generator: Adobe Illustrator 24.2.1, SVG Export Plug-In . SVG Version: 6.00 Build 0)  -->
<svg version="1.1" id="Layer_1" xmlns="http://www.w3.org/2000/svg" xmlns:xlink="http://www.w3.org/1999/xlink" x="0px" y="0px"
	 viewBox="0 0 594.6 129.7" style="enable-background:new 0 0 594.6 129.7;" xml:space="preserve">
<style type="text/css">
	.st0{fill:#ffffff;}
	.st1{fill-rule:evenodd;clip-rule:evenodd;fill:#000000;}
</style>
<rect class="st0" width="594.6" height="129.7"/>
<path class="st1" d="M56.9,86c-6.3,0-11.1-1.4-15.1-5.6l5.2-5.2c2.6,2.6,6.1,3.6,10,3.6c4.7,0,7.3-1.9,7.3-5.2
	c0-1.4-0.5-2.6-1.3-3.4c-0.8-0.8-1.8-1.2-3.7-1.5l-5-0.7c-3.7-0.5-6.3-1.5-8-3.4c-2-1.9-3.1-4.6-3.1-8.2c0-7.3,5.6-12.5,14.5-12.5
	c5.7,0,9.8,1.4,13.4,4.8l-5.1,5.1c-2.7-2.5-5.8-2.8-8.5-2.8c-4.4,0-6.5,2.4-6.5,5.2c0,1.1,0.4,2.1,1.3,3c0.8,0.7,2.1,1.4,3.8,1.7
	l5,0.7c3.8,0.5,6.1,1.5,7.9,3.2c2.1,2.1,3.2,5.1,3.2,8.8C72.2,81.4,65.5,86,56.9,86"/>
<path class="st1" d="M94.7,72.8h-6c-2.7,0-4.3,1.3-4.3,3.4c0,2.1,1.4,3.6,4.4,3.6c2,0,3.4-0.2,4.7-1.4c0.8-0.8,1.2-2,1.2-3.9V72.8
	 M94.8,85.7v-2.6c-2,2-4,2.8-7.4,2.8s-5.9-0.8-7.8-2.6c-1.5-1.8-2.5-4.1-2.5-6.9c0-4.9,3.3-8.9,10.4-8.9h7.2v-1.4
	c0-3.3-1.7-4.8-5.7-4.8c-3,0-4.3,0.7-5.9,2.5l-4.7-4.6c3-3.3,5.8-4.3,10.9-4.3c8.5,0,13,3.7,13,10.8v20H94.8z"/>
<path class="st1" d="M117.7,85.7c-6.3,0-8.9-4.4-8.9-8.8V44.2h7.6v32.3c0,1.9,0.8,2.8,2.7,2.8h3v6.4H117.7"/>
<path class="st1" d="M136.6,61.9v23.8h-7.6V61.9h-3.2v-5.8h3.2v-3.8c0-4.3,2.6-8.6,8.9-8.6h4.3v6.4h-3c-1.8,0-2.6,1.1-2.6,2.7v3.3
	h5.5v5.8H136.6"/>
<path class="st1" d="M163.1,63.1c-0.8-0.8-2-1.3-3.5-1.3c-1.5,0-2.6,0.5-3.5,1.3c-1.5,1.5-1.7,4.3-1.7,7.3c0,3.2,0.1,5.8,1.7,7.5
	c0.9,0.8,2,1.3,3.5,1.3c1.5,0,2.7-0.5,3.5-1.3c1.5-1.7,1.8-4.3,1.8-7.5C164.9,67.3,164.6,64.6,163.1,63.1 M169,82.2
	c-1.9,2-5,3.8-9.5,3.8c-4.5,0-7.6-1.8-9.3-3.8c-2.8-2.8-3.4-6.3-3.4-11.8c0-5.4,0.6-8.9,3.4-11.7c1.8-2,4.8-3.8,9.3-3.8
	c4.5,0,7.6,1.8,9.5,3.8c2.7,2.8,3.4,6.3,3.4,11.7C172.4,76,171.7,79.4,169,82.2"/>
<path class="st1" d="M196.1,63.6c-1.1-1.2-2.1-1.8-4-1.8c-2.2,0-4.8,1.7-4.8,5.6v18.3h-7.6V55.3h7.4v3c1.4-1.8,4.3-3.3,7.6-3.3
	c3,0,5.1,0.7,7.2,2.8L196.1,63.6"/>
<path class="st1" d="M217.6,61.8c-4.6,0-5.2,3.7-5.2,8.6c0,5,0.6,8.8,5.2,8.8c4.5,0,5.2-3.8,5.2-8.8
	C222.8,65.4,222.1,61.8,217.6,61.8 M222.9,85.7v-2.8c-2.1,2.2-4.3,3.2-7.6,3.2c-3,0-5.7-1.1-7.4-2.7c-3-3.1-3.1-8.3-3.1-12.9
	c0-4.5,0.1-9.7,3.1-12.8c1.8-1.7,4.5-2.7,7.4-2.7c3.1,0,5.4,0.8,7.4,3.1V44.2h7.6v41.5H222.9z"/>
<path class="st1" d="M266.7,86c-4.5,0-8.3-1.7-11.2-4.6c-4.1-4.1-4-9.3-4-16.6c0-7.1-0.1-12.3,4-16.6c3-2.8,6.7-4.5,11.2-4.5
	c5.3,0,8.6,1.9,11.6,4.7l-5.4,5.4c-1.8-1.9-3.2-3-6.1-3c-2.2,0-3.9,0.8-5.1,2.1c-1.7,1.8-2.1,3.8-2.1,11.7c0,8,0.5,10.1,2.1,11.7
	c1.2,1.4,2.8,2.2,5.1,2.2c3,0,4.4-1.2,6.1-3l5.4,5.3C275.4,84.1,272,86,266.7,86"/>
<path class="st1" d="M285,55.3h7.6v30.4H285V55.3z M288.8,51.5c-2.6,0-4.8-2.1-4.8-4.7c0-2.7,2.3-4.7,4.8-4.7c2.6,0,4.7,2,4.7,4.7
	C293.6,49.4,291.4,51.5,288.8,51.5"/>
<path class="st1" d="M310.6,85.7c-6.3,0-8.9-4.4-8.9-8.8v-15h-3.2v-5.8h3.2v-8.9h7.6v8.9h5.4v5.8h-5.4v14.5c0,1.8,0.8,2.8,2.6,2.8
	h2.8v6.4H310.6"/>
<path class="st1" d="M332.8,90.5c-0.6,1.7-1.3,3-2.2,3.9c-1.8,1.8-4,2.4-6.5,2.4h-3v-6.9h1.8c2.1,0,2.9-0.5,3.8-2.7l1.2-3.7
	l-10.3-28.3h7.9l6.4,18.8l6-18.8h7.9L332.8,90.5"/>
<path class="st1" d="M378.3,86c-4.6,0-8.3-1.7-11.2-4.6c-4.1-4.1-4-9.3-4-16.6c0-7.1-0.1-12.3,4-16.6c3-2.8,6.6-4.5,11.2-4.5
	c5.3,0,8.5,1.9,11.5,4.7l-5.3,5.4c-1.8-1.9-3.3-3-6.1-3c-2.2,0-4,0.8-5.2,2.1c-1.5,1.8-2,3.8-2,11.7c0,8,0.5,10.1,2,11.7
	c1.2,1.4,3,2.2,5.2,2.2c2.8,0,4.4-1.2,6.1-3l5.3,5.3C386.8,84.1,383.6,86,378.3,86"/>
<path class="st1" d="M410.4,63.1c-0.8-0.8-2-1.3-3.5-1.3c-1.5,0-2.6,0.5-3.4,1.3c-1.7,1.5-1.8,4.3-1.8,7.3c0,3.2,0.1,5.8,1.8,7.5
	c0.8,0.8,1.9,1.3,3.4,1.3c1.5,0,2.7-0.5,3.5-1.3c1.7-1.7,1.8-4.3,1.8-7.5C412.2,67.3,412.1,64.6,410.4,63.1 M416.3,82.2
	c-1.9,2-5,3.8-9.4,3.8c-4.5,0-7.4-1.8-9.3-3.8c-2.7-2.8-3.4-6.3-3.4-11.8c0-5.4,0.7-8.9,3.4-11.7c1.9-2,4.8-3.8,9.3-3.8
	c4.5,0,7.6,1.8,9.4,3.8c2.7,2.8,3.4,6.3,3.4,11.7C419.7,76,419,79.4,416.3,82.2"/>
<path class="st1" d="M444.4,85.7v-2.8c-2,2.1-4.7,3.2-7.6,3.2c-3.1,0-5.4-1.1-7.2-2.7c-2.4-2.5-3.1-5.3-3.1-8.6V55.3h7.6v18.3
	c0,4.1,2.6,5.6,5.1,5.6c2.4,0,5.1-1.4,5.1-5.6V55.3h7.6v30.4H444.4"/>
<path class="st1" d="M478,85.7V67.3c0-4.1-2.6-5.6-5.1-5.6c-2.4,0-5,1.4-5,5.6v18.3h-7.6V55.3h7.3v2.8c2-2.1,4.7-3.2,7.6-3.2
	c3.1,0,5.4,0.9,7.2,2.7c2.4,2.4,3.1,5.3,3.1,8.6v19.4H478"/>
<path class="st1" d="M505.8,86c-6,0-13.6-3.3-13.6-15.6c0-12.3,7.6-15.5,13.6-15.5c4.1,0,7.3,1.3,10,4.1l-5.2,5.1
	c-1.5-1.7-2.8-2.4-4.8-2.4c-1.8,0-3.2,0.6-4.4,1.9c-1.1,1.5-1.7,3.5-1.7,6.7c0,3.2,0.6,5.3,1.7,6.7c1.2,1.4,2.6,2,4.4,2
	c2,0,3.3-0.7,4.8-2.4l5.2,5.1C513.1,84.6,509.9,86,505.8,86"/>
<path class="st1" d="M521.6,55.3h7.6v30.4h-7.6V55.3z M525.4,51.5c-2.6,0-4.7-2.1-4.7-4.7c0-2.7,2.1-4.7,4.7-4.7
	c2.7,0,4.7,2,4.7,4.7C530.1,49.4,528.1,51.5,525.4,51.5"/>
<path class="st1" d="M546.2,85.7c-6.1,0-8.9-4.4-8.9-8.8V44.2h7.6v32.3c0,1.9,0.8,2.8,2.7,2.8h3v6.4H546.2"/>
</svg>
