<svg xmlns="http://www.w3.org/2000/svg" xmlns:xlink="http://www.w3.org/1999/xlink" width="296.722" height="71.622" viewBox="0 0 296.722 71.622">
  <defs>
    <clipPath id="clip-path">
      <rect id="Rectangle_1" data-name="Rectangle 1" width="296.722" height="71.622" transform="translate(0 0)" fill="#fff"/>
    </clipPath>
  </defs>
  <g id="Group_2" data-name="Group 2" transform="translate(0 0)">
    <g id="Group_1" data-name="Group 1" clip-path="url(#clip-path)">
      <path id="Path_1" data-name="Path 1" d="M266.875,63.115a4.254,4.254,0,1,1-4.255,4.251,4.258,4.258,0,0,1,4.255-4.251m0,.7a3.551,3.551,0,1,0,3.54,3.554,3.564,3.564,0,0,0-3.54-3.554" fill="#fff"/>
      <path id="Path_2" data-name="Path 2" d="M265.177,69.659V65.077h1.564a2.94,2.94,0,0,1,1.248.155,1.223,1.223,0,0,1,.721,1.052,1.294,1.294,0,0,1-1.3,1.31c.344.149.6.427,1.055,1.171l.554.894h-.9l-.4-.718c-.6-1.031-.791-1.224-1.364-1.224h-.439v1.942Zm.738-2.578h.9c.766,0,1.108-.211,1.108-.7,0-.51-.307-.68-1.16-.68h-.844Z" fill="#fff"/>
      <path id="Path_3" data-name="Path 3" d="M121.743,36.352c-3.732,4.4-10.473,12.266-15.967,12.266-2.364,0-3.65-2.258-3.65-4.382,0-3.909,1.582-8.025,6.205-13.389,3.577-4.157,11.189-8.432,16.409-8.432,2.382,0,3.208,1.242,3.208,2.936,0,1.916-1.186,4.392-3.952,8.127l.1-.029c3.035-4.005,6.433-8.751,7.517-10.328l6.809-.014S127.579,37.067,119.4,47.661c-5.236,6.767-10.767,12.99-10.767,15.471,0,.785.293,1.606,1.453,1.606,2.268,0,7.348-5.886,9.721-8.54,9.014-10.07,13.91-15.873,21.152-24.531,2.127-2.551,4.3-5.311,6.987-8.587l7.008-.032c-1.83,2.168-5.444,6.738-8.555,10.825-3.407,4.474-8.27,10.234-8.27,11.9,0,.688.2,1.3,1.242,1.3,2.5,0,7.234-4.679,10.87-8.6,5.422-5.871,7.992-9.044,13.019-15.375h7.1c-.537.5-9.369,11.748-12.279,15.876-1.766,2.5-4.473,5.508-4.473,6.9,0,.818.465,1.366,1.543,1.366,2.514,0,8.889-6.115,11.314-8.631,3.6-3.7,4.043-4.43,7.2-7.515l-1.911,2.692a79.3,79.3,0,0,1-7.125,8.438c-3.111,3.015-6.814,6.2-9.853,6.2-2.885,0-3.721-2.182-3.721-4.4,0-2.892,1.217-5.7,6.022-12.3l.359-.706c-4.092,5.071-12.164,17.311-18.175,17.311-2.8,0-3.654-2.047-3.654-4.394,0-3.229,1.943-5.883,3.663-8.52,1.778-2.73,3.334-4.848,3.334-4.848l.26-.413c-2.012,2.379-7.96,10.67-11.721,15.322-.953,1.181-6.12,7.535-9.642,11.42-4.113,4.538-8.66,9.035-11.5,9.035-2.569,0-3.076-2.3-3.076-3.715,0-8.859,9.085-18.278,15.082-26.115Zm3.035-12.7c1.316,0,1.993.622,1.993,2.309,0,2.918-2.933,7.242-6.311,10.881-4.438,4.787-10.983,10.271-13.852,10.271-.858,0-1.535-.316-1.535-1.561,0-1.626,1.828-4.014,3.8-6.636,1.4-1.848,5.115-6.489,6.618-8.139,3.589-3.937,6.812-7.125,9.284-7.125m50.134,15.291c6.377-2.268,15.351-10.653,15.351-14.318,0-.926-.4-1.289-1.037-1.289-1.939,0-4.324,2.687-7.029,6.088-1.356,1.717-5.363,6.65-7.285,9.519m61.617-2.857a73.254,73.254,0,0,1-5.6,7.163c-2.931,3.12-6.236,5.391-9.041,5.391-2.433,0-4.142-1.808-4.142-5.341,0-4.339,3.287-9.044,5.019-10.922l.205-.307c-2.312,2.545-4.412,5.068-7.664,5.068a3.578,3.578,0,0,1-3.738-3.777,8.916,8.916,0,0,1,2.2-5.727l.158-.331s-11.589,12.448-17.347,20.379h-7.19c1.188-1.237,5.643-7,8.928-11.276,4.15-5.388,8.51-10.208,8.51-11.877a1.007,1.007,0,0,0-1.115-1.052c-2.649,0-8.829,7.4-14.116,12.679-4.334,4.334-12.115,12.34-17.81,12.34-3.17,0-5.033-2.6-5.033-5.818,0-4.784,2.531-8.531,5.306-12.038,2.908-3.668,11.135-8.282,15.135-8.282A2.318,2.318,0,0,1,191.619,25c0,5.2-10.66,12.9-17.5,15.191-1.27,2.13-2.12,4.016-2.12,5.3a1.908,1.908,0,0,0,2.108,1.9c3.375,0,8.42-4.239,13.975-9.577,2.093-2.016,7.039-7.114,9.2-9.352,3.088-3.208,5.953-5.994,8.841-5.994,1.938,0,2.831,2.054,2.831,3.926,0,4.6-3.305,8.138-6.082,11.765l-.026.276c5.127-6.328,13.518-15.22,13.518-15.22l7.384-.05s-3.628,3.484-6.435,6.75c-1.645,1.913-3.121,3.6-3.121,4.875a1.388,1.388,0,0,0,1.512,1.38c2.478,0,5.566-3.108,8.459-5.9,3.757-3.624,10.582-7.77,14.791-7.77a2.892,2.892,0,0,1,3.205,3.135c0,2.361-1.737,5.039-3.582,7.623l.017.152a43.2,43.2,0,0,0,2.7-3.791c1.5-2.513,4.451-6.407,4.451-6.407l6.885.024s-5.482,6.717-10.439,13.28c-3.586,4.746-7.108,8.449-7.108,9.923,0,.934.674,1.16,1.354,1.16,4.369,0,10.732-7.992,15.982-13.96,3.981-4.518,9.352-11.192,13.877-11.192,2.137,0,3.139,2.107,3.139,4.243,0,4.763-2.488,7.148-5.477,10.55-2.7,3.064-6.511,6.231-6.511,8.61,0,1.169.615,1.418,1.283,1.418,2.549,0,7-4.234,10.871-8.148a86.285,86.285,0,0,0,7.006-8.361c2.25-3.108,5.457-7.506,5.457-7.506l7.164-.041s-8.367,11.118-17.359,24.044a152.337,152.337,0,0,0,17.033-7.213c3.656-1.951,7.181-4.441,7.814-6.31-.193,2.988-3.217,4.813-5.836,6.548-4.246,2.809-12.666,6-20.189,8.592-7.953,10.828-15.969,20.886-21.744,20.886-1.948,0-3.071-1.142-3.043-3.392.017-1.978,1.552-4.767,3.826-7.041,3.33-3.334,8.762-6.454,13.947-8.789l.449-.688c3.91-6,8.129-11.933,9.975-14.613l.053-.223c-4.631,6.114-10.713,13.468-15.6,13.468-3.209,0-3.92-2.6-3.92-5.555,0-8.209,12.541-15.354,12.541-18.413a.993.993,0,0,0-1.062-.941c-3.112,0-6.918,4.454-12.446,10.75-5.361,6.1-11.634,14.282-17.39,14.282-2.108,0-3.549-1.316-3.549-4.125,0-2.529,1.908-5.643,4.025-8.584Zm2.814-12.448c1.047,0,1.711.721,1.711,2.355,0,1.577-1.318,4.509-3.418,7.656a86.388,86.388,0,0,1-7.125,8.431c-3.115,3.375-6.584,5.485-8.068,5.485a1.611,1.611,0,0,1-1.8-1.829c0-1.23,1.838-4.007,3.281-6.1a101.265,101.265,0,0,1,8.823-11.074c2.3-2.543,4.552-4.925,6.593-4.925M262.681,52.07c-8.578,4.23-15.568,10.848-15.568,14.751a1.794,1.794,0,0,0,1.762,2.065c2.767,0,5.228-3.533,7.892-7.74,1.7-2.681,4.086-6.284,5.914-9.076M8.921,17.933C7.98,19.9,5.282,19.661,5.282,16.565c0-4.093,3.384-9.2,7.978-11.813A33.931,33.931,0,0,1,30.425,0C42.185,0,57.9,6,68.871,6c5.895,0,10.275-2.619,11.54-4.834-.1.205-.425,1.442-.6,1.978s-1,1.008-1.558,1.4c-4.216,2.962-11.7,4.928-18.923,4.928A73.368,73.368,0,0,1,48.647,8.239a7.1,7.1,0,0,0-4.775,2.223C40.052,13.834,33.747,24,27.63,32.936c-3.621,5.3-7.512,12.05-12.9,16.447a28.253,28.253,0,0,1-9.7,5.238c2.321-.3,5.88.4,8.2.185a3.732,3.732,0,0,0,1.495-.41,8.025,8.025,0,0,1-5.309,1.922c-3.665,0-5.4-.832-9.419-.361.34-.225.727-.7.709-.876a14.548,14.548,0,0,0,4.869-3.052c6.041-5.467,14.089-18.9,21.744-29.488a53.072,53.072,0,0,1,8.353-9.463A23,23,0,0,1,47.493,8.042c-8.93-1.535-19.38-3.767-24.466-3.767-7.048,0-11.094,2.048-13.423,4.968a10.311,10.311,0,0,0-2.523,6.291c0,1.787,1.154,2.961,1.84,2.4m12.63,30.392c1.939-.474,5.1-2.83,8.121-5.557,4.772-4.313,9.753-10,11.282-11.561l.053-.067c3.12-3.9,11.209-8.772,15.559-8.772,2.013,0,2.959,1,2.959,2.819,0,1.693-1.324,4.318-2.765,6.392-.407.592-.864,1.257-1.365,1.978l.008.126c.633-.838,1.2-1.594,1.629-2.215,2.151-3.088,3.454-5.212,5.775-8.291l6.785-.012s-.75.788-1.365,1.568c-2,2.554-9.525,12.114-12.408,15.826-2.364,3.064-3.738,4.444-3.738,5.8,0,.533.483.984,1.233.984,2.848,0,9.387-7.661,12.935-11.572,5.241-5.769,11.156-13.43,15.363-13.43,2.728,0,2.956,2.722,2.956,4.362,0,4.058-3.5,8.2-5.628,11.25.153-.2.4-.451.545-.638C86.651,28.067,92.81,22.4,96.563,22.4c2.478,0,3.146,2.039,3.146,4.907,0,4.18-3.173,7.532-5.78,10.389-2.86,3.155-6.753,6.685-6.753,8.5a1.145,1.145,0,0,0,1.189,1.042c4.667,0,15.993-12.375,19.834-16.283a36.026,36.026,0,0,0-2.5,3.135C104.007,36.7,93.9,48.4,88.38,48.4c-3.155,0-3.908-3.27-3.727-5.661.285-3.65,2.734-6.416,5.25-9.375,3.539-4.157,7.67-7.294,7.67-9.035a.926.926,0,0,0-.99-.855c-2.244,0-6.366,3.372-10.767,8.062-4.93,5.242-10.4,11.883-13.71,16.14H65.115A18.931,18.931,0,0,0,67.184,45.3c2.748-3.363,6.87-8.827,9.4-12.091,3.331-4.277,5.812-7.236,5.812-8.592a1.1,1.1,0,0,0-1.142-1.234c-2.921,0-8.546,7.125-13.389,12.577-4.233,4.767-10.353,12.46-14.9,12.46-2.3,0-3.1-1.775-3.1-3.764a11.505,11.505,0,0,1,1.524-5.127A37.342,37.342,0,0,1,53.7,35.991l-.085.03c-1.145,1.591-2.279,3.138-3.1,4.251-3.249,4.333-7.357,8.27-10.969,8.27-2.757,0-4.122-2.282-4.122-4.96,0-3.747,1.705-7.069,3.621-9.829C32.938,41.86,28.354,46.7,23.9,48.129a5.564,5.564,0,0,1-2.346.2M58.418,25.307c0-.941-.384-1.732-1.406-1.732-2.212,0-5.775,3.1-10.4,9.094-4.869,6.328-8.27,10.723-8.27,13.037a1.414,1.414,0,0,0,1.588,1.6c2.408,0,7.271-4.424,11.385-9.41,3.893-4.717,7.107-9.911,7.107-12.592" fill="#fff" fill-rule="evenodd"/>
    </g>
  </g>
</svg>
