<svg xmlns="http://www.w3.org/2000/svg" width="367.9" height="96.903" viewBox="0 0 367.9 96.903">
  <g id="Group_7" data-name="Group 7" transform="translate(0.2 -0.097)">
    <g id="Group_1" data-name="Group 1">
      <path id="Path_1" data-name="Path 1" d="M84.7,92.9a129.764,129.764,0,0,1-34.2,4C27,96.9-.2,85.1-.2,51.8-.2,18.7,23.2,5.9,55.6,5.9c5.8,0,18.1.6,26.7,3.9L80.4,29a44.652,44.652,0,0,0-21.5-5.7c-19.1,0-34.8,7.9-34.8,28.5,0,17.3,12.3,27.7,29.5,27.7A21.033,21.033,0,0,0,62,78V60.6H48.1V44H84.7Z" fill="#fff"/>
      <path id="Path_2" data-name="Path 2" d="M159.7,95.4H139V83.3h-.3c-4.6,9.5-13.7,13.6-24,13.6-18,0-25.2-12.6-25.2-26.2v-41h22.8V61.5c0,12.4,4.3,16.5,10.5,16.5,9.4,0,14.2-6.4,14.2-20.5V29.7h22.8V95.4Z" fill="#fff"/>
      <path id="Path_3" data-name="Path 3" d="M192.1,29.7h13.4V15l22.4-6.9V29.8h15.9V45.7H227.9V69.9c0,7.9,1.9,12,9.1,12a41.921,41.921,0,0,0,7-.9l.8,14.7A109.589,109.589,0,0,1,230.5,97c-20.4,0-25.3-8.9-25.3-24.6V45.6h-13V29.7Z" fill="#fff"/>
      <path id="Path_4" data-name="Path 4" d="M279.3,81.8c8.6,0,14.1-7.8,14.1-15.5-2.9-.1-6.2-.4-9.6-.4-7.7,0-13.8,2.4-13.8,8.7,0,4.5,4,7.2,9.3,7.2M295,95.4c-.1-3.5-.5-6.9-.5-10.3h-.3c-5.2,8.2-11.5,11.8-20.9,11.8-13,0-24.7-6.4-24.7-20.7,0-20,21.9-22.4,34-22.4a66.579,66.579,0,0,1,10.6.9c-.1-8.9-6.8-11.3-15.1-11.3-7.3,0-14.7,1.4-21,4.9l-.4-15.4c8.1-3.3,16.6-4.7,26.3-4.7,16.8,0,31.4,7.2,31.4,27.2V79.9a81.112,81.112,0,0,0,1.3,15.5Z" fill="#fff"/>
      <path id="Path_5" data-name="Path 5" d="M366.5,47.9a24.935,24.935,0,0,0-7.7-.8c-10.6,0-16.6,7.7-16.6,20.5V95.3H319.4V29.7h20.8V41.8h.3c3.9-8.3,9.6-13.6,19.5-13.6a45.513,45.513,0,0,1,7.7.8Z" fill="#fff"/>
    </g>
    <rect id="Rectangle_1" data-name="Rectangle 1" width="22.8" height="65.7" transform="translate(164.9 29.7)" fill="#fff"/>
    <path id="Subtraction_1" data-name="Subtraction 1" d="M-366.3-133.1a11.829,11.829,0,0,1-8.425-3.475A11.829,11.829,0,0,1-378.2-145a11.913,11.913,0,0,1,11.9-11.9,11.829,11.829,0,0,1,8.425,3.475A11.83,11.83,0,0,1-354.4-145a11.913,11.913,0,0,1-11.9,11.9Zm-.1-9h0l2.4,5.1,2.3-1.1-2.5-5.2,4.9-.9-10.7-8.9-.7,14,4.3-3Z" transform="translate(542.6 160.1)" fill="#fff"/>
    <path id="Path_8" data-name="Path 8" d="M241.9,18.7h-4.5l2.7-17.3h4.5Z" fill="#fff"/>
    <g id="Group_3" data-name="Group 3">
      <path id="Path_9" data-name="Path 9" d="M250.5,8.4h0a5,5,0,0,1,4.1-1.9c3.2,0,4.1,2,3.7,4.9l-1.2,7.3H253l.9-5.7c.2-1.1.7-3.1-1.4-3.1-1.7,0-2.4,1.3-2.6,2.7l-1,6.1h-4.2l1.9-11.8h4.2Z" fill="#fff"/>
    </g>
    <path id="Path_10" data-name="Path 10" d="M264.5,18.7h-4.2l1.3-8.3h-1.3l.5-3.5h1.4l.6-3.5h4.1l-.5,3.5h2.3l-.5,3.5h-2.4Z" fill="#fff"/>
    <g id="Group_4" data-name="Group 4">
      <path id="Path_11" data-name="Path 11" d="M277.7,11.1a1.951,1.951,0,0,0-2.1-1.9,2.872,2.872,0,0,0-2.8,1.9Zm3.5,2.4h-8.8c-.3,1.7.5,2.6,2.2,2.6a2.531,2.531,0,0,0,2.2-1.1h4c-1.1,2.8-4,4-6.6,4-3.9,0-6.5-2.2-5.8-6.3a7.285,7.285,0,0,1,7.5-6.3c4.1,0,6.1,2.5,5.4,6.5Z" fill="#fff"/>
      <path id="Path_12" data-name="Path 12" d="M288,8.8h0a5.253,5.253,0,0,1,4.2-2.1h.8l-.6,4a3.287,3.287,0,0,0-1.7-.4c-2.3,0-3.1,1.5-3.5,3.6l-.8,4.7h-4.2l1.9-11.8h4.2Z" fill="#fff"/>
      <path id="Path_13" data-name="Path 13" d="M297.1,12.8a2.114,2.114,0,0,0,2.3,2.6,2.976,2.976,0,0,0,3.1-2.6,2.221,2.221,0,0,0-2.3-2.7,3.229,3.229,0,0,0-3.1,2.7m8.5,5.9h-4.2l.2-1.3h0a4.823,4.823,0,0,1-3.8,1.7c-3.5,0-5.5-2.9-5-6.3a7.269,7.269,0,0,1,6.9-6.3A4.061,4.061,0,0,1,303.1,8l.2-1.1h4.2Z" fill="#fff"/>
      <path id="Path_14" data-name="Path 14" d="M318.1,10.8a2.792,2.792,0,0,0-2-.8,3.335,3.335,0,0,0-3.3,2.9,2.354,2.354,0,0,0,2.5,2.9,3.716,3.716,0,0,0,2.2-.8l-.6,3.5a6.583,6.583,0,0,1-3,.7c-3.5,0-6-2.6-5.4-6.1a7.63,7.63,0,0,1,7.6-6.4,4.953,4.953,0,0,1,2.7.7Z" fill="#fff"/>
    </g>
    <path id="Path_15" data-name="Path 15" d="M324.1,18.7h-4.2l1.3-8.3h-1.4l.6-3.5h1.3l.6-3.5h4.2l-.6,3.5h2.4l-.5,3.5h-2.4Z" fill="#fff"/>
    <g id="Group_5" data-name="Group 5">
      <path id="Path_16" data-name="Path 16" d="M334.8,2.4a2.782,2.782,0,0,1-2.7,2.3,1.973,1.973,0,0,1-2-2.3A2.782,2.782,0,0,1,332.8.1a1.932,1.932,0,0,1,2,2.3M332,18.7h-4.2l1.9-11.8h4.2Z" fill="#fff"/>
    </g>
    <path id="Path_17" data-name="Path 17" d="M341.4,12.9l3.8-6h4.7l-8.1,11.8h-2.6L334.9,6.9h4.7Z" fill="#fff"/>
    <g id="Group_6" data-name="Group 6">
      <path id="Path_18" data-name="Path 18" d="M358.5,11.1a1.951,1.951,0,0,0-2.1-1.9,2.872,2.872,0,0,0-2.8,1.9Zm3.5,2.4h-8.8c-.3,1.7.5,2.6,2.2,2.6a2.531,2.531,0,0,0,2.2-1.1h4c-1.1,2.8-4,4-6.6,4-3.9,0-6.5-2.2-5.8-6.3a7.285,7.285,0,0,1,7.5-6.3c4.1,0,6.1,2.5,5.4,6.5Z" fill="#fff"/>
    </g>
  </g>
</svg>
