<svg xmlns="http://www.w3.org/2000/svg" width="679.685" height="86.588" viewBox="0 0 679.685 86.588">
  <path id="path11055" d="M652.755,2.5c9.913,0,26.93,2.611,26.93,25.923,0,18.625-13.666,24.12-21.035,24.12l21.035,32.149H640.494L620.4,52.54H604.925V84.689h-34.77V2.5h82.6Zm-47.83,20.9V33.443H634.87c2.915,0,7.435.1,7.435-5.424,0-4.62-4.52-4.62-8.241-4.62H604.925M424.453,84.687h99.279v-21.3H458.213V52.54h49.24v-19.1h-49.24V23.4h61.1V2.5H424.453V84.687m-77.376,0V60.775L386.066,2.5H347.077L330.2,30.03,313.317,2.5H273.924l39.393,58.279V84.687h33.76m-151.8-18.806c11.955,0,21.648-10.208,21.648-22.79s-9.693-22.785-21.647-22.785-21.647,10.2-21.647,22.785,6.654,22.79,21.647,22.79Zm-54.824-22.59C140.454,13.307,158.234,0,195.143,0s55.738,10.2,55.738,43.225-15.79,43.362-55.738,43.362-54.689-13.308-54.689-43.3M0,2.5H33.561V30.03H69.134V2.5H102.9V84.689H69.134V54.546H33.561V84.689H0V2.5" fill="#fff"/>
</svg>
