<?xml version="1.0" encoding="UTF-8"?>
<svg viewBox="0 0 280 280" xmlns="http://www.w3.org/2000/svg">
<defs>
<clipPath id="a">
<rect transform="translate(166 256)" width="280" height="280" data-name="Rectangle 1"/>
</clipPath>
</defs>
<g transform="translate(-166 -256)">
<g data-name="Group 17">
<g clip-path="url(#a)" data-name="Group 16">
<path d="m438.4 396a132.47 132.47 0 1 1-38.8-93.6 132.47 132.47 0 0 1 38.8 93.6z" fill="none" data-name="Path 57"/>
</g>
</g>
<path d="m306 261.4a134.52 134.52 0 1 0 95.2 39.4 134.52 134.52 0 0 0-95.2-39.4zm0 4.4a130.08 130.08 0 1 1-92.1 38.1 130.08 130.08 0 0 1 92.1-38.1z" fill="none" data-name="Path 58"/>
<path transform="translate(915 25)" d="m-606.65 511h-4.645a141.5 141.5 0 0 1-26.875-3.014 138.84 138.84 0 0 1-25.451-8 138.94 138.94 0 0 1-23.457-12.74 141.86 141.86 0 0 1-20.891-17.246 139.07 139.07 0 0 1-40.984-99 140.66 140.66 0 0 1 54.577-110.93 141.08 141.08 0 0 1 85.376-29.023h0.036a140.53 140.53 0 0 1 27.9 2.793 139.17 139.17 0 0 1 26.03 8.011 140.17 140.17 0 0 1 23.607 12.68 141.34 141.34 0 0 1 20.634 16.8 141.38 141.38 0 0 1 17.11 20.366 140.24 140.24 0 0 1 13.036 23.383 139.14 139.14 0 0 1 8.411 25.851 140.2 140.2 0 0 1 3.236 27.769v4.666a141.5 141.5 0 0 1-3.012 26.866 138.83 138.83 0 0 1-7.988 25.438 138.95 138.95 0 0 1-12.733 23.451 141.85 141.85 0 0 1-17.24 20.888 141.85 141.85 0 0 1-20.891 17.246 138.96 138.96 0 0 1-23.456 12.738 138.86 138.86 0 0 1-25.451 7.994 141.53 141.53 0 0 1-26.879 3.013zm-2.35-274.6a134.86 134.86 0 0 0-131.87 108.34 134.86 134.86 0 0 0 80.505 150.48 133.76 133.76 0 0 0 51.392 10.238 134.32 134.32 0 0 0 111.91-59.816 134.86 134.86 0 0 0-16.741-169.84 133.86 133.86 0 0 0-95.2-39.4zm-0.07 264.58a130.36 130.36 0 0 1-31.323-3.83 130.57 130.57 0 0 1-29.414-11.2 129.84 129.84 0 0 1-26.1-18.149 130.29 130.29 0 0 1-21.385-24.671 129.63 129.63 0 0 1-18.177-41.259 129.85 129.85 0 0 1-3.1-43.751 129.85 129.85 0 0 1 11.587-42.3 129.62 129.62 0 0 1 25.882-36.918 130.8 130.8 0 0 1 19.85-16.238 130.82 130.82 0 0 1 22.42-11.95 130.83 130.83 0 0 1 24.31-7.381 130.8 130.8 0 0 1 25.52-2.531 129.63 129.63 0 0 1 44.4 7.838 129.85 129.85 0 0 1 38.086 21.754 129.85 129.85 0 0 1 28.714 33.157 129.63 129.63 0 0 1 16.283 42.042 129.63 129.63 0 0 1 0.984 45.075 129.85 129.85 0 0 1-13.9 41.6 129.85 129.85 0 0 1-26.907 34.634 129.63 129.63 0 0 1-38.052 24.181 130.68 130.68 0 0 1-24.655 7.454 129.85 129.85 0 0 1-25.022 2.439zm0.07-254.82a124.36 124.36 0 0 0-88.32 36.537 125.04 125.04 0 0 0-15.522 157.46 124.54 124.54 0 0 0 103.77 55.47 124 124 0 0 0 47.632-9.486 125.05 125.05 0 0 0 74.668-139.51 125.05 125.05 0 0 0-122.23-100.48z" fill="#fff" data-name="Subtraction 1"/>
<path transform="translate(-3)" d="m394.78 399.04a85.845 85.845 0 1 1-25.143-60.695 85.847 85.847 0 0 1 25.143 60.695z" fill="none" stroke="#fff" stroke-width="4.5" data-name="Path 61"/>
<path transform="translate(986.34 99.5)" d="M-680.588,386.4h0a116.9,116.9,0,0,1-19.366-7.768A95.367,95.367,0,0,1-722.585,362.7a82.108,82.108,0,0,1-18.722-27,91.243,91.243,0,0,1-5.652-18.555,114.179,114.179,0,0,1-1.985-22.406c-.107-7.858-.119-16.442.517-25.954a197.928,197.928,0,0,1,4.794-32.666,322.968,322.968,0,0,1,59.456-5.1h.006c1.155,0,2.389-.007,3.583-.017,1.187.009,2.425.014,3.586.017a322.285,322.285,0,0,1,59.459,5.1,197.908,197.908,0,0,1,4.8,32.666c.636,9.524.624,18.1.516,25.954a114.229,114.229,0,0,1-1.985,22.406,91.292,91.292,0,0,1-5.653,18.555,82.105,82.105,0,0,1-18.721,27,95.4,95.4,0,0,1-22.631,15.936,116.94,116.94,0,0,1-19.367,7.768Zm.1-150.581h0v.1c-1.054.009-2.152.013-3.375.018a273.694,273.694,0,0,0-53.179,4.8,261.274,261.274,0,0,0-5.9,40.915c-.29,12.321-.406,25.3,1.573,36.686a69.254,69.254,0,0,0,5.9,18.491c6.38,12,15.8,23.155,24.589,29.113a101.742,101.742,0,0,0,30.391,15.737A102.911,102.911,0,0,0-650.1,365.943c8.707-5.9,18.129-17.06,24.589-29.113a65.873,65.873,0,0,0,5.9-18.491,138.888,138.888,0,0,0,1.723-22.55v-.111c.044-4.89-.051-9.884-.151-14.124a261.2,261.2,0,0,0-5.9-40.915,273.625,273.625,0,0,0-53.174-4.8h-.014c-1.186,0-2.305-.008-3.367-.018Z" fill="#fff" data-name="Subtraction 4"/>
<path transform="translate(0 2)" d="M286.7,495.7c-.3-.2-.9-.9-1.4-1.2-4.7-3-10.2-.1-10.5,5.6a6.892,6.892,0,0,0,5.2,7c2.9.5,5-.8,7-2.5l3,3.1a12.015,12.015,0,0,1-6.7,3.8,15.736,15.736,0,0,1-2.5.2c-6.2-.6-9.7-3.9-10.7-9.1a11.275,11.275,0,0,1,1.4-8.2,11.916,11.916,0,0,1,18.4-2.1Z" fill="#fff" data-name="Path 65"/>
<rect transform="translate(294.6 491.1)" width="5" height="22" fill="#fff" data-name="Rectangle 3"/>
<path transform="translate(0 2)" d="m322.3 493.7h-6.7v17.4h-5v-17.4h-6.7v-4.6h18.4z" fill="#fff" data-name="Path 66"/>
<path transform="translate(0 2)" d="m346.1 489.1-8.6 13.2v8.8h-4.8v-8.8l-8.4-13.2h5.7l5.2 9 5.3-9z" fill="#fff" data-name="Path 67"/>
<path d="m221.2 357.8-2.2 4.1-19-9.9 2.4-4.5 10.8-0.7-5.5-9.5 2.3-4.5 19.1 10.1-2.2 4.1-12.6-6.6 5.5 9.9-11.1 1.1z" fill="#fff" fill-rule="evenodd" data-name="Path 68"/>
<path d="m247 323-3.5 3.6-4.9-1.9-6.3 6.7 2.2 4.8-3.3 3.4-9.5-21.6 3-3.2zm-12.5 0.1-7.2-2.8 3.2 7z" fill="#fff" data-name="Path 69"/>
<path d="m250.1 320.7-11.2-18.3 3.7-2.4 15.6 6.2-6.9-11.4 4-2.4 11.1 18.4-3.4 2.1-16.1-6.3 7.2 11.7z" fill="#fff" fill-rule="evenodd" data-name="Path 70"/>
<path d="M282.6,289.7c-.3-.1-1.1-.6-1.7-.8a6.566,6.566,0,0,0-8.4,8.1,6.657,6.657,0,0,0,6.8,5.1c2.9-.3,4.5-2.1,5.9-4.2l3.6,2.1a11.367,11.367,0,0,1-5.3,5.4,8.337,8.337,0,0,1-2.4.8c-6,1.1-10.2-1-12.6-5.7a10.892,10.892,0,0,1-.9-8.1,11.263,11.263,0,0,1,5.9-7.1,11.654,11.654,0,0,1,10.9.1Z" fill="#fff" data-name="Path 71"/>
<path d="M380.3,313.4l-5.2-4-10.4,13.7-3.9-2.9,10.5-13.6-5.2-4,2.7-3.5L383,310Z" fill="#fff" data-name="Path 72"/>
<path d="M293.8,281.3l.5,21.5,4.6-.1-.2-8.7,8.9-.2.2,8.7,4.6-.1-.4-21.6-4.8.1.2,8.6-8.8.2-.2-8.5Z" fill="#fff" fill-rule="evenodd" data-name="Path 73"/>
<path d="M323.6,282.2l15.9,3.5-1,4.1-11.2-2.5-1,4.4,9.3,1.9-2.2,3.8-8-1.7-1,4.5,11.5,2.5-.9,4-16-3.4Z" fill="#fff" fill-rule="evenodd" data-name="Path 74"/>
<path d="M352.5,300.2c-2.8-2.1-2.8-3.3-2.1-4.3a2.148,2.148,0,0,1,2.5-.5,7.509,7.509,0,0,1,3.6,2.7,21.406,21.406,0,0,1,1.3,1.9l3.7-2.3a12.5,12.5,0,0,0-6.5-6c-2.1-.9-7.1-1.8-9.3,3.4a5.128,5.128,0,0,0,0,4.6c1.2,2,3.2,3.4,4.9,4.9a5.485,5.485,0,0,1,1.8,2.2,1.734,1.734,0,0,1-.5,1.8c-2.6,2.2-7.2-2.5-8.1-5.1l-4,1.9c2.1,4.1,5.7,7.8,11.3,8a6.319,6.319,0,0,0,5.5-3.7c.7-2,.9-3.8-.1-5.4a15.655,15.655,0,0,0-4-4.1Z" fill="#fff" fill-rule="evenodd" data-name="Path 75"/>
<path d="m389.6 316.3 10.3 12.5-3.2 2.7-7.4-8.9-3.5 2.8 6.4 7.6-4.3 1.4-5.2-6.3-3.6 2.9 7.6 9-3.2 2.7-10.5-12.6z" fill="#fff" fill-rule="evenodd" data-name="Path 76"/>
<path d="M405.9,347.7l-2.2-4.4-5.5,2.8,2.1,4.2c1.1,2.3,2.9,2.6,4.3,2.1,1.6-.5,2.5-2.5,1.3-4.7Zm-11.4,15.8-2.5-4.9,4.1-7.2-1.8-3.4-6.1,3.1-2.1-4.2,19.2-9.7,4.1,8.2a13.958,13.958,0,0,1,1.1,2.7,6.643,6.643,0,0,1,.1,4.6c-1.8,4.3-7.5,6.5-11.6,2.7Z" fill="#fff" data-name="Path 77"/>
<path d="M406,398.2a4.479,4.479,0,0,1-6.1-.4,3.928,3.928,0,0,1-1.1-2.8,7.945,7.945,0,0,1,.6-2.2,3.506,3.506,0,0,1,1.7-1.7,5.538,5.538,0,0,1,5.3,0,4.866,4.866,0,0,1,2.1,3.1,11.154,11.154,0,0,1,.3,2.7c0,2.6-.8,5-2.7,6.2a5.25,5.25,0,0,1-2,.6,6.785,6.785,0,0,1-5-1.4l1.4-2.2c3.7,2.9,5.5.1,5.5-1.9Zm.2-3.3a2.137,2.137,0,0,0-1.8-2,2.854,2.854,0,0,0-1.3,0,1.834,1.834,0,0,0-1,.7,2,2,0,0,0,.6,3.1,13.036,13.036,0,0,0,1.3.3,2.2,2.2,0,0,0,2.2-2.1Z" fill="#fff" data-name="Path 78"/>
<path d="M422.4,400.7h-1.7v2.9h-2.6v-2.9h-6.4l-.4-2,7-8.3h2.4v8h1.7Zm-4.2-2.2v-4.1l-3.7,4.1Z" fill="#fff" data-name="Path 79"/>
<path d="m192.8 393.9-0.6-2.2 3.5-1.1h2.1v13h-2.7v-10.4z" fill="#fff" data-name="Path 80"/>
<path d="M208.7,396.8a3.416,3.416,0,0,1,2.3,3.3,3.53,3.53,0,0,1-2.9,3.4,6.814,6.814,0,0,1-2.1.2c-2.1-.1-4.9-1-5-3.6.1-1.8.5-2.5,2-3.3a3.169,3.169,0,0,1-1.2-4.5,2.41,2.41,0,0,1,1-1,3.507,3.507,0,0,1,1.4-.6,8.806,8.806,0,0,1,1.7-.2c2.3,0,4.3,1.1,4.5,3.4a2.319,2.319,0,0,1-.4,1.8c-.1.4-.6.8-1.3,1.1Zm-1.3-1.3a1.606,1.606,0,0,0,.5-1.1,1.433,1.433,0,0,0-.5-1.1,1.844,1.844,0,0,0-1.3-.4,1.7,1.7,0,0,0-1.3.4,1.433,1.433,0,0,0-.5,1.1,1.606,1.606,0,0,0,.5,1.1A2.242,2.242,0,0,0,207.4,395.5Zm.8,4.2c0-1.3-1.5-1.7-2.5-1.6s-2,.7-2,1.6c0,1.2,1.3,1.8,2.3,1.8a2.036,2.036,0,0,0,2.2-1.8Z" fill="#fff" data-name="Path 81"/>
<path transform="translate(996.2 172.8)" d="m-690.46 301.31c-19.673-7.08-33.821-16.278-43.253-28.119a64.864 64.864 0 0 1-10.528-19.151 90.371 90.371 0 0 1-4.634-22.791l58.416 70.059zm13.938-5.534-53.376-64.672h-18.992l-8e-3 -0.1h80.2l27.8 33.6 0.072-0.128a64.375 64.375 0 0 1-7.773 11.05 72.036 72.036 0 0 1-10.473 9.752 81.489 81.489 0 0 0 7.974-7.074l-39.1-47.1h-18.2l46.586 56.182a102.09 102.09 0 0 1-14.709 8.489zm42.011-46.985-14.687-17.787h17.7a96.591 96.591 0 0 1-3.012 17.785z" fill="#fff" data-name="Subtraction 2"/>
<path d="M320.4,390a120.626,120.626,0,0,0,20.5-2.7c-.8,6.4-7.3,5.7-3.6,11.7H329c-3.1-1.1-6.4-2.4-9.2-2.6a4.067,4.067,0,0,0-2.2.2c-8.7,3.3-15.7-.5-22.2-.6-.2.8-1.6,1.7-4.4,2-4.7.6-8-1.4-11.7-1.5-1.3,0-2.6.4-3.7,2.5-1.9-2.6-3-4.6-5.6-7.8-3.9-1.9-7.5-3.4-11-4.7l.2-.7a130.424,130.424,0,0,0,27.2,5.4c9.3.4,19.4,1,28.5.3,2.6-1,3.6-1.4,5.5-1.5Z" fill="#fff" fill-rule="evenodd" data-name="Path 86"/>
<path d="M339.7,388.2c-1,4.1-7.1,5.7-3,10.8h-4.9c-3.1-1.1-8.5-3.5-14.5-3.5-2.2,1.7-6.2,2.5-12.3,1.1a45.159,45.159,0,0,0-10.7-1.5c-.9,3.8-13.5,2.3-18-3.6l-5.7-1.4-1.3-1a162.49,162.49,0,0,0,23.1,3.2c8.6.3,16.7.3,22.5.1a33.061,33.061,0,0,0,3.3-1.2,9.6,9.6,0,0,1,4.4-.6,154.4,154.4,0,0,0,17.1-2.4Z" fill="#fff" fill-rule="evenodd" data-name="Path 87"/>
<path d="M301.1,389.9a7.514,7.514,0,0,1,5-2.9l-.1,4.7h1.6l-.1-5c5.9-.8,12.2.2,17.3,1.4v1.7c.6,0,1.1-.1,1.6-.1v-2l16.6-5.8c-4.7-6.2-4.3-13.5-3.1-20.9a39.641,39.641,0,0,1-8.7,16.9c-4.5,5-4,6.1-4.8,7.5l-.3-33.6-3.8,1.3c-.8.2-.3.6-1,.9l-3.8,1.5,4.4-.2c.6,0,.2-.9.8-1l2.4-.2-.3,33.2c-2.6-4.1-7.2-9-5.3-19.3-4.6,17.5-19.5,15.6-18.4,21.9Zm-6.5-18.6c-4,13.7-15.9,12-15.2,17.5,1.8-1.6,3.6-1.7,5.3-2.2v4.2a7.565,7.565,0,0,0,1.5.1l.1-4.5a52.785,52.785,0,0,1,12,.4c-3.1-5.1-5.1-10.2-3.7-15.5Z" fill="#fff" fill-rule="evenodd" data-name="Path 88"/>
<path d="m340 360.9a39.641 39.641 0 0 1-8.7 16.9c-4.5 5-4 6.1-4.8 7.5l-0.2-19.6zm-41.3 14 20.9-7.2c-4.7 17.8-19.6 15.8-18.4 22.1-3.6-3.2-7-9.5-2.5-14.9zm-21.4 2.4 17.3-6c-4 13.7-15.9 12-15.2 17.5-4-4-4.1-8.8-2.1-11.5z" fill="#fff" fill-rule="evenodd" data-name="Path 89"/>
<path d="M307.6,347.6v-6l-3.8,1.3c-.8.2-.3.6-1,.9l-3.8,1.5,4.4-.2c.6,0,.2-.9.8-1l2.4-.2v4.2Z" fill="#fff" fill-rule="evenodd" data-name="Path 90"/>
<path d="M286.1,362.4v-7.3l-3.8,1.3c-.8.2-.3.6-1,.9l-3.7,1.4,4.3-.1c.6,0,.2-.9.8-1l2.4-.2v5.4Z" fill="#fff" fill-rule="evenodd" data-name="Path 91"/>
<path d="M303.3,345c.6,0,.2-.9.8-1l-.4-1.2c-.8.2-.3.6-1,.9Z" fill="#ffbb59" fill-rule="evenodd" data-name="Path 92"/>
<path d="M314.2,345.3c-6.1,11.8-14.4,9.8-15.4,15.5-3.2-2.6-1.8-7.9.2-10.2Z" fill="#fff" fill-rule="evenodd" data-name="Path 93"/>
<path d="m316 355.5c-2.1-2.5-3.5-5.5-1.8-10.2-6.1 11.8-14.4 9.8-15.4 15.5 3.5-4.7 14-5.1 17.2-5.3z" fill="#fff" fill-rule="evenodd" data-name="Path 94"/>
<path d="M298.9,373.9c-3.6-5.3-3.3-10.7-.1-12.2,5.7-2,13-4.3,17.1-6.1-2.8,11-15.7,12-17,18.3Z" fill="#fff" fill-rule="evenodd" data-name="Path 95"/>
<path d="m316 355.5c-2.9 11.1-15.7 12.1-17 18.4 2.7-3.6 8.9-6 20.6-6.4-2.6-3.3-4.4-7-3.6-12z" fill="#fff" fill-rule="evenodd" data-name="Path 96"/>
<path d="m291.7 360.4c-5 1.9-9.4 3.4-13.3 4.7-1.8 1.8-4 6.8-0.7 11-0.6-4.9 9.8-6.7 14-15.7z" fill="#fff" fill-rule="evenodd" data-name="Path 97"/>
<path d="M277.7,376.1c-.6-4.9,9.9-6.7,14-15.7-.2,2.2-1,6.9,2.9,10.8-6.1.3-14,1.2-16.9,4.9Z" fill="#fff" fill-rule="evenodd" data-name="Path 98"/>
<path d="M281.8,358.6c.6,0,.2-.9.8-1l-.4-1.2c-.8.2-.3.6-1,.9Z" fill="#ffbb59" fill-rule="evenodd" data-name="Path 99"/>
<path d="M276,365.7c-4.3,3.1-12.1,8.9-16.2,18.7a27.876,27.876,0,0,1,9.3.5c-3.1-2.1-3.7-4.5,6.9-19.2Z" fill="#fff" fill-rule="evenodd" data-name="Path 100"/>
<path d="m272.2 385.6-3.2-0.6c-3.1-2.1-3.7-4.5 6.9-19.2-2.1 3.8-5.5 10.8-3.7 19.8z" fill="#fff" fill-rule="evenodd" data-name="Path 101"/>
<path d="M321.9,355.1c.6,0,.2-.9.8-1l-.4-1.2c-.8.2-.3.6-1,.9Z" fill="#ffbb59" fill-rule="evenodd" data-name="Path 102"/>
<path d="M307.1,411.9l2.5,3.1a1.54,1.54,0,0,1,.2,1.1,5.425,5.425,0,0,1,4.8,2.1,11.726,11.726,0,0,0,3.1,3.4,11.85,11.85,0,0,0,3.8,1.8,5.518,5.518,0,0,1,3.8,3.9,2.339,2.339,0,0,1,1.4.1l3.3,1.1a2.505,2.505,0,0,1,.7.4,1.33,1.33,0,0,1,.3.8,2.768,2.768,0,0,1-.1.9l-2.5,3.5a1.2,1.2,0,0,1-.8.4,5.312,5.312,0,0,1-.6,5.5,11.626,11.626,0,0,0-2.4,4.1,17.186,17.186,0,0,0-.4,4.5,4.59,4.59,0,0,1-2.4,3.9,3.529,3.529,0,0,1,.1.6v3.6a2.745,2.745,0,0,1-.2,1.3,2.125,2.125,0,0,1-2.3.6l-3.6-1.2c-.4-.2-.4-.4-.4-.4-3.6,2.9-6.6.3-9.5.2-2.9.1-5.9,2.7-9.5-.2a1.2,1.2,0,0,1-.4.4l-3.6,1.2a7.722,7.722,0,0,1-1,.1,2.389,2.389,0,0,1-1.3-.7,1.813,1.813,0,0,1-.2-1.3v-3.6a3.535,3.535,0,0,1,.1-.6,4.388,4.388,0,0,1-2.4-3.9,17.186,17.186,0,0,0-.4-4.5c-.4-1.3-.7-1.9-2.4-4.1a5.543,5.543,0,0,1-.6-5.5,1.426,1.426,0,0,1-.8-.4l-2.5-3.5a1,1,0,0,1-.1-.9,1.136,1.136,0,0,1,.3-.8,2.505,2.505,0,0,1,.7-.4l3.3-1.1a2.339,2.339,0,0,1,1.4-.1c.8-2.4,2.1-3.5,3.8-3.9a10.055,10.055,0,0,0,3.8-1.8,15.333,15.333,0,0,0,3.1-3.4,5.53,5.53,0,0,1,4.8-2.1c0-.3-.2-.7.2-1.1l2.5-3.1a2,2,0,0,1,1.1-.6,1.76,1.76,0,0,1,1.3.6Z" fill="#fff" fill-rule="evenodd" data-name="Path 103"/>
<path d="M305,424a2.608,2.608,0,0,0-3.7-.2,2.65,2.65,0,0,0-.6.5c-1.3,1.2-1.5,2.3-2.9,3-1.9.9-5.3.9-4.2,4.6.4,1.1.4.9-.6.7-1.8-.4-3.3-1.4-3.5-3.3a3.472,3.472,0,0,1,2.3-3.7,10.6,10.6,0,0,0,4.1-1.8c2.4-1.6,2.7-3.7,4.5-4.6a4.417,4.417,0,0,1,3.2,0c1.7.8,2.1,2.6,1.9,4.7,0,.6-.3.3-.5.1Z" fill-rule="evenodd" data-name="Path 104"/>
<path d="M305.4,433.8v-6.2a2.324,2.324,0,0,0-1.7-2.7,2.257,2.257,0,0,0-1.6.2,7.369,7.369,0,0,0-1.7,1.8,5.65,5.65,0,0,1-2.1,1.7,19.45,19.45,0,0,0-2.2.8,2,2,0,0,0-1.3,2.1,2.088,2.088,0,0,0,.8,1.6,4.941,4.941,0,0,0,1.8.8l5.3,1.7a.63.63,0,0,0,.8-.3,2.119,2.119,0,0,1,1.6-1.1c.3.1.3-.2.3-.4Z" fill-rule="evenodd" data-name="Path 105"/>
<path d="M307.3,424a2.608,2.608,0,0,1,3.7-.2,2.65,2.65,0,0,1,.6.5c1.3,1.2,1.5,2.3,2.9,3,1.9.9,5.3.9,4.2,4.6-.4,1.1-.4.9.6.7,1.8-.4,3.3-1.4,3.5-3.3a3.472,3.472,0,0,0-2.3-3.7,10.6,10.6,0,0,1-4.1-1.8c-2.4-1.6-2.7-3.7-4.5-4.6a4.417,4.417,0,0,0-3.2,0c-1.7.8-2.1,2.6-1.9,4.7,0,.6.3.3.5.1Z" fill-rule="evenodd" data-name="Path 106"/>
<path d="M306.9,433.8v-6.2a2.324,2.324,0,0,1,1.7-2.7,2.257,2.257,0,0,1,1.6.2,7.369,7.369,0,0,1,1.7,1.8,5.65,5.65,0,0,0,2.1,1.7,19.45,19.45,0,0,1,2.2.8,2,2,0,0,1,1.3,2.1,2.088,2.088,0,0,1-.8,1.6,4.941,4.941,0,0,1-1.8.8l-5.3,1.7a.6.6,0,0,1-.4.1c-.1,0-.1,0-.2-.1a2.528,2.528,0,0,0-1.9-1.4c-.2,0-.3-.2-.2-.4Z" fill-rule="evenodd" data-name="Path 107"/>
<path d="M315,447.8a2.615,2.615,0,0,0,3.1-2c.1-.2.1-.5.2-.8.3-1.7-.2-2.8.6-4.2,1-1.9,3.8-3.9.7-6.2-.9-.6-.9-.5.1-.9,1.7-.7,3.5-.8,4.8.6a3.486,3.486,0,0,1,.3,4.4,12.485,12.485,0,0,0-2.2,3.9c-.9,2.7,0,4.6-1,6.4a3.714,3.714,0,0,1-2.6,1.8c-1.9.4-3.2-.9-4.3-2.7-.3-.5.1-.4.3-.3Z" fill-rule="evenodd" data-name="Path 108"/>
<path d="M308.9,440.2l3.7,5a2.3,2.3,0,0,0,3,1.2,1.721,1.721,0,0,0,1.1-1.1,6.616,6.616,0,0,0,.3-2.5,5.594,5.594,0,0,1,.7-2.6c.4-.6.9-1.3,1.3-1.9a2.125,2.125,0,0,0-.2-2.5,2.358,2.358,0,0,0-1.6-.9,6.458,6.458,0,0,0-1.9.4l-5.3,1.8c-.3.1-.5.3-.4.6a2,2,0,0,1-.8,2c-.1.1,0,.3.1.5Z" fill-rule="evenodd" data-name="Path 109"/>
<path d="M297.2,447.8a2.615,2.615,0,0,1-3.1-2c-.1-.2-.1-.5-.2-.8-.3-1.7.2-2.8-.6-4.2-1-1.9-3.8-3.9-.7-6.2.9-.6.9-.5-.1-.9-1.7-.7-3.5-.8-4.8.6a3.486,3.486,0,0,0-.3,4.4,12.483,12.483,0,0,1,2.2,3.9c.9,2.7,0,4.6,1,6.4a3.714,3.714,0,0,0,2.6,1.8c1.9.4,3.2-.9,4.3-2.7.4-.5,0-.4-.3-.3Z" fill-rule="evenodd" data-name="Path 110"/>
<path d="M303.3,440.2l-3.7,5a2.3,2.3,0,0,1-3,1.2,1.721,1.721,0,0,1-1.1-1.1,6.616,6.616,0,0,1-.3-2.5,5.594,5.594,0,0,0-.7-2.6,21.422,21.422,0,0,1-1.3-1.9,2.125,2.125,0,0,1,.2-2.5,2.358,2.358,0,0,1,1.6-.9,6.458,6.458,0,0,1,1.9.4l5.3,1.8a.7.7,0,0,1,.5.4,2.294,2.294,0,0,0,.7,2.1.471.471,0,0,1-.1.6Z" fill-rule="evenodd" data-name="Path 111"/>
<path d="M313.2,449a2.71,2.71,0,0,1-2.9,2.4,2.2,2.2,0,0,1-.8-.1c-1.7-.2-2.6-1-4.1-.7-2.1.4-4.9,2.4-6.1-1.2-.3-1.1-.2-1-.9-.2-1.2,1.4-1.9,3.1-.8,4.7a3.491,3.491,0,0,0,4.1,1.6,12.263,12.263,0,0,1,4.4-1c2.9-.1,4.4,1.4,6.3,1a3.743,3.743,0,0,0,2.5-1.9c.9-1.7.1-3.3-1.3-4.9-.4-.4-.4,0-.4.3Z" fill-rule="evenodd" data-name="Path 112"/>
<path d="M307.8,440.8l3.7,5a2.243,2.243,0,0,1,.2,3.2,2.476,2.476,0,0,1-1.4.8,5.87,5.87,0,0,1-2.5-.5,6.2,6.2,0,0,0-2.7-.2,17.984,17.984,0,0,1-2.2.6,2.148,2.148,0,0,1-2.3-.9,1.891,1.891,0,0,1-.3-1.8,5.854,5.854,0,0,1,1-1.7l3.3-4.5c.2-.2.3-.4.6-.3a2.35,2.35,0,0,0,2.2,0c.1,0,.3.2.4.3Z" fill-rule="evenodd" data-name="Path 113"/>
<path d="m308.3 437.5a2.1 2.1 0 1 1-2.1-2.1 2.182 2.182 0 0 1 2.1 2.1z" data-name="Path 114"/>
<path d="M304.2,417.2c-.2-.2-.2-.3.1-.5a18.023,18.023,0,0,0,1.7-2.5c.6.9,1.2,1.7,1.7,2.5.2.3.3.3.1.5a5.242,5.242,0,0,0-1.8,2.6,4.69,4.69,0,0,0-1.8-2.6Z" fill-rule="evenodd" data-name="Path 115"/>
<path d="M324.8,429.6c.1-.3.2-.2.5-.1.9.3,1.8.6,2.9.9-.7.8-1.3,1.6-1.9,2.4-.2.3-.2.4-.5.2a4.664,4.664,0,0,0-3-.9,5.515,5.515,0,0,0,2-2.5Z" fill-rule="evenodd" data-name="Path 116"/>
<path d="M286.3,432.9c-.3.2-.3.1-.5-.2a29.95,29.95,0,0,0-1.8-2.4c1.1-.3,2-.6,2.9-.9.3-.1.4-.2.5.1a4.8,4.8,0,0,0,1.9,2.5,5.092,5.092,0,0,0-3,.9Z" fill-rule="evenodd" data-name="Path 117"/>
<path d="M319.4,452.6c.3,0,.3.1.3.5,0,.9,0,1.9.1,3a19.046,19.046,0,0,0-2.9-.9c-.3-.1-.4-.1-.4-.4a4.75,4.75,0,0,0-.1-3.1,6.373,6.373,0,0,0,3,.9Z" fill-rule="evenodd" data-name="Path 118"/>
<path d="M295.7,454.6c.1.3,0,.3-.4.4-.9.3-1.8.6-2.8,1a15,15,0,0,0,0-3c0-.3,0-.4.3-.5a4.6,4.6,0,0,0,2.9-1.1,5.726,5.726,0,0,0,0,3.2Z" fill-rule="evenodd" data-name="Path 119"/>
</g>
</svg>
