<svg xmlns="http://www.w3.org/2000/svg" width="539.18" height="215.675" viewBox="0 0 539.18 215.675">
  <g id="nhs-logo-uk" transform="translate(-80.409 -796.005)">
    <path id="path2-9" d="M80.41,796.005H619.59V1011.68H80.41Z" fill="#fff"/>
    <path id="path4-4" d="M132.98,816.224h59.31L227.337,937.54h1.348l24.263-121.316H297.43L259.687,991.458H201.725L165.331,870.142h-1.348L139.719,991.458H95.237M313.605,816.224h48.526l-13.479,66.05H402.57l14.828-66.05h47.178L428.181,991.458H381l14.828-75.485H340.565l-16.175,75.485h-45.83M588.588,855.315a94.272,94.272,0,0,0-39.091-8.088c-18.871,0-33.7,2.7-33.7,17.523,0,24.263,68.746,16.175,68.746,68.746,0,48.526-44.482,60.658-86.269,60.658a173.9,173.9,0,0,1-53.918-9.436l10.784-36.395c9.436,5.392,28.307,9.436,43.134,9.436s37.743-2.7,37.743-20.219c0-28.307-68.746-17.523-68.746-67.4,0-45.83,39.091-59.31,78.181-59.31,21.567,0,41.786,2.7,53.918,8.088"/>
  </g>
</svg>
