<svg id="pimms" xmlns="http://www.w3.org/2000/svg" width="814.908" height="569.587" viewBox="0 0 814.908 569.587">
  <path id="path3505" d="M4537.659,1814.705s7.607-5.162,16.437-5.705l7.063.272a21.738,21.738,0,0,1,6.656,1.494s11,3.124,21.191,15.214a41.108,41.108,0,0,1,6.249,26.353s-1.358,13.992-8.83,25.81a104.187,104.187,0,0,1-21.734,24.995s-12.77,10.732-27.44,17.252a5.1,5.1,0,0,1-3.667-1.63s-.679-1.63-.272-2.173c0,0,26.761-19.29,27.712-39.53l-1.63-1.63s-20.648-.272-30.429-14.535a32.314,32.314,0,0,1-5.706-16.029s-.815-9.373,2.853-16.844a34.937,34.937,0,0,1,11.546-13.312" transform="translate(-3908.743 -1563.262)" fill="#fff"/>
  <path id="path3507" d="M5736.028,2019.8c-7.58.091-14.233,5.188-14.233,5.188-7.335,5.569-5.841,17.116-5.841,17.116.815,5.3,4.89,9.645,4.89,9.645a23.447,23.447,0,0,0,9.373,5.706l11.818-1.087a21.969,21.969,0,0,0,9.373-7.335c2.581-3.532,2.853-8.558,2.853-8.558a20.07,20.07,0,0,0-1.766-9.1c-1.494-3.939-5.434-7.064-5.434-7.064a27.276,27.276,0,0,0-7.743-4.211A15.9,15.9,0,0,0,5736.028,2019.8Zm-1.053,2.305c7.052-.056,13.173,6.958,13.173,6.958a21.679,21.679,0,0,1,2.988,13.856,18.563,18.563,0,0,1-4.075,6.928,22.743,22.743,0,0,1-6.656,4.483l-9.509.272a19.907,19.907,0,0,1-8.287-4.89c-6.656-9.1-3.4-16.573-3.4-16.573,1.63-4.483,5.977-7.607,5.977-7.607a22.688,22.688,0,0,1,9.1-3.4C5734.521,2022.122,5734.748,2022.11,5734.976,2022.108Z" transform="translate(-4939.378 -1745.428)" fill="#fff"/>
  <path id="path3511" d="M5797.2,2073c-1.9,0-2.174,1.087-2.174,1.087l-.271,10.46v10.46c.679,1.358,3.4,1.358,3.4,1.358,1.223-1.087,1.358-3.8,1.358-3.8l.136-4.347c1.358-1.766,5.841-.951,5.841-.951,1.494,1.087,1.63,4.347,1.63,4.347.271,3.4,1.494,4.483,1.494,4.483l2.038.407a1.408,1.408,0,0,0,1.63-.951l-.407-5.026-1.223-4.619c-.679-.951.271-2.174.271-2.174l1.494-2.038a7.567,7.567,0,0,0-.407-5.434c-1.9-2.853-6.656-2.989-6.656-2.989Zm5.26,4c3.949-.028,5.064,1.978,5.064,1.978.272,2.309-2.173,3.532-2.173,3.532a5.766,5.766,0,0,1-5.434-.679l-.136-2.717a2.254,2.254,0,0,1,1.358-2.038C5801.606,2077.025,5802.046,2077,5802.455,2077Z" transform="translate(-5007.579 -1791.399)" fill="#fff"/>
  <path id="path3515" d="M5022.324,2272.438l-1.087,1.9-15.757,26.353-1.63.272-1.63-.815s-11.547-6.521-17.388-9.373c0,0-10.188-4.89-18.882-5.434a29.669,29.669,0,0,0-11.954,3.4,25.051,25.051,0,0,0-8.558,9.1,23.508,23.508,0,0,0-2.309,14.535s1.086,7.743,5.841,13.584l28.663,26.761s18.61,16.844,28.119,27.712c0,0,29.75,33.825,26.354,68.329a112.064,112.064,0,0,1-2.174,13.992s-2.038,7.335-5.841,12.362c0,0-9.373,17.931-26.9,28.527,0,0-17.388,10.6-37.628,10.732a84.678,84.678,0,0,1-33.553-8.015s-11.275-5.434-29.206-18.61c0,0-3.125-2.445-1.63-4.075l16.98-22.822,1.63-1.223,1.766.679s19.7,13.313,25.81,16.03c0,0,15.758,6.792,29.478,1.087,0,0,10.6-5.162,16.845-15.078,0,0,6.113-10.052,5.841-21.735a48.684,48.684,0,0,0-8.966-24.452s-2.581-3.8-17.8-20.784c0,0-5.841-6.249-22.278-20.648,0,0-15.486-13.584-22.686-21.735,0,0-23.772-26.9-16.3-54.609a68.18,68.18,0,0,1,19.154-31.108s15.078-13.856,32.466-16.03c0,0,17.116-2.989,34.64,2.989a129.361,129.361,0,0,1,30.292,16.3,1.68,1.68,0,0,1,.272,1.9" transform="translate(-4229.854 -1944.787)" fill="#fff"/>
  <path id="path3519" d="M37.891,2275c-20.794.016-36.3.543-36.3.543l-1.223.815c-1.223,254.3.951,254.568.951,254.568,18.475.679,36.949,0,36.949,0l.951-.951.272-47.68-.136-47.681a3.248,3.248,0,0,1,1.766-2.853l32.738-.951c18.067-1.766,29.614-8.558,29.614-8.558,14.807-7.335,25.81-21.6,25.81-21.6a80.492,80.492,0,0,0,13.856-29.885c5.434-24.859-4.075-47.545-4.075-47.545-9.509-22.414-30.972-36-30.972-36-15.486-9.781-34.64-11.682-34.64-11.682C61.129,2275.121,48.783,2274.99,37.891,2275Zm16.777,35.387c32.96.05,44.735,20.444,44.735,20.444,5.57,8.015,6.385,19.561,6.385,19.561a46,46,0,0,1-3.4,20.512c-3.668,9.373-12.633,16.3-12.633,16.3a46.412,46.412,0,0,1-18.61,8.558l-14.535.679-14.943-.272-2.173-1.63c-.951-62.08-.543-81.1-.543-81.1.408-2.717,3.939-2.853,3.939-2.853h5.841Q51.808,2310.376,54.668,2310.385Z" transform="translate(0 -1965.957)" fill="#fff"/>
  <path id="path3521" d="M1283.768,2276.848s14.4-.407,18.339,0c0,0,.951,3.26.951,129.458l-.136,125.654-.815.679s-20.92.951-36.406-.136l-.679-1.359-.272-254.161,19.018-.136" transform="translate(-1092.944 -1967.399)" fill="#fff"/>
  <path id="path3523" d="M1903.818,2278.9l10.188,60.042,10.188,59.906,17.659,103.24,2.581,15.486a147.455,147.455,0,0,1,2.038,15.35l-1.63.543-35.319-.407a1.579,1.579,0,0,1-1.223-1.223l-.543-2.038-17.388-101.882-3.8-17.659-.815-.272-1.358,2.173-30.565,119.677a3.906,3.906,0,0,1-2.853,1.223l-3.4-.408-1.087-1.766s-17.524-70.909-30.564-119.813l-.815-.951a7.662,7.662,0,0,0-1.9,3.26l-.679,3.8-19.29,115.058-1.087,1.087s-18.746.408-35.591-.543l-.679-.272-.136-.679,41.568-253.481,1.766-1.358,18.61.407,1.223,1.63,28.663,113.156.951,3.4,1.63,2.853s.951.272,1.63-1.63l15.35-59.091,15.214-59.227.951-.951s9.645-.408,19.561,0l.951,1.358" transform="translate(-1517.245 -1967.687)" fill="#fff"/>
  <path id="path3525" d="M3403.528,2279.12a156.417,156.417,0,0,1,19.833.136l.951,2.581.679,2.717,28.8,177,11.818,72.132-.679,1.358-1.63.407-34.775-.272a3.3,3.3,0,0,1-1.63-2.309l-.679-2.853S3414.26,2454.356,3407.2,2417l-.543-1.9-.951-1.494a10.737,10.737,0,0,0-2.309,4.754l-1.494,5.434-28.119,109.625s-.815,1.358-3.26,1.358l-3.8-.407-.951-1.087-15.078-61.265s-9.373-39.258-15.486-61.265l-.679-.679s-.407-.272-.815.272c0,0-3.125,13.448-6.656,34.64l-5.841,35.047-8.966,53.386a2.023,2.023,0,0,1-2.717,1.63l-1.223-.407a.716.716,0,0,0-.951.407l-31.787-.136-.815-.815,10.731-64.117,31.923-189.364s.543-1.766,2.038-1.766c0,0,9.1-.408,17.931,0l1.087,1.087,29.75,119.269.815,1.9s.543,1.087,1.494,1.087l1.358-2.853,8.286-30.836,8.15-30.836s4.347-19.969,14.263-57.6l.951-.951" transform="translate(-2829.901 -1969.128)" fill="#fff"/>
  <path id="path3527" d="M2137.528,0,2130.6.272a11.062,11.062,0,0,0-6.249,2.038,7.169,7.169,0,0,0,.136,3.8l1.494,3.4.543,1.9a1.959,1.959,0,0,1-.543,1.9c-.951-.272-3.8-2.717-3.8-2.717-2.174-2.038-3.939-1.087-3.939-1.087-1.223,4.211-1.223,10.867-1.223,10.867l.408,11.139-.679,1.358-14.263,4.483-6.928-.408c-2.309-.272-5.434,3.124-5.434,3.124-3.124,3.26-5.57,2.581-5.57,2.581a13.107,13.107,0,0,0-7.064,1.9,15.609,15.609,0,0,0-5.026,5.57c-7.064.815-10.052,4.754-10.052,4.754l-1.63,2.717a2.3,2.3,0,0,1-2.445,1.494c-6.928.679-10.46,10.6-10.46,10.6l-3.668.951a8.9,8.9,0,0,0-3.4,1.9c-1.9,1.087-3.125,5.841-3.125,5.841a5.323,5.323,0,0,1-4.347,4.211,11.971,11.971,0,0,0-4.483,4.619,13.116,13.116,0,0,0-1.087,6.52l-2.717,2.038-2.581,2.309c-1.766,1.223-2.038,5.841-2.038,5.841-.272,4.211-3.26,5.026-3.26,5.026-5.3,4.619-4.075,13.856-4.075,13.856a13.84,13.84,0,0,0-4.347,7.879,14.554,14.554,0,0,0,3.124,8.151c-2.445,6.249.136,9.237.136,9.237a237.967,237.967,0,0,1,24.452,31.108,133.478,133.478,0,0,1,15.35,34.776c1.087,2.853-.815,7.471-.815,7.471-1.9,4.619-.543,7.471-.543,7.471,3.124,5.705,10.6,8.422,10.6,8.422l13.72,2.989c52.571,5.434,115.6.815,115.6.815l16.029-2.173a36.176,36.176,0,0,0,14.263-6.385,10.242,10.242,0,0,0,2.581-10.052c-2.581-4.075-.951-10.46-.951-10.46l3.26-10.46c11.682-28.391,35.319-52.435,35.319-52.435l2.173-3.532a7.377,7.377,0,0,0-.679-5.57c-.543-1.358.815-3.26.815-3.26l1.63-3.4c1.766-5.705-3.939-10.867-3.939-10.867a18.8,18.8,0,0,0-.815-9.1,14.772,14.772,0,0,0-5.841-6.928c-.272-8.694-5.977-11.411-5.977-11.411a2.509,2.509,0,0,1-2.038-2.309l-.136-3.668a14.77,14.77,0,0,0-2.581-4.619A9.7,9.7,0,0,0,2239,81.777c-1.63-.272-2.038-2.309-2.038-2.309l-.815-3.124a11.271,11.271,0,0,0-3.668-4.483,12.9,12.9,0,0,0-5.434-2.038c-1.223-.951-2.445-3.8-2.445-3.8l-2.717-4.075a9.648,9.648,0,0,0-3.8-2.445l-4.483-1.223a14.809,14.809,0,0,0-4.483-5.841,12.421,12.421,0,0,0-6.928-2.173l-2.581-2.853-2.717-2.853c-1.766-1.494-5.026-1.9-5.026-1.9l-5.57-.408c-3.4-5.026-9.509-5.705-9.509-5.705L2166.734,36a58.629,58.629,0,0,0-9.645-3.4l-.543-.951.407-12.362-.272-5.3a9.9,9.9,0,0,0-1.223-4.754c-1.63-.679-3.26.951-3.26.951l-2.988,2.717c-.951.951-1.766-.272-1.766-.272,0-1.63,1.494-4.89,1.494-4.89a9.517,9.517,0,0,0,1.087-4.89c-1.63-2.445-5.705-2.581-5.705-2.581Zm2.853,20.784a13.693,13.693,0,0,1,6.52,2.853,16.427,16.427,0,0,1,4.347,5.705c1.494,3.532.271,5.57.271,5.57-.951,1.494-3.124,1.358-3.124,1.358l-3.532-.679L2141.2,34.1a5.5,5.5,0,0,1-2.853-2.581l-.272-5.977C2138.344,22.006,2140.381,20.784,2140.381,20.784Zm-7.93.433a3.9,3.9,0,0,1,3.04,1.6l.679,6.113a5.883,5.883,0,0,1-2.717,5.026l-5.162,1.9-5.3-.136c-2.445-3.26,1.766-9.645,1.766-9.645l5.434-4.211A4.6,4.6,0,0,1,2132.451,21.217Zm-1.193,4.406a1.983,1.983,0,0,0-.386.051,9.783,9.783,0,0,0-3.4,2.309,5.657,5.657,0,0,0-1.766,3.668l2.309.543,2.309-.951c2.717-.951,2.445-4.483,2.445-4.483A1.342,1.342,0,0,0,2131.258,25.623Zm11.079.238a1.891,1.891,0,0,0-.869.221c-.543,3.124.951,4.347.951,4.347l2.853,1.494,2.989-.272-.136-1.63C2145.449,26.366,2143.417,25.81,2142.337,25.861Zm-5.22,9.568a25.423,25.423,0,0,1,9.513,1.927l2.445,2.581c1.223,4.211,0,5.705,0,5.705-2.445,3.668-7.743,4.483-7.743,4.483l-9.373.136c-5.3-1.358-7.064-4.211-7.064-4.211-1.9-2.717.815-7.335.815-7.335,3.939-2.989,10.324-3.26,10.324-3.26C2136.4,35.438,2136.761,35.428,2137.117,35.429Zm18.784,1.893a1.718,1.718,0,0,1,.374.034l1.222,1.223-2.445,11.547c-2.038,7.879-2.581,11.411-2.581,11.411l-3.8,22.006a137.747,137.747,0,0,0-1.766,22.686c1.223.951,1.63.543,1.63.543l1.087-1.63c2.038-14.535,6.656-32.6,6.656-32.6l8.558-31.923,2.174-.272a2.607,2.607,0,0,1,.679,2.038l-.543,2.038c-11.818,33.01-16.98,70.095-16.98,70.095l-1.494,1.494-2.174-.272c-1.63-1.766-1.63-5.705-1.63-5.705l.272-6.52c1.223-32.195,9.509-65.476,9.509-65.476A1.4,1.4,0,0,1,2155.9,37.323Zm-38.215.017c1.3-.1,2.319,2.326,2.319,2.326,8.558,36.134,8.694,72.4,8.694,72.4l-.543,2.445-1.63,1.63c-2.989.408-3.26-1.63-3.26-1.63a326.413,326.413,0,0,0-6.792-36.813c-3.532-14.807-10.052-35.455-10.052-35.455-.543-1.358,1.223-2.038,1.223-2.038,1.494,0,2.174,2.173,2.174,2.173l8.15,31.651c4.347,17.8,6.521,32.33,6.521,32.33l1.494.679.951-1.494A293.4,293.4,0,0,0,2123.265,72l-6.792-32.33c-.272-1.9,1.087-2.309,1.087-2.309A1.067,1.067,0,0,1,2117.686,37.34Zm20.929,2.19-7.336.679a3.452,3.452,0,0,0-1.766,1.087,2.852,2.852,0,0,0-.543,1.9c2.174,2.445,6.385,2.853,6.385,2.853l7.335-.815c2.581-1.766,2.173-3.26,2.173-3.26C2142.962,39.394,2138.615,39.53,2138.615,39.53Zm8.015,10.188,1.358.136a1.177,1.177,0,0,1,1.087.543c-1.63,16.437-3.8,22.957-3.8,22.957-.951-.136-1.087-1.494-1.087-1.494l-.271-2.309-1.63-2.445a4,4,0,0,1-.408-2.853l2.445-3.26a4.59,4.59,0,0,0-.136-3.939c-1.494-2.853-.679-4.619-.679-4.619C2145.135,49.99,2146.63,49.718,2146.63,49.718Zm-18.61.408,2.309,2.309-.815,6.385a5.375,5.375,0,0,0,2.445,5.57c.271,1.63-1.359,4.211-1.359,4.211-1.63,2.717-1.222,4.483-1.222,4.483l-.951.272c-2.581-9.781-3.668-22.957-3.668-22.957Zm53.11,1.69c1.577,0,2.449,1.842,2.449,1.842-.407,2.989,2.581,4.483,2.581,4.483l5.026,2.173,2.038-.951,2.445-.272c1.63.543,1.358,3.26,1.358,3.26a2.515,2.515,0,0,0,1.766,2.853l3.532,2.038a3.469,3.469,0,0,0,3.668-.815,2.73,2.73,0,0,1,2.853,2.038l-.407,2.581a2.157,2.157,0,0,0,.815,2.038l3.532,3.26,3.8.272,2.173.136,1.358,1.766c.272.815-.543,2.309-.543,2.309a2.016,2.016,0,0,0,.271,2.173l2.581,2.853,2.581,2.445,1.9-.543,1.766.272a3.545,3.545,0,0,1,.407,3.8c-.407,1.766,1.087,3.8,1.087,3.8l2.717,3.4,2.309.272,1.766,1.358-.543,3.4a4,4,0,0,0,.951,2.989l.951,1.766,1.358,1.494h2.309l1.494,1.223c.543,1.223-.815,3.124-.815,3.124a2.692,2.692,0,0,0-.136,2.989l1.494,3.939a2.236,2.236,0,0,0,2.853,1.766l2.581.136.815,1.766-.407,1.766c-1.9.272-2.581,2.445-2.581,2.445l-1.766,3.26c-3.668.543-4.89-3.668-4.89-3.668l-2.174-6.928c-8.694-22.414-27.848-40.888-27.848-40.888A109.8,109.8,0,0,0,2168.5,56.1a1.324,1.324,0,0,1-.815-1.223,2.437,2.437,0,0,1,.407-1.358l6.249-.272c4.075,1.358,5.841-1.223,5.841-1.223A2.332,2.332,0,0,1,2181.13,51.815Zm-88.866.153c1.307-.031,3.426,1.418,3.426,1.418a2.864,2.864,0,0,0,3.668,0l5.57-.679a3.377,3.377,0,0,1,1.223,2.581,35.539,35.539,0,0,1-6.113,2.445,38.326,38.326,0,0,0-6.249,2.309c-17.523,8.286-32.6,23.365-32.6,23.365a118.429,118.429,0,0,0-22.821,32.738,122.467,122.467,0,0,0-6.113,15.486c-1.494,2.038-4.483,1.223-4.483,1.223a1.25,1.25,0,0,1-.815-1.358v-2.038l-1.9-1.494a2.886,2.886,0,0,1-1.494-1.9c-.136-1.766,1.766-2.717,1.766-2.717l3.4.408c1.9-2.853,3.124-8.015,3.124-8.015l-.951-1.358-.543-1.494a2.212,2.212,0,0,1,1.63-2.445,3.091,3.091,0,0,0,3.532-1.223l1.766-3.532-.136-3.532a2.529,2.529,0,0,1,1.766-2.853c2.309.272,3.939-2.038,3.939-2.038l2.445-3.939-.815-2.309a3.151,3.151,0,0,1,.407-2.309c.951-1.63,3.124-.408,3.124-.408l.815.272.815-.272,3.26-3.532a4.635,4.635,0,0,0,1.358-4.075l-.407-1.494a2.219,2.219,0,0,1,.543-1.494c1.087-1.9,3.4-.679,3.4-.679l2.173.408,4.211-3.532a3.632,3.632,0,0,0,.951-4.619c0-1.63,2.309-2.717,2.309-2.717l1.63.408,1.494.679a14.724,14.724,0,0,0,6.521-4.075c-.543-2.581.407-3.8.407-3.8a3.2,3.2,0,0,1,3.26-.408l4.347.272,4.211-2.309.951-2.853a2.736,2.736,0,0,1,1.63-2.445A1.287,1.287,0,0,1,2092.263,51.968Zm11.3,18.67,3.4.408a3.328,3.328,0,0,1,2.309,2.038l1.9,5.705a6.384,6.384,0,0,1-.951,5.705c-7.2.272-20.784,8.015-20.784,8.015-12.5,7.2-21.327,5.977-21.327,5.977l-1.087-.543-.951-.951c.407-2.038,2.581-4.483,2.581-4.483l3.939-3.8c11.818-9.1,14.671-10.867,14.671-10.867A53.462,53.462,0,0,1,2103.568,70.638Zm64.767.068c6.671-.037,13.478,4.143,13.478,4.143l13.177,8.694c8.83,6.52,12.769,12.226,12.769,12.226.272,1.63-1.9,2.581-1.9,2.581-8.83,1.223-21.327-5.841-21.327-5.841-13.584-7.879-20.784-8.015-20.784-8.015-2.038-1.358-1.494-4.347-1.494-4.347l1.358-4.754c1.222-4.075,3.4-4.619,3.4-4.619C2167.448,70.731,2167.889,70.708,2168.335,70.706ZM2115.522,92.78l1.223,2.038,1.9,9.373a54.594,54.594,0,0,1,1.087,9.645l-1.494,1.9a2.049,2.049,0,0,0-.272,2.309l3.26,3.939,2.717,3.939c-1.494.136-4.211-1.223-4.211-1.223-2.717-1.358-4.347-.951-4.347-.951a22.872,22.872,0,0,0-1.359,6.249l-.136,6.656c0,13.177,2.309,20.24,2.309,20.24,1.766,1.087,3.668-1.087,3.668-1.087l3.4-3.4c4.755-3.8,6.385-4.483,6.385-4.483l-.407,2.173-1.358,2.173c-5.162,6.385-13.448,8.558-13.448,8.558-7.471,1.9-16.03,0-16.03,0a11.441,11.441,0,0,1-4.754-3.26,11.674,11.674,0,0,1-2.309-5.162c-.543-4.754,2.038-5.977,2.038-5.977l5.705.951c3.26.815,4.347-2.445,4.347-2.445a13.614,13.614,0,0,0,.271-6.656,13.257,13.257,0,0,0-2.989-5.841,9.364,9.364,0,0,0-6.792-2.989l-2.581.679-2.717-.136-2.174-5.57a10.451,10.451,0,0,0-3.4-5.026,7.6,7.6,0,0,0-6.249-2.581c-8.422,3.532-7.879,16.573-7.879,16.573l-4.211,1.087c-2.853.136-3.939,1.358-3.939,1.358-5.026,4.211-4.075,12.09-4.075,12.09.543,4.89,3.26,6.52,3.26,6.52,1.494.543,4.89-2.309,4.89-2.309,2.717-2.309,4.483.951,4.483.951,1.9,3.939,1.222,6.52,1.222,6.52-2.038,5.026-7.335,7.471-7.335,7.471-4.619,2.173-10.6,2.038-10.6,2.038-4.075-.543-5.434-2.989-5.434-2.989-.951-1.63-.136-4.483-.136-4.483l.408-4.619-3.26-11.818c-1.9-7.064.679-11.954.679-11.954a103.306,103.306,0,0,1,5.705-11.682,34.36,34.36,0,0,1,8.966-9.916c3.8-3.532,13.313-4.075,13.313-4.075,10.188-.679,13.72-2.989,13.72-2.989l13.856-7.879A37.78,37.78,0,0,1,2115.522,92.78Zm45.915,0,3.8.679c5.026,1.087,15.35,7.471,15.35,7.471,9.509,5.705,15.894,6.113,15.894,6.113,8.966-1.087,16.844,3.939,16.844,3.939,7.335,4.619,11.547,12.9,11.547,12.9l4.211,10.188a19.01,19.01,0,0,1,.679,11l-2.989,9.1a14.834,14.834,0,0,0,.407,9.509c.136,2.717-2.581,4.211-2.581,4.211-7.879,3.124-16.98-2.581-16.98-2.581-4.89-4.075-4.619-7.607-4.619-7.607.543-4.619,3.124-6.52,3.124-6.52,1.087-.136,5.026,2.445,5.026,2.445,2.853,1.9,4.619-1.223,4.619-1.223a18.9,18.9,0,0,0,1.494-7.064,15.5,15.5,0,0,0-1.9-7.064,8.979,8.979,0,0,0-4.347-3.4l-5.57-.815c-1.087-1.358-.951-4.619-.951-4.619,0-3.668-.543-4.89-.543-4.89l-2.853-5.026a8.73,8.73,0,0,0-4.89-2.989c-2.853.136-5.434,2.581-5.434,2.581a13.241,13.241,0,0,0-3.532,5.026l-.815,3.4a3.744,3.744,0,0,1-2.174,2.717l-5.705-.679a7.3,7.3,0,0,0-5.162,2.309c-5.434,6.52-3.4,12.226-3.4,12.226a5.089,5.089,0,0,0,2.853,3.4l5.026-1.223a3.463,3.463,0,0,1,4.075,1.766c1.494,4.619-2.445,10.052-2.445,10.052-5.026,3.939-13.312,3.668-13.312,3.668a38.164,38.164,0,0,1-13.584-3.4c-7.743-5.3-9.1-10.052-9.1-10.052.136-.543.815-.408.815-.408l.951.408,10.324,8.966a1.5,1.5,0,0,0,1.9-.679l.679-2.038a103.536,103.536,0,0,0,.679-30.293l-2.988-.408-2.989,1.223-3.124.679c.136-.815,4.483-5.705,4.483-5.705a4.1,4.1,0,0,0-.136-5.977c-.272-8.966,3.668-20.92,3.668-20.92Zm-24.995,43.334a6.059,6.059,0,0,1,3.8,1.358c1.766,1.63.679,4.619.679,4.619-1.222,2.717-4.619,2.445-4.619,2.445-2.988-.543-3.667-2.309-3.667-2.309-.951-2.853.136-4.211.136-4.211A5.227,5.227,0,0,1,2136.442,136.114Zm55.967,13.041,5.026.679a4.233,4.233,0,0,1,2.989,2.989,2.95,2.95,0,0,1-1.766,3.532c-4.754,2.038-10.188-1.087-10.188-1.087-1.63-1.494-.543-4.075-.543-4.075C2189.42,149.291,2192.409,149.155,2192.409,149.155Zm-111.608.158a7.986,7.986,0,0,1,4.564,1.065,3.464,3.464,0,0,1,.407,3.939c-2.445,3.4-9.781,2.581-9.781,2.581a3.5,3.5,0,0,1-2.717-2.445,4.129,4.129,0,0,1,2.31-4.211A17.246,17.246,0,0,1,2080.8,149.312Zm165.154,6.491a2.041,2.041,0,0,1,2.013,1.5,4.465,4.465,0,0,1-1.9,3.668h-2.309c-1.358-.679-.407-3.4-.407-3.4a3.049,3.049,0,0,1,2.445-1.766C2245.849,155.807,2245.9,155.8,2245.955,155.8Zm-218.866.28,2.445.543a3.856,3.856,0,0,1,1.358,2.038,2.147,2.147,0,0,1-1.494,2.717c-1.9.543-3.4-2.173-3.4-2.173A2.337,2.337,0,0,1,2027.089,156.083Zm109.081,4.754c2.309.543,5.162,2.989,5.162,2.989l4.754,4.075.272.543-1.358.543-17.8-.272V167.9Zm54.6,6.2a3.105,3.105,0,0,1,.547.046l7.471,7.2a.558.558,0,0,1-.543.815l-7.879-1.358-7.607-2.038v-.543l4.075-2.853A6.971,6.971,0,0,1,2190.774,167.04Zm-106.955.174a3.724,3.724,0,0,1,1.953.552l2.581,1.766,2.309,1.63-.951,1.223-1.766.408-6.656,1.223-6.385.815v-.543l5.026-5.162A5.278,5.278,0,0,1,2083.819,167.214Zm50.941,5.018c15.123-.041,26.269.967,26.269.967l33.417,4.89a169.006,169.006,0,0,1,31.379,9.645c.679.815-.271,2.853-.271,2.853-.679,1.223-3.125.408-3.125.408-38.987-14.4-86.531-14.263-86.531-14.263-47.816.136-86.4,14.807-86.4,14.807-.951,0-2.038-2.038-2.038-2.038-.272-1.63,1.494-2.445,1.494-2.445l3.125-1.223c24.723-8.83,52.707-11.954,52.707-11.954A266.724,266.724,0,0,1,2134.76,172.232Zm-91.914,6.537,4.483,1.494,4.619.951v.815l-3.26,1.358-3.4.543-1.766-2.445A5.034,5.034,0,0,1,2042.846,178.768Zm188.006,0c.271,3.26-2.853,5.162-2.853,5.162-4.347-.815-6.249-2.309-6.249-2.309l.136-.408ZM2136.4,184.6a107.314,107.314,0,0,1,14.3.827c2.173.951,1.9,4.075,1.9,4.075.271,2.717-2.581,3.668-2.581,3.668l-26.218.272c-2.445-1.223-2.717-2.717-2.717-2.717-.951-4.483,1.9-5.434,1.9-5.434A131.771,131.771,0,0,1,2136.4,184.6Zm45.252,3.638a10.757,10.757,0,0,1,2.739.314l3.668,1.358a5.7,5.7,0,0,1,2.853,2.445c1.358,3.532.272,5.162.272,5.162-1.494,2.445-5.162,2.581-5.162,2.581l-5.977-.815-2.717-1.223a5.593,5.593,0,0,1-2.038-2.173,6.814,6.814,0,0,1,.543-5.3A7.819,7.819,0,0,1,2181.655,188.235Zm-89.8.136a15.738,15.738,0,0,1,2.751.178,5.654,5.654,0,0,1,3.668,2.989,6.05,6.05,0,0,1-.272,4.619,10.834,10.834,0,0,1-5.434,3.26l-6.792.543a4.939,4.939,0,0,1-3.668-3.532c-.407-2.309,1.223-5.162,1.223-5.162A13.215,13.215,0,0,1,2091.852,188.371Zm-30.7,8.72c2.4-.088,3.294,2.461,3.294,2.461.679,2.853,0,3.8,0,3.8-6.249,3.4-10.052,2.853-10.052,2.853a13.218,13.218,0,0,1-2.038-5.434c1.222-1.63,4.075-2.309,4.075-2.309l4.483-1.358C2060.994,197.1,2061.074,197.093,2061.151,197.091Zm150.411.016,4.619.951,4.347,1.494a3.97,3.97,0,0,1,.408,3.124l-1.223,3.124c-2.174,1.087-5.162,0-5.162,0-3.26-1.494-4.89-2.038-4.89-2.038a3.247,3.247,0,0,1-.815-2.445l.679-2.581A2.932,2.932,0,0,1,2211.562,197.107ZM2135.9,208.789a366.852,366.852,0,0,1,59.635,5.434l11.275,3.26,5.3,2.717a9.041,9.041,0,0,1,3.668,4.754c.543,2.717-3.124,5.3-3.124,5.3-9.509,4.619-26.9,5.841-26.9,5.841-59.635,3.668-104.327-.543-104.327-.543l-12.5-2.173a21.861,21.861,0,0,1-10.867-5.977c-.815-1.766.543-4.347.543-4.347,2.989-3.532,8.422-5.57,8.422-5.57l9.509-2.853C2104.247,208.789,2135.9,208.789,2135.9,208.789Zm3.073,8.155a331.118,331.118,0,0,0-67.869,7.2l-1.63,1.494-.272,1.494.951,1.358c8.83,3.26,22.007,4.211,22.007,4.211l23.229.815h41.3l40.345-2.989,4.483-1.087a4.533,4.533,0,0,0,2.989-3.124c-1.223-1.9-4.075-2.717-4.075-2.717l-4.89-1.223-44.964-5.162C2146.66,217.034,2142.784,216.949,2138.971,216.944Z" transform="translate(-1735.877)" fill="#fff"/>
  <path id="path3599" d="M3480.843,1839.741a4.429,4.429,0,0,0-.492.034,6.859,6.859,0,0,0-4.211,2.445c-2.445,6.385,3.8,16.029,3.8,16.029,1.223,1.358,4.347,1.63,4.347,1.63a8.287,8.287,0,0,0,4.619-2.717c2.038-6.521-3.939-15.758-3.939-15.758A5.149,5.149,0,0,0,3480.843,1839.741Zm-.492,3.294c2.445.543,3.668,3.4,3.668,3.4l1.766,4.89c.951,4.347-1.358,5.3-1.358,5.3-2.717-.815-3.939-4.211-3.939-4.211l-1.766-5.977A2.992,2.992,0,0,1,3480.351,1843.035Z" transform="translate(-3003.443 -1589.825)" fill="#fff"/>
  <path id="path3601" d="M2354.753,1859.815a14.778,14.778,0,0,1,3.26,1.494s.272,1.766-.815,1.9l-3.668-.407s-2.174-.408-2.989,1.223a3.917,3.917,0,0,0,0,2.309,2.355,2.355,0,0,0,1.63,1.358l2.309.543,1.63,1.358s-.543,1.9-4.211,1.223c0,0-3.4-.679-3.668,2.173a2.882,2.882,0,0,0,2.173,3.124s3.125.951,3.532,1.766l-.679,1.63-4.755-.543-4.483-1.494-.272-1.223,4.211-16.844,3.4-.408,3.4.815" transform="translate(-2025.37 -1606.469)" fill="#fff"/>
  <path id="path3603" d="M3350.988,1879.749a2.247,2.247,0,0,0-1.978,1.121l-3.26,13.584.543,2.038,2.445.136,2.853-.407a2.037,2.037,0,0,1,1.766.815l1.358,1.63c.951.543,2.174-.679,2.174-.679a4.738,4.738,0,0,1,.407-2.853l.136-2.581a11.255,11.255,0,0,1-2.989-4.89l-1.358-5.841c.136-1.63-1.63-2.038-1.63-2.038A2.828,2.828,0,0,0,3350.988,1879.749Zm-.755,7.1a3.683,3.683,0,0,1,1.766,2.445l.407,3.26a3.861,3.861,0,0,1-3.26,1.223C3347.924,1891.058,3350.233,1886.847,3350.233,1886.847Z" transform="translate(-2891.256 -1624.4)" fill="#fff"/>
  <path id="path3607" d="M2508.655,1897.537a2.089,2.089,0,0,1-1.223,1.9l-2.581-.951-2.581.136a2.6,2.6,0,0,0-.815,2.853l3.8,3.4s2.445,1.9,2.445,4.075c0,0-.272,4.211-3.124,5.705l-6.656-.136a4.294,4.294,0,0,1-2.173-2.309l.272-.951.815-.679,2.717,1.087,2.717.272a2.63,2.63,0,0,0,1.494-3.124l-4.619-4.211s-2.717-2.717-1.494-5.705a6.838,6.838,0,0,1,5.162-3.939s4.211-.272,5.841,2.581" transform="translate(-2156.722 -1637.535)" fill="#fff"/>
  <path id="path3609" d="M3196.092,1907a6.97,6.97,0,0,0-5.434,3.4c-1.222,4.075,1.359,5.705,1.359,5.705,1.087,1.223,0,3.668,0,3.668-1.223,2.581-.136,4.075-.136,4.075a5.535,5.535,0,0,0,3.532,3.4c4.619.272,7.064-1.63,7.064-1.63,1.766-2.853,1.358-4.347,1.358-4.347,0-2.173-2.717-4.619-2.717-4.619-.407-.815.543-2.717.543-2.717.951-2.445-.815-5.162-.815-5.162A7.555,7.555,0,0,0,3196.092,1907Zm-.238,3.04a2.893,2.893,0,0,1,2.547,1.714,2.854,2.854,0,0,1-1.494,3.26l-2.038-.407a2.793,2.793,0,0,1-1.087-1.766c.272-2.173,1.494-2.717,1.494-2.717A2.838,2.838,0,0,1,3195.854,1910.04Zm.645,8.914,2.309.136,1.358,1.63a3.179,3.179,0,0,1-1.494,3.4c-2.038.951-3.4-1.494-3.4-1.494C3194.462,1919.769,3196.5,1918.954,3196.5,1918.954Z" transform="translate(-2756.948 -1647.949)" fill="#fff"/>
  <path id="path3615" d="M2666.58,1914.358l.815,1.087-.407,1.358-2.581.272s-1.766.136-2.038,1.494l-.815,7.2-1.358,7.2-2.581-.272a37.42,37.42,0,0,1,.271-7.335l.543-7.471s-.272-1.358-2.989-1.9a1.623,1.623,0,0,1-1.222-2.445l1.222-.543,11.139,1.358" transform="translate(-2293.456 -1653.134)" fill="#fff"/>
  <path id="path3617" d="M3069.837,1926.353l.815,8.558.543,8.558-2.717.408a37.825,37.825,0,0,1-1.223-7.471l-.815-7.471s-.272-.815-2.309-1.358a1.516,1.516,0,0,1-1.087-2.038s1.494-1.087,6.113-.815l.679,1.63" transform="translate(-2646.858 -1663.227)" fill="#fff"/>
  <path id="path3619" d="M2809.939,1926.93a5.529,5.529,0,0,0-3.918,1.367l-.272,17.524.543.815,9.781-.272,3.668-2.309,2.309-3.668c1.494-4.075-.815-8.422-.815-8.422-1.359-2.717-5.57-4.483-5.57-4.483l-5.162-.543C2810.309,1926.93,2810.121,1926.926,2809.939,1926.93Zm2.373,3.382a3.881,3.881,0,0,1,.5.022,6,6,0,0,1,3.26,1.358c2.309,1.9,2.309,6.249,2.309,6.249a6.475,6.475,0,0,1-3.124,5.026l-4.89.679-.951-1.358.407-10.867A3.05,3.05,0,0,1,2812.313,1930.312Z" transform="translate(-2424.611 -1665.17)" fill="#fff"/>
  <path id="path3623" d="M2959.687,2055.223s0,1.9-1.359,2.038a1.983,1.983,0,0,1-1.9-1.358s-.407-.815,1.087-1.9l1.494.136.679,1.087" transform="translate(-2554.776 -1774.98)" fill="#fff"/>
</svg>
