<svg xmlns="http://www.w3.org/2000/svg" width="556" height="285.253" viewBox="0 0 556 285.253">
  <g id="Layer_1_copy" transform="translate(-5.998 -19.991)">
    <g id="Group_1" data-name="Group 1" transform="translate(5.998 19.991)">
      <path id="Path_1" data-name="Path 1" d="M112.63,139.019H69.455V80.865H112.63a29.191,29.191,0,1,1,0,58.153M532.921,267.661,483.579,46.5a32.617,32.617,0,0,0-63.44-2.643l-54.629,144.5L311.762,44.739a32.617,32.617,0,0,0-63.44,2.643l-37.888,189.44-63.44-51.1a81.221,81.221,0,0,0,61.678-74.895c0-58.154-43.175-90.755-92.517-90.755H37.735a31.721,31.721,0,0,0-9.692,1.762c-.881,0-1.762.881-2.643.881h0A31.271,31.271,0,0,0,6.015,52.669V272.948a31.72,31.72,0,0,0,63.44,0V197.172l126,95.16a48.153,48.153,0,0,0,26.433,12.336h0a30.028,30.028,0,0,0,19.385-2.643,27.517,27.517,0,0,0,14.1-14.1h0a85.705,85.705,0,0,0,5.287-13.217l27.315-117.188,47.58,128.643a31.614,31.614,0,0,0,30.839,18.5,31.967,31.967,0,0,0,29.077-18.5l48.461-130.4,29.077,123.356a30.513,30.513,0,1,0,59.916-11.455" transform="translate(-5.998 -19.991)" fill="#fff"/>
      <path id="Path_2" data-name="Path 2" d="M71.811,24.506H64.762A1.894,1.894,0,0,1,63,22.743v-.881A1.894,1.894,0,0,1,64.762,20.1H84.147a1.894,1.894,0,0,1,1.762,1.762v.881a1.894,1.894,0,0,1-1.762,1.762H77.1V45.652a1.894,1.894,0,0,1-1.762,1.762H73.573c-1.762,0-1.762-.881-1.762-1.762Z" transform="translate(439.252 -19.142)" fill="#fff"/>
      <path id="Path_3" data-name="Path 3" d="M67.562,21.862A1.894,1.894,0,0,1,69.324,20.1h2.643c.881,0,1.762,0,1.762.881l5.287,12.336a41.5,41.5,0,0,1,1.762,4.406h0a41.5,41.5,0,0,1,1.762-4.406l4.406-12.336c0-.881.881-.881,1.762-.881h2.643a1.894,1.894,0,0,1,1.762,1.762l1.762,23.79a1.894,1.894,0,0,1-1.762,1.762H91.352a1.894,1.894,0,0,1-1.762-1.762l-.881-13.217V28.03h0a41.5,41.5,0,0,1-1.762,4.406l-3.525,8.811c0,.881-.881.881-1.762.881H79.9c-.881,0-1.762,0-1.762-.881l-3.525-8.811a41.507,41.507,0,0,1-1.762-4.406h0v4.406l-.881,13.217a1.894,1.894,0,0,1-1.762,1.762H67.562A1.894,1.894,0,0,1,65.8,45.652Z" transform="translate(461.123 -19.142)" fill="#fff"/>
    </g>
  </g>
</svg>