<svg xmlns="http://www.w3.org/2000/svg" width="794.68" height="161.11" viewBox="0 0 794.68 161.11">
  <g id="spar" transform="translate(-219.27 0)">
    <path id="path46321" d="M575.91,30.93c6.97,0,11.29,2.57,17.81,10.9L642.2,111.2a9.851,9.851,0,0,1-2.12,13.18c-3.94,3.33-10.91,3.63-14.69-1.36l-11.6-16.05H537.43l-11.59,16.35c-4.09,4.85-9.09,4.85-13.63,1.82a9.733,9.733,0,0,1-3.03-13.48l48.93-69.82C564.33,33.2,569.25,30.93,575.91,30.93Zm2.9,25.67c-1.28-1.87-1.75-2.05-3.11-2.05-1.52,0-2.12.76-3.15,2.14-1.67,2.23-21.11,30.88-21.33,30.88h49.09c-.1,0-18.79-26.96-21.5-30.97" fill="#fff"/>
    <path id="path46349" d="M245.25,31.05h69.84c17.33,0,18.92,19.94,18.92,19.94H248.09c-4.25,0-8.2,3.21-8.2,8.8,0,6.37,4.84,9.4,7.9,9.4h60.72c12.03,0,29.15,10.02,29.15,27.32,0,22.46-19.89,30.44-26.81,30.44H239.81c-21.11,0-19.94-20.13-19.94-20.13h88.05c3.52,0,8.71-3.49,8.71-8.71,0-4.98-4.55-8.8-7.9-8.8h-59.5c-16.88,0-29.96-12.53-29.96-29.53-.03-19.12,16.38-28.73,25.98-28.73" fill="#fff"/>
    <path id="path46377" d="M692.88,30.92H765c10.93,0,27.88,8.93,27.88,30.29v1.36c0,11.37-7.12,21.36-17.12,26.2,0,0,.72,1.09,16.21,22.11,2.01,2.72,2.12,9.24-2.27,13.18-4.19,3.76-11.17,4.23-14.69.15-4.92-5.69-10.61-13.18-26.21-33.01H720.62c-8.03,0-18.93-6.37-18.93-20.45h60.9a9.53,9.53,0,0,0,8.61-9.53c0-5.75-5.1-9.7-8.64-9.7H695.3l.05,63.75a11,11,0,1,1-21.98.29V50.61c-.02-10.92,11.49-19.69,19.51-19.69" fill="#fff"/>
    <path id="path46405" d="M395.66,31.08h72.12c10.93,0,27.88,8.94,27.88,30.29v1.36c0,11.38-7.12,21.36-17.12,26.2a64.034,64.034,0,0,1-10.02,2.28h-45.3c-8.03,0-18.33-6.51-18.33-20.6h60.29c3.31-.14,8.78-3.01,8.78-9.23,0-5.75-5.1-9.7-8.64-9.7l-67.25-.01.04,63.76a11,11,0,1,1-21.98.29V50.77c-.01-10.92,11.5-19.69,19.53-19.69" fill="#fff"/>
    <path id="Subtraction_1" data-name="Subtraction 1" d="M-597.4,41.11a100.012,100.012,0,0,1-21.418-2.295A86.979,86.979,0,0,1-638.68,31.93a72.8,72.8,0,0,1-17.577-12.149A72.641,72.641,0,0,1-669.225,3.519a77.268,77.268,0,0,1-8.026-19.392A84.447,84.447,0,0,1-680-37.41a83.373,83.373,0,0,1,6.373-32.2,82.105,82.105,0,0,1,7.512-14.031,81.868,81.868,0,0,1,9.992-12.215,81.076,81.076,0,0,1,26.213-17.67A83.414,83.414,0,0,1-597.41-120,82.718,82.718,0,0,1-565-113.487a82,82,0,0,1,14.04,7.635,82.4,82.4,0,0,1,12.183,10.1,82.618,82.618,0,0,1,10.016,12.233,82.506,82.506,0,0,1,7.539,14.026,82.665,82.665,0,0,1,6.4,32.079,80.167,80.167,0,0,1-3,21.676,80.688,80.688,0,0,1-8.434,19.614,76.459,76.459,0,0,1-13.028,16.3A68.493,68.493,0,0,1-556.06,31.93a87.441,87.441,0,0,1-19.905,6.885A100.193,100.193,0,0,1-597.4,41.11Zm0-144.58A66.165,66.165,0,0,0-663.52-37.41c0,16.028,4.016,24.01,10.63,35.25A39.345,39.345,0,0,0-619.26,17.49h.165c7.963,0,13.417-7.28,13.515-14.081l-.1-12.27h-42.84c17.44-19.544,42.737-61.2,51.151-89.73,8.512,29.122,34.1,70.657,51.739,89.719h-43.5V3.37a13.735,13.735,0,0,0,13.937,14.121h.183c5-.061,22.183-1.678,33.46-19.939,1.715-2.771,10.27-17.481,10.27-34.961C-531.28-73.219-561.559-103.47-597.4-103.47Z" transform="translate(1528.77 120)" fill="#fff"/>
  </g>
</svg>
