<svg xmlns="http://www.w3.org/2000/svg" width="293.873" height="199.294" viewBox="0 0 293.873 199.294">
  <g id="vodafone" transform="translate(-52.273 -48.483)">
    <path id="Subtraction_1" data-name="Subtraction 1" d="M-1055.073-248.213a67.229,67.229,0,0,1-26.334-5.317,67.43,67.43,0,0,1-21.5-14.5,67.427,67.427,0,0,1-14.5-21.5,67.224,67.224,0,0,1-5.317-26.333,67.228,67.228,0,0,1,5.316-26.333,67.424,67.424,0,0,1,14.5-21.5,67.427,67.427,0,0,1,21.5-14.5,67.234,67.234,0,0,1,26.334-5.316,67.224,67.224,0,0,1,26.332,5.316,67.421,67.421,0,0,1,21.5,14.5,67.424,67.424,0,0,1,14.5,21.5,67.231,67.231,0,0,1,5.316,26.333,67.232,67.232,0,0,1-5.316,26.333,67.429,67.429,0,0,1-14.5,21.5,67.424,67.424,0,0,1-21.5,14.5A67.219,67.219,0,0,1-1055.073-248.213Zm23.171-127.056a46.058,46.058,0,0,0-5.008.3,66.937,66.937,0,0,0-8.412,1.507c-1.17.289-2.312.6-3.395.916-1.828.541-3.661,1.163-5.449,1.849a62.091,62.091,0,0,0-18.214,10.671,57.467,57.467,0,0,0-18.7,29.8,52.45,52.45,0,0,0-1.435,9.553l0,.066c-.012.231-.021.425-.029.63a46.592,46.592,0,0,0,.224,6.859,44.17,44.17,0,0,0,1.218,6.569c.066.262.14.526.213.781l0,.006.023.081a40.5,40.5,0,0,0,4.824,10.7,38.1,38.1,0,0,0,4.853,6.068,37.7,37.7,0,0,0,16.363,9.8,36.071,36.071,0,0,0,5.688,1.166,35.707,35.707,0,0,0,3.762.257c.153,0,.313,0,.5,0a35.746,35.746,0,0,0,9.478-1.285,35.673,35.673,0,0,0,12.653-6.379,34.57,34.57,0,0,0,3.057-2.706,34.54,34.54,0,0,0,6.446-8.844,35.71,35.71,0,0,0,3.865-16.155c0-.444-.009-.88-.026-1.3a37.806,37.806,0,0,0-1.543-9.629,31.7,31.7,0,0,0-4.011-8.518c-.156-.233-.323-.472-.539-.777a31.856,31.856,0,0,0-9.22-8.5,43.684,43.684,0,0,0-14.009-5.5c0-.086-.011-.172-.017-.259-.013-.184-.026-.37-.026-.559a26.966,26.966,0,0,1,5.119-15.868,27.445,27.445,0,0,1,5.762-5.879,27.431,27.431,0,0,1,7.332-3.941c.924-.329,1.417-.622,1.468-.873a.447.447,0,0,0-.013-.1c-.094-.291-.91-.5-2.079-.525C-1031.416-375.266-1031.658-375.268-1031.9-375.268Z" transform="translate(1256.094 432)" fill="#fff"/>
    <g id="Group_5" data-name="Group 5">
      <g id="Group_4" data-name="Group 4">
        <path id="Path_3" data-name="Path 3" d="M63.612,211.852l8.671,22.871,8.386-22.871H91.532l-14.2,35.066H67.043l-14.77-35.066Z" fill="#fff"/>
        <path id="Path_4" data-name="Path 4" d="M110.019,247.777c-11.244,0-18.3-7.908-18.3-18.39s7.052-18.393,18.3-18.393c11.339,0,18.391,7.909,18.391,18.393S121.358,247.777,110.019,247.777Zm0-28.778c-5.432,0-8.1,4.767-8.1,10.483,0,5.621,2.668,10.291,8.1,10.291s8.1-4.67,8.1-10.291C118.118,223.765,115.45,219,110.019,219Z" fill="#fff"/>
        <path id="Path_5" data-name="Path 5" d="M167.478,197.559v48.693a73.074,73.074,0,0,1-14.96,1.524c-12.1,0-19.916-6.385-19.916-18.582,0-10.291,7.052-18.2,17.628-18.2a21.938,21.938,0,0,1,7.624,1.334v-14.77h9.624Zm-9.624,23.061A14.234,14.234,0,0,0,150.993,219c-5.241,0-8.194,4.479-8.194,10.2,0,6.957,4.479,10.483,9.91,10.483a27.082,27.082,0,0,0,5.146-.381V220.62Z" fill="#fff"/>
        <path id="Path_6" data-name="Path 6" d="M171.957,230.148c0-11.055,8.2-19.153,19.916-19.153a44.18,44.18,0,0,1,15.055,2.766v33.158h-8.575l-.666-3.049c-2,2.288-4.861,3.907-9.435,3.907C179.007,247.777,171.957,241.012,171.957,230.148Zm25.252-10.2a22.712,22.712,0,0,0-5.527-.668c-4.669,0-9.529,3.624-9.529,10.483,0,6.766,3.812,10.006,8.1,10.006a8.157,8.157,0,0,0,6.956-3.621Z" fill="#fff"/>
        <path id="Path_7" data-name="Path 7" d="M225.511,196.7a39.044,39.044,0,0,1,7.431.857v8.385c-1.524-.189-4.1-.38-5.431-.38-2.288,0-3.144.38-3.907,1.048-.668.666-.855,1.62-.855,3.145v2.1h8.859v8.482h-8.859v26.584h-9.628V208.995c0-4.1,1.336-7.147,3.528-9.244A12.822,12.822,0,0,1,225.511,196.7Z" fill="#fff"/>
        <path id="Path_8" data-name="Path 8" d="M250.855,247.777c-11.339,0-18.39-7.908-18.39-18.39s7.051-18.393,18.39-18.393,18.3,7.909,18.3,18.393S262.2,247.777,250.855,247.777Zm0-28.778c-5.431,0-8.1,4.767-8.1,10.483,0,5.621,2.668,10.291,8.1,10.291s8.1-4.67,8.1-10.291C258.957,223.765,256.289,219,250.855,219Z" fill="#fff"/>
        <path id="Path_9" data-name="Path 9" d="M298.407,227.67c0-5.239-2.668-7.909-8.006-7.909a33.161,33.161,0,0,0-7.146.858v26.3H273.63V213.76a54.223,54.223,0,0,1,16.865-2.766c11.149,0,17.629,5.528,17.629,14.771v21.153h-9.718V227.67Z" fill="#fff"/>
        <path id="Path_10" data-name="Path 10" d="M312.6,229.2c0-11.147,7.051-18.295,17.247-18.295,10.291,0,16.3,8,16.3,17.819,0,1.334-.1,3.144-.192,3.906H322.418c.479,4.955,3.719,7.623,10.1,7.623a41.878,41.878,0,0,0,12.293-1.9v6.384a28.239,28.239,0,0,1-12.674,2.954C319.75,247.682,312.6,241.107,312.6,229.2Zm24.68-3.62C337,221.954,334.426,219,329.851,219s-6.86,2.479-7.243,6.576Z" fill="#fff"/>
      </g>
    </g>
  </g>
</svg>
